<?xml version="1.0" encoding="utf-8"?>
<!-- Generator: Adobe Illustrator 27.5.0, SVG Export Plug-In . SVG Version: 6.00 Build 0)  -->
<svg width="256px" height="195.98px" version="1.1" id="Layer_1" xmlns="http://www.w3.org/2000/svg" xmlns:xlink="http://www.w3.org/1999/xlink" x="0px" y="0px"
	 viewBox="0 0 288.7 205.9" style="enable-background:new 0 0 288.7 205.9;" xml:space="preserve">
<style type="text/css">
	.st0{fill:#6D6E71;}
	.st1{fill:#1B3764;}
	.st2{fill:#939598;}
	.st3{fill:url(#SVGID_1_);}
	.st4{fill:url(#SVGID_00000107566814517872135840000004961662700412297908_);}
	.st5{fill:url(#SVGID_00000046322039775711241830000009698427859095953591_);}
	.st6{fill:url(#SVGID_00000124163215539346710910000012234410082223530115_);}
	.st7{fill:url(#SVGID_00000170974298789285831410000004445649369582043579_);}
	.st8{fill:url(#SVGID_00000075870795221907099530000006532205670021906868_);}
	.st9{fill:url(#SVGID_00000114056200649508675320000003376836775654094001_);}
	.st10{fill:url(#SVGID_00000130605637048123537390000009067868762016766098_);}
	.st11{fill:url(#SVGID_00000029737582683270448400000002848675229505653636_);}
	.st12{fill:url(#SVGID_00000033356164344098009810000002629259616296305308_);}
	.st13{fill:url(#SVGID_00000015314796315435828810000011688167486232012930_);}
	.st14{fill:url(#SVGID_00000000220254707889870580000000370264476333935775_);}
	.st15{fill:url(#SVGID_00000178201782238595285930000004745456039557008279_);}
	.st16{fill:url(#SVGID_00000072984244703741366700000013708749688635452861_);}
	.st17{fill:url(#SVGID_00000101814810884177575420000007915287319072380085_);}
	.st18{fill:url(#SVGID_00000160163177315420774980000001680500012320400016_);}
	.st19{fill:url(#SVGID_00000070819678896214010200000002083574204561509813_);}
	.st20{fill:url(#SVGID_00000130644980598382591660000001921582028840515733_);}
	.st21{fill:url(#SVGID_00000126315231263385146640000008340774453883369632_);}
	.st22{fill:url(#SVGID_00000034057599543143089590000008374859697792500611_);}
	.st23{fill:url(#SVGID_00000172398101910597937390000010498685762812083597_);}
	.st24{fill:url(#SVGID_00000150789401767346546240000012705676816180094891_);}
	.st25{fill:url(#SVGID_00000079478675046092268510000000151150272042364559_);}
	.st26{fill:url(#SVGID_00000026162244662057228800000015711600394008335293_);}
	.st27{fill:url(#SVGID_00000026135381885787798540000004969387435363101602_);}
	.st28{fill:url(#SVGID_00000034774095524908125680000005016939070356821910_);}
	.st29{fill:url(#SVGID_00000063617719809310800190000016812038612514464176_);}
	.st30{fill:url(#SVGID_00000099628094923919160060000004290453316829822892_);}
	.st31{fill:url(#SVGID_00000000223719655936386210000011142617900422645695_);}
	.st32{fill:url(#SVGID_00000165201750919421841080000011895746584208946865_);}
	.st33{fill:url(#SVGID_00000083783400750315962600000009646512569525372850_);}
	.st34{fill:url(#SVGID_00000141451628143586469080000015447558379584323714_);}
	.st35{fill:url(#SVGID_00000116228966336163475390000016481926970255362986_);}
	.st36{fill:url(#SVGID_00000069392661681521974020000011563135119092872600_);}
	.st37{fill:url(#SVGID_00000133510207411398907900000017430030127418634392_);}
</style>
<g>
	<g>
		<g>
			<path class="st0" d="M62.6,196.6l-1.7,1.7h-1.8c-1.2-0.1-2.3-0.6-3.1-1.5c-0.8-0.9-1.3-1.9-1.3-3.1c0-0.3,0-0.6,0.1-0.9
				c0.3-1.6,1.1-2.9,2.4-3.7c1-0.7,2.2-1,3.5-1c0.6,0,1.3,0.1,1.9,0.3V196.6z M58.8,184.7c0.2,0.2,0.4,0.5,0.4,0.9
				c0,0.3-0.1,0.6-0.4,0.9c-0.2,0.3-0.5,0.4-0.9,0.4c-0.3,0-0.6-0.1-0.9-0.4c-0.2-0.2-0.4-0.5-0.4-0.9c0-0.3,0.1-0.6,0.4-0.9
				c0.2-0.3,0.5-0.4,0.9-0.4C58.3,184.3,58.5,184.4,58.8,184.7z M60.6,190c-1.1,0-2,0.3-2.7,0.9c-0.7,0.6-1.1,1.5-1.1,2.6
				c0,0.9,0.3,1.6,0.9,2.2c0.6,0.5,1.4,0.8,2.3,0.8c0.2,0,0.4,0,0.6,0V190z M61.5,184.7c0.2,0.2,0.4,0.5,0.4,0.9
				c0,0.3-0.1,0.6-0.4,0.9c-0.2,0.3-0.5,0.4-0.9,0.4s-0.6-0.1-0.9-0.4c-0.2-0.2-0.4-0.5-0.4-0.9c0-0.3,0.1-0.6,0.4-0.9
				c0.2-0.3,0.5-0.4,0.9-0.4S61.2,184.4,61.5,184.7z"/>
			<path class="st0" d="M69.5,188.2v10.5c0,1.1-0.3,2.1-0.8,2.8c-0.8,1.1-2.2,1.8-4.1,1.9l-1.6-1.9c0.9,0,1.7-0.1,2.4-0.4
				c1.4-0.5,2.1-1.3,2.1-2.5v-10.3L69.5,188.2z"/>
			<path class="st0" d="M78.3,198.7c0,1.1-0.3,2.1-0.8,2.8c-0.8,1.1-2.2,1.8-4.1,1.9l-1.6-1.9c0.9,0,1.7-0.1,2.4-0.4
				c1.4-0.5,2.1-1.3,2.1-2.5v-1c-0.1,0-0.2,0.1-0.4,0.2c-0.2,0.1-0.4,0.2-0.5,0.2l-0.6,0.2c-1.2-0.1-2.3-0.6-3.1-1.5
				c-0.8-0.9-1.3-1.9-1.3-3.1c0-1.6,0.6-2.9,1.8-4c1.2-1.1,2.6-1.6,4.2-1.6c0.6,0,1.2,0.1,1.8,0.3l0,8h1.3v2h-1.3V198.7z M76.4,190
				c-1-0.1-1.9,0.2-2.6,0.9c-0.6,0.6-1,1.3-1.1,2.3c-0.1,0.9,0.1,1.7,0.6,2.3c0.6,0.7,1.4,1.1,2.5,1.1c0.2,0,0.4,0,0.6,0V190z"/>
			<path class="st0" d="M79.3,198.4v-2h2.9v-8l2-0.2v8.2h1.3v2H79.3z M84,184.7c0.2,0.2,0.4,0.5,0.4,0.9c0,0.3-0.1,0.6-0.4,0.9
				c-0.2,0.3-0.5,0.4-0.9,0.4c-0.3,0-0.6-0.1-0.9-0.4c-0.2-0.2-0.4-0.5-0.4-0.9c0-0.4,0.1-0.7,0.4-0.9c0.2-0.2,0.5-0.4,0.9-0.4
				C83.4,184.3,83.7,184.5,84,184.7z"/>
			<path class="st0" d="M99.1,196.4v2h-3.7l-7.2-1.2c-0.1,0.3-0.4,0.6-0.7,0.9c-0.4,0.2-0.7,0.4-1.1,0.4h-1.2v-2h1.3
				c0.5,0,0.8-0.4,1.2-1.2c0.1-0.3,0.2-0.7,0.4-1.2c0.2-0.7,0.3-1.1,0.5-1.4c0.5-1.5,1-2.6,1.5-3.2c0.7-1,1.8-1.4,3.1-1.4
				c1.3,0,2.4,0.7,3.3,1.9c0.8,1.2,1.2,2.7,1.2,4.5c0,0.7-0.1,1.4-0.2,2.1H99.1z M95.7,196.4c0.3-1.3,0.3-2.6-0.1-3.8
				c-0.4-1.2-1-2-1.7-2.5c-0.8-0.5-1.6-0.4-2.4,0.4c-0.9,0.8-1.6,2.4-2.1,4.6L95.7,196.4z"/>
			<path class="st0" d="M98.7,198.4v-2h2.9v-12.5l2.1-0.2v13l-1.8,1.7H98.7z"/>
			<path class="st0" d="M105.2,183.9l2.1-0.2v14.7h-2.1V183.9z"/>
			<path class="st0" d="M121.8,196.4h1.3v2h-4.7c-1.3-0.1-2.4-0.7-3.2-1.6c-0.8-0.9-1.1-1.9-1.1-3.1c0-1.6,0.6-2.9,1.8-4
				c1.2-1.1,2.5-1.6,4.2-1.6c0.7,0,1.3,0.1,1.9,0.3V196.4z M118,184.7c0.2,0.2,0.4,0.5,0.4,0.9c0,0.3-0.1,0.6-0.4,0.9
				c-0.2,0.3-0.5,0.4-0.9,0.4c-0.3,0-0.6-0.1-0.9-0.4c-0.2-0.2-0.4-0.5-0.4-0.9c0-0.3,0.1-0.6,0.4-0.9c0.2-0.3,0.5-0.4,0.9-0.4
				C117.4,184.3,117.7,184.4,118,184.7z M119.8,190c-1.1,0-2,0.3-2.7,1c-0.8,0.7-1.1,1.5-1.1,2.6c0,0.9,0.3,1.6,0.9,2.2
				c0.6,0.5,1.3,0.8,2.3,0.8c0.2,0,0.4,0,0.6,0V190z M120.7,184.7c0.2,0.2,0.4,0.5,0.4,0.9c0,0.3-0.1,0.6-0.4,0.9
				c-0.2,0.3-0.5,0.4-0.9,0.4s-0.6-0.1-0.9-0.4c-0.2-0.2-0.4-0.5-0.4-0.9c0-0.3,0.1-0.6,0.4-0.9c0.2-0.3,0.5-0.4,0.9-0.4
				S120.4,184.4,120.7,184.7z"/>
			<path class="st0" d="M122.7,198.4v-2h2.9v-8l2-0.2v8.2h1.3v2H122.7z M127.4,184.7c0.2,0.2,0.4,0.5,0.4,0.9c0,0.3-0.1,0.6-0.4,0.9
				c-0.2,0.3-0.5,0.4-0.9,0.4c-0.3,0-0.6-0.1-0.9-0.4c-0.2-0.2-0.4-0.5-0.4-0.9c0-0.4,0.1-0.7,0.4-0.9c0.2-0.2,0.5-0.4,0.9-0.4
				C126.8,184.3,127.1,184.5,127.4,184.7z"/>
			<path class="st0" d="M128.5,198.4v-2h4.3v-8l2-0.2v8.4l-1.8,1.7H128.5z M131.5,202.2c0,0.4-0.1,0.7-0.4,0.9
				c-0.2,0.3-0.5,0.4-0.9,0.4c-0.3,0-0.6-0.1-0.9-0.4c-0.2-0.2-0.4-0.5-0.4-0.9s0.1-0.6,0.4-0.9c0.2-0.3,0.5-0.4,0.9-0.4
				c0.3,0,0.6,0.1,0.9,0.4C131.4,201.5,131.5,201.8,131.5,202.2z M134.4,202.2c0,0.4-0.1,0.7-0.4,0.9c-0.3,0.3-0.6,0.4-0.9,0.4
				c-0.3,0-0.6-0.1-0.9-0.4c-0.2-0.3-0.4-0.5-0.4-0.9c0-0.3,0.1-0.6,0.4-0.9c0.3-0.3,0.6-0.4,0.9-0.4c0.3,0,0.6,0.1,0.9,0.4
				C134.2,201.6,134.4,201.9,134.4,202.2z"/>
			<path class="st0" d="M146.1,196.4v2h-10.3l0.7-2h6.3c0-2-0.5-3.5-1.5-4.5c-0.9-0.9-2-1.4-3.4-1.5l0.5-2.2
				c2.1,0.2,3.7,1.1,4.9,2.7c1.1,1.5,1.6,3.3,1.5,5.5H146.1z"/>
			<path class="st0" d="M159.6,196.4v2h-3.7l-7.2-1.2c-0.1,0.3-0.4,0.6-0.7,0.9c-0.4,0.2-0.7,0.4-1.1,0.4h-1.2v-2h1.3
				c0.5,0,0.8-0.4,1.2-1.2c0.1-0.3,0.2-0.7,0.4-1.2c0.2-0.7,0.3-1.1,0.5-1.4c0.5-1.5,1-2.6,1.5-3.2c0.7-1,1.8-1.4,3.1-1.4
				c1.3,0,2.4,0.7,3.3,1.9c0.8,1.2,1.2,2.7,1.2,4.5c0,0.7-0.1,1.4-0.2,2.1H159.6z M156.3,196.4c0.3-1.3,0.3-2.6-0.1-3.8
				c-0.4-1.2-1-2-1.7-2.5c-0.8-0.5-1.6-0.4-2.4,0.4c-0.9,0.8-1.6,2.4-2.1,4.6L156.3,196.4z"/>
			<path class="st0" d="M159.2,198.4v-2h2.9v-12.5l2.1-0.2v13l-1.8,1.7H159.2z"/>
			<path class="st0" d="M165.8,183.9l2.1-0.2v14.7h-2.1V183.9z"/>
			<path class="st0" d="M182.3,196.4h1.3v2h-4.7c-1.3-0.1-2.4-0.7-3.2-1.6c-0.8-0.9-1.1-1.9-1.1-3.1c0-1.6,0.6-2.9,1.8-4
				c1.2-1.1,2.5-1.6,4.2-1.6c0.7,0,1.3,0.1,1.9,0.3V196.4z M178.6,184.7c0.2,0.2,0.4,0.5,0.4,0.9c0,0.3-0.1,0.6-0.4,0.9
				c-0.2,0.3-0.5,0.4-0.9,0.4c-0.3,0-0.6-0.1-0.9-0.4c-0.2-0.2-0.4-0.5-0.4-0.9c0-0.3,0.1-0.6,0.4-0.9c0.2-0.3,0.5-0.4,0.9-0.4
				C178,184.3,178.3,184.4,178.6,184.7z M180.4,190c-1.1,0-2,0.3-2.7,1c-0.8,0.7-1.1,1.5-1.1,2.6c0,0.9,0.3,1.6,0.9,2.2
				c0.6,0.5,1.3,0.8,2.3,0.8c0.2,0,0.4,0,0.6,0V190z M181.3,184.7c0.2,0.2,0.4,0.5,0.4,0.9c0,0.3-0.1,0.6-0.4,0.9
				c-0.2,0.3-0.5,0.4-0.9,0.4s-0.6-0.1-0.9-0.4c-0.2-0.2-0.4-0.5-0.4-0.9c0-0.3,0.1-0.6,0.4-0.9c0.2-0.3,0.5-0.4,0.9-0.4
				S181,184.4,181.3,184.7z"/>
			<path class="st0" d="M192.4,196.4h1.3v2h-10.5v-2h2.2c-0.6-0.8-0.8-1.7-0.8-2.7c0-1.6,0.6-2.9,1.8-4c1.2-1.1,2.6-1.6,4.2-1.6
				c0.6,0,1.3,0.1,1.9,0.3V196.4z M188.4,184.7c0.2,0.2,0.4,0.5,0.4,0.9c0,0.3-0.1,0.6-0.4,0.9c-0.2,0.3-0.5,0.4-0.9,0.4
				c-0.3,0-0.6-0.1-0.9-0.4c-0.2-0.2-0.4-0.5-0.4-0.9c0-0.3,0.1-0.6,0.4-0.9c0.2-0.3,0.5-0.4,0.9-0.4
				C187.8,184.3,188.1,184.4,188.4,184.7z M190.4,190c-1.1,0-2,0.3-2.7,1c-0.8,0.7-1.1,1.5-1.1,2.6c0,0.9,0.3,1.6,0.9,2.2
				c0.6,0.5,1.3,0.8,2.3,0.8c0.2,0,0.4,0,0.6,0V190z M191.1,184.7c0.2,0.2,0.4,0.5,0.4,0.9c0,0.3-0.1,0.6-0.4,0.9
				c-0.2,0.3-0.5,0.4-0.9,0.4c-0.3,0-0.6-0.1-0.9-0.4c-0.2-0.2-0.4-0.5-0.4-0.9c0-0.3,0.1-0.6,0.4-0.9c0.2-0.3,0.5-0.4,0.9-0.4
				C190.5,184.3,190.8,184.4,191.1,184.7z"/>
			<path class="st0" d="M193.3,198.4v-2h1.3v-12.5l2-0.2v7.9c1.6-2.2,3.5-3.3,5.8-3.3c1.9,0,3.5,0.7,4.9,2.2c1.3,1.4,2,3.1,2,5
				c0,0.4,0,0.7,0,0.9h1.3v2H193.3z M198.5,192c-1.2,1.2-1.8,2.6-1.9,4.4h10.5c0-2-0.5-3.5-1.5-4.6c-0.9-1-1.9-1.4-3.3-1.4
				C200.9,190.4,199.6,190.9,198.5,192z"/>
			<path class="st0" d="M210.2,198.4v-2h2.9v-8l2-0.2v8.2h1.3v2H210.2z M214.9,184.7c0.2,0.2,0.4,0.5,0.4,0.9c0,0.3-0.1,0.6-0.4,0.9
				c-0.2,0.3-0.5,0.4-0.9,0.4c-0.3,0-0.6-0.1-0.9-0.4c-0.2-0.2-0.4-0.5-0.4-0.9c0-0.4,0.1-0.7,0.4-0.9c0.2-0.2,0.5-0.4,0.9-0.4
				C214.3,184.3,214.6,184.5,214.9,184.7z"/>
			<path class="st0" d="M230,196.4v2h-3.7l-7.2-1.2c-0.1,0.3-0.4,0.6-0.7,0.9c-0.4,0.2-0.7,0.4-1.1,0.4H216v-2h1.3
				c0.5,0,0.8-0.4,1.2-1.2c0.1-0.3,0.2-0.7,0.4-1.2c0.2-0.7,0.3-1.1,0.5-1.4c0.5-1.5,1-2.6,1.5-3.2c0.7-1,1.8-1.4,3.1-1.4
				c1.3,0,2.4,0.7,3.3,1.9c0.8,1.2,1.2,2.7,1.2,4.5c0,0.7-0.1,1.4-0.2,2.1H230z M226.6,196.4c0.3-1.3,0.3-2.6-0.1-3.8
				c-0.4-1.2-1-2-1.7-2.5c-0.8-0.5-1.6-0.4-2.4,0.4c-0.9,0.8-1.6,2.4-2.1,4.6L226.6,196.4z"/>
			<path class="st0" d="M229.6,198.4v-2h2.9v-8l2-0.2v8.4l-1.8,1.7H229.6z M233.9,202.2c0,0.4-0.1,0.7-0.4,0.9
				c-0.2,0.3-0.5,0.4-0.9,0.4c-0.3,0-0.6-0.1-0.9-0.4c-0.2-0.2-0.4-0.5-0.4-0.9c0-0.3,0.1-0.6,0.4-0.9c0.2-0.3,0.5-0.4,0.9-0.4
				c0.3,0,0.6,0.1,0.8,0.4C233.7,201.6,233.9,201.9,233.9,202.2z"/>
		</g>
		<g>
			<path d="M75,151.6c0,0-1.1,3-1.6,4.5c1,1.2,1.6,2.6,2.1,3.7c-2.7,1.9-6.8,1.9-7.9-1c-0.4-1-0.6-2.1-0.4-3.7c0.4-1.4-0.8-1-1.7,0
				c-0.7,0.7-1.2,1.5-1.9,2.6c-3.5,5.2-9.7,5.8-11.5,0.9c-0.6-1.4-0.9-5.6-1.1-7.9c-0.9-11.5-1-30.3-4.7-38.9
				c-0.1-0.3-0.2-0.3-0.3,0c-0.7,1.5-1.2,2.8-1.6,3.9c3,11.3,2.8,23.4,3.6,35.9c0.1,2,0.5,6.6,1.1,8.5c2.1,8.4,10.3,7.8,14.1,2.1
				c0.6-0.9,0.8-1.1,1.5-2.1c0.4-0.4,0.5-0.4,0.4,0c0.1,1.5,0.6,3.1,1.5,4c1.9,2.1,6.1,1.7,8.4,0.1c1.1-0.7,1.8-2.8,2.1-4.4
				C77.6,157.9,77.7,155.4,75,151.6"/>
			<path d="M39.1,145.7c-1.7,0.4-2.8,0.7-4,1.1c-0.4-0.9-1.2-2-1.8-2.7C34.8,141.6,38.6,145.2,39.1,145.7z M35.3,138.3
				c-2.8,0.9-3.9,4.5-3.4,6.7c0.2,1,0.5,1.4,1.1,2.4c-4.2,1.5-8.2,3.3-11.7,6.2c-5.3,4.5-7.4,9.6-12.1,14c-2.9,2.8-7.5,2.2-8.2-2.9
				c-0.3-3.2,1.1-6.1,2.9-9.6c0.7-1.5,0.1-1.5-0.6-0.3c-1.7,3.2-3.3,6.1-3.2,9.9c0.2,7.3,6.9,10.3,11.4,5.7c4.5-4.4,6-8.3,10.4-12.5
				c4.2-4,9.1-5.8,13-6.9c0.3,0.7,0.9,2.4,1,2.6c0.2,0.6,0.6-0.2,0.7-0.7c0.1-0.7,0.1-1.8-0.1-2.4c1.1-0.3,4.9-1.1,6.2-1.3
				c0.6-0.2,2.5-4.2,1.5-5.2C43,142.5,38.3,137.4,35.3,138.3z"/>
			<path d="M67.1,113.6c-0.2,1.8-0.2,4.9-0.2,4.9s0.7,0.3,1,0.7c2.6,4.5,4.4,7.1,7.3,11c8.1,11.1,17.8,19.8,20.2,25.2
				c1.4,2.5,2,5.1,1.9,7c0,0.9,0.1,0.9,0.4,0.4c0.2-0.7,1.2-3.4,0.3-8c-1.5-8.1-12.8-17.8-20.1-27.1c-1.7-2.1-3-4-4.3-6
				c-0.3-0.4-0.5-0.8,0-0.6c0.8,0.3,1.7,0.6,2.5,0.9c1,0.4,0.9-0.3-0.2-1.4C71.7,117.3,69.5,115.5,67.1,113.6z"/>
			<path d="M97.1,110.2c-0.6,1.2-1.8,3.6-2,4.2c0.5,0.6,0.6,1,0.7,1.4c0.1,1.9,0.3,4.1,0.4,6c0.9,11.1,4.3,28.7,4.4,38.6
				c-3.2,6.6-10.9,10.8-15.8,14.4c-1.4,0.8-2.4,1.5-0.6,1c2.5-0.6,9-2.5,10.9-3.9c0.4-0.4,4.2-2.5,6.5-8.8c0.3-0.9,1-3.4,1.3-5.6
				c1.6-10.9-3.2-27.6-3.5-36.2c0-0.7,0.3-0.4,0.3-0.4s1.4,1.6,1.9,2.2c0.5,0.6,0.9,0,0.3-1.5c-1.1-3-3.4-8.2-4.5-11.3
				C97.3,110.1,97.2,109.9,97.1,110.2z"/>
			<path d="M230.6,154.3c-1.2-0.2-4.4,0.5-4.8-0.5c0.2-0.6,0.8-1.4,1.8-1.6C228.5,152.2,229.5,152.8,230.6,154.3z M236.6,159.2
				c-0.1-2.9-0.9-6.4-3.6-9.4c-3.5-3.9-6.8-2.1-8.3,0.4c-2.4,3.4-1.9,6.5-0.7,8.1c1.9,2.5,6.2,0.1,8.9,1.3c0.8,0.4,1.9,1.5,2.1,2.4
				c-1.3,1.9-12.7,8.3-14.5-1.2c-0.5-2-1-7.5-1.2-8.9c-0.5-4.2-3.7-37.2-5.6-41.5c-0.7,1.2-1.5,3.2-1.8,4.6
				c1,10.6,3.1,26.5,3.9,37.4c0.1,0.8,0.3,4.2,0.2,4.9c-0.6,1.9-14.5,14.9-23.8,15.6c-3.5,0.3-8.1-1.1-9.8-4.6
				c-1.5-3.3-0.8-6.8,0.5-11.2c0.8-2.5-0.1-2.6-0.7-0.7c-1.9,4.8-2.8,9.7-1.8,13.7c1.3,5.3,5.9,8.1,11.1,7.5
				c7.4-0.7,16.6-7.4,22.8-13.9c1.4-1.4,1.9-3.7,2.3-5.9c0.2-0.8,0.2-1.1,0.3-0.6c0.1,1.9,0.7,6,1.1,7.5c2.7,10.9,14.8,4.1,16.9,1.3
				C236,165.1,236.7,161.9,236.6,159.2z"/>
			<path d="M204,146.4c0-7.6-2.2-15.4-2.9-23.8c0-0.3-0.1-1.3,0.1-1.6c0.2,0,1.2,1.4,1.7,2.1c0.6,0.8,0.9-0.2,0.4-1.8
				c-0.3-1-3.9-10.5-4.3-11.1c-0.4,0.4-2,3.9-2.2,4.3c0.5,0.7,0.5,0.8,0.6,1.3c1.1,16.9,3.1,21,4.1,37.1c-2.8,3.4-16.7,6.6-19.6,9
				c-5.2,3.4-8.2,8.6-12.1,11.7c-3.9,3.2-8.2,1-8.1-3.7c0.1-2.8,2.4-6.6,3.5-8.5c0.7-1.3,0.3-1.4-0.4-0.4c-1,1.6-3.6,5.5-3.9,8.9
				c-0.7,6.1,4.4,10.8,9.3,7.8c3.4-2.4,6.3-6.3,9.7-9.8c3.7-4.4,16.6-6.2,20.6-10C204.1,155,204,147.5,204,146.4z"/>
			<path d="M157.7,147.9c0.7,4.3,4.4,10.4,8.4,10.7c3.7-0.4,11.2-6,12.2-7.1c-0.1,1-0.7,2.9-1.4,4.1c-2.4,2.8-9.3,7.5-13.8,8.4
				c-5.9,0.9-9.9-2.5-11.6-8.2c-2.1-9-1.8-31-4.9-41.8c0.4-1,1.2-2.6,1.8-4.1c0.1-0.3,0.2-0.1,0.3,0c3,8.3,3.9,30.7,4.9,39.6
				c0.9,8.2,5.2,9.6,5.2,9.6c-2.9-3.3-4.7-8.1-2.2-12.6c3.5-6.1,11.5-5.7,15.8-2c0.4,0.4,0.8,0.8,0.9,1c0.2,0.3,0.4,0.7,0,0.6
				c-0.4-0.3-1.6-0.6-2-0.7C167,144.5,160.8,145.9,157.7,147.9"/>
			<path d="M145.8,158c0-2.6-1-5.8-4.2-9.2c-0.7,2.4-0.9,3.7-1.2,4.9c1.1,1.4,3.5,4.4,3.7,5.4c-1.4,1.3-6,4.3-9.1,1.7
				c-1.4-1-2.8-4.6-3.7-6.4c-0.9-1.6-2-2.2-3.4-1.5c-2.9,1.5-4.7,4.8-5.3,5.9c-1.9,3.4-2.5,6.9-3.5,9.1c-1.8,4-5,3.1-6.4,0.5
				c-1.4-2.5-2.1-7.4-2.2-8.9c0-1.4-0.9-2.1-0.8,0.5c0.1,5,1.1,8.3,1.9,10.3c1,2.5,4.5,6.3,7.5,1.8c1.8-2.6,2.2-6.6,4.7-10.7
				c2.5-3.7,4.9-4.5,5.8-3.1c0.6,0.7,1.9,4.6,3,6c2.2,3.4,8.6,3,11.8-0.8C144.9,163.1,145.8,160.6,145.8,158z"/>
			<path d="M115.8,120.7c0.6,1.9,0.2,2.4-0.3,1.8c-0.7-0.8-1.5-1.9-2.2-2.5c-0.1,0.2-0.1,0.7-0.1,1.1c1.4,15.2,2.9,20.8,3.4,33.7
				c0,4.1-0.4,7.5-1.7,10.9c-0.5,1.1-0.8,1.4-0.8,0.6c0-2.6-0.4-9.3-0.5-10.9c-0.9-13.4-2.9-23.2-3.8-39.1c0-0.5-0.1-1.3-0.1-1.7
				c-0.2-0.6-0.2-0.5-0.5-1c0.2-0.3,1.4-2.5,2-3.7c0.2-0.4,0.4-0.5,0.5,0C112.9,113.1,115.3,119.1,115.8,120.7z"/>
			<path d="M264.4,160.5c-2.4,3.4-8.1,6.6-12,7.2c-0.7,0.1-5.3,0.5-6.7-4.2c-1.2-2.9-1.7-15.9-2.2-21.9c0-0.4,0.2-0.3,0.6,0
				C251.7,147.5,261.4,153.9,264.4,160.5z M286.4,154.6c-1.5,7.6-9.3,9.1-13.9,2.6c-8.2-11.7-23-16.6-27-19.1c0-0.1,0.5-0.5,0.8-0.8
				c5.4-4.2,21.8-13.2,30-15.8c2.2-0.9,4.8-0.3,4,1.9c-2,2.3-6.2,7.3-7.4,10c-0.5,1.2-0.5,2,0.5,0.4c2-3.4,4.5-5.2,7.3-9.6
				c2.5-3.4,2.7-8.8-2-7.6c-7.6,1.5-31.3,14.1-34.1,18c-0.4,0.7-1.1,2.5-1.3,2.8c-0.2,0.4-0.3,0.4-0.4-0.3
				c-0.2-2.4-2.4-21.9-4.1-26.3l-2.2,4.2c1.9,7.6,4.1,34.4,4.5,40.5c0.3,4.8,0.6,8.9,1.1,10.4c1,4.6,3.8,7.3,8.2,7.2
				c3.5-0.2,8.8-2.7,12.9-6.4c1.4-1.3,2.3-3.4,2.3-6.7c-0.4-4.3-2.8-6.5-3.6-7.6c-0.2-0.2-0.4-0.3,0-0.1c4.3,2.2,9.7,10.6,11.4,11.9
				c3.8,3.4,9.2,2.1,11.7-1.5c1-1.1,2-4.6,1.7-6.6C286.9,155.3,286.7,154.6,286.4,154.6z"/>
			<g>
				<path class="st0" d="M86.2,162c-1,0-1.7-1.4-1.5-2.3c0.3-1.7,1.3-3.5,1.9-5c0.4-0.9,0.5-2.3-0.5-0.2c-0.7,1.2-1.7,3.1-2.4,5.1
					c-0.3,0.9-0.5,1.9-0.3,2.7c0.2,1.4,1.5,2.8,2.8,1.4c0.7-0.7,1.1-1.9,1.3-2.7c0.2-0.8,0.2-0.7-0.4-0.2
					C86.9,161,86.6,161.6,86.2,162"/>
				<path class="st0" d="M41.8,164.7c1.3,0.3,1.9,2.2,1.5,3.4c-0.8,2.2-2.4,4.2-3.6,6.1c-0.7,1.1-1.2,2.9,0.6,0.4
					c1.1-1.5,2.9-3.6,4.2-6c0.7-1.1,1-2.3,1.1-3.4c0.1-1.9-1.3-3.9-3.4-2.4c-1.1,0.8-1.8,2.2-2.3,3.2c-0.5,1-0.4,0.9,0.4,0.4
					C40.7,165.8,41.2,165.1,41.8,164.7"/>
				<path class="st0" d="M90.2,131.6c-1,0-1.8-1.3-1.6-2.3c0.2-1.7,1.1-3.5,1.7-5.1c0.3-0.9,0.4-2.3-0.5-0.2
					c-0.6,1.3-1.5,3.2-2.1,5.2c-0.3,1-0.4,1.9-0.2,2.7c0.3,1.4,1.7,2.7,2.9,1.2c0.6-0.8,1-1.9,1.2-2.7c0.2-0.8,0.1-0.8-0.4-0.2
					C90.8,130.6,90.6,131.2,90.2,131.6"/>
				<path class="st0" d="M16.2,127.5c0.4-1.4,1.1-2.9,2.5-2.4c0.9,0.3,2.6,1.8,3,2.9c0.1,0.5-0.2,1.2-0.5,2.1
					c-1.4-0.3-4.8,1.6-4.9,1.9c-0.1,0.9,4.1,9.3,3.3,15.2c-0.1,1-0.5,1.8-0.5,0.6c0-5.1-1.5-8-3.1-13.1c-0.5-1.6-0.5-3.7,0.7-4.8
					c0.7-0.7,1.5-1.2,3.1-1.5c-1.3-1.3-2.4-1.6-3.1-0.3C16.1,128.8,15.8,128.5,16.2,127.5"/>
				<path class="st0" d="M14.7,120.2c-0.5-0.4-2.2-1.3-2.6-1.3c0-0.2,0-1.6,0.3-2.3c0.3-0.7,0.7-0.7,1.5-0.2c1.8,1.1,3,3.1,3.9,5.5
					c0.3,0.9,0.2,0.6,0.2-0.4c0.1-1.9,0.1-4,1.1-5.7c0.9-1.6,2.4-1.5,3.3,0.2l-0.6,1.8c-0.2-0.5-0.9-1-1.4-1.1
					c-1.7-0.3-1.7,3.4-1.8,4.4c-0.1,1.4-0.1,2.7-0.7,3.9c-0.1,0.3-0.4,0.2-0.5-0.2c-0.8-2.5-1.5-4.2-2.5-5.1
					C14.8,119.8,14.9,119.9,14.7,120.2"/>
				<path class="st0" d="M54.7,119c-0.5-0.4-2.2-1.3-2.6-1.3c0-0.2,0-1.6,0.3-2.3c0.3-0.7,0.7-0.7,1.5-0.2c1.8,1.1,3,3.1,3.9,5.5
					c0.3,0.9,0.2,0.6,0.2-0.4c0.1-1.9,0.1-4,1.1-5.7c0.9-1.6,2.4-1.5,3.3,0.2l-0.6,1.8c-0.2-0.5-0.9-1-1.4-1.1
					c-1.7-0.3-1.7,3.4-1.8,4.4c-0.1,1.4-0.1,2.7-0.7,3.9c-0.1,0.3-0.4,0.2-0.5-0.2c-0.8-2.5-1.5-4.2-2.5-5.1
					C54.8,118.6,54.9,118.7,54.7,119"/>
				<path class="st0" d="M121.3,118.1c-0.5-0.4-2.2-1.3-2.6-1.3c0-0.2,0-1.6,0.3-2.3c0.3-0.7,0.7-0.7,1.5-0.2c1.8,1.1,3,3.1,3.9,5.5
					c0.3,0.9,0.2,0.6,0.2-0.4c0.1-1.9,0.1-4,1.1-5.7c0.9-1.6,2.4-1.5,3.3,0.2l-0.6,1.8c-0.2-0.5-0.9-1-1.4-1.1
					c-1.7-0.3-1.7,3.4-1.8,4.4c-0.1,1.4-0.1,2.7-0.7,3.9c-0.1,0.3-0.4,0.2-0.5-0.2c-0.8-2.5-1.5-4.2-2.5-5.1
					C121.4,117.7,121.4,117.7,121.3,118.1"/>
				<path class="st0" d="M85.8,114.3l-0.7,0.9c0-0.4-0.2-0.8-0.5-1.1c-0.6-0.6-1.9-0.1-2.7,0.7c0.5,1.1,3,1.7,4.2,1.2
					c1.5-0.6,1.9-0.9,2.7-1.3l-0.9,2.2c-3,1.5-4.7,2.3-7.9,4.1c0,0,0.2-1,0.7-2.1c0.6-0.4,2-1.1,2-1.1c-0.8-0.3-2.2-0.8-2.5-1.7
					c-0.5-1.5,3.7-5.7,5-4.2C85.8,112.4,86,113.6,85.8,114.3"/>
				<path class="st0" d="M69.1,126.8c-8.9,3.7-8.9,3.6-14.4,6.1c-0.4,0.3-1.2,1.9-1.4,2.3c-0.1,0.1,0,0.2,0.1,0.1
					c0.1-0.1,0.2-0.3,0.4-0.4c3.5-1.9,9-3.9,13.9-5.9L69.1,126.8z"/>
				<path class="st0" d="M7.7,153.3c-1.8,0-3.3-2.3-3.1-4.2c0.4-3.2,2-6.5,3-9.5c0.6-1.7,0.8-4.3-0.9-0.4c-1.1,2.4-2.8,5.9-3.9,9.5
					c-0.5,1.8-0.7,3.5-0.4,5c0.5,2.6,3.1,5,5.4,2.2c1.2-1.4,1.8-3.5,2.1-5c0.3-1.5,0.2-1.4-0.7-0.4C8.8,151.5,8.4,152.5,7.7,153.3"
					/>
				<path class="st0" d="M214.9,176.6c-1,0-1.7-1.2-1.6-2.2c0.2-1.7,1.1-3.4,1.6-5c0.3-0.9,0.4-2.2-0.5-0.2c-0.6,1.2-1.5,3.1-2,5
					c-0.3,0.9-0.3,1.8-0.2,2.6c0.3,1.3,1.6,2.6,2.8,1.2c0.6-0.7,1-1.8,1.1-2.6c0.2-0.8,0.1-0.7-0.4-0.2
					C215.5,175.6,215.3,176.2,214.9,176.6"/>
				<path class="st0" d="M238.1,171c0.9,0.3,1.3,1.7,0.9,2.6c-0.7,1.5-2,2.9-3,4.2c-0.6,0.8-1.1,2,0.4,0.3c0.9-1,2.3-2.5,3.5-4.1
					c0.5-0.8,0.9-1.6,1-2.4c0.2-1.4-0.7-3-2.3-2c-0.8,0.5-1.5,1.5-1.9,2.2c-0.4,0.7-0.3,0.7,0.3,0.3
					C237.3,171.7,237.6,171.3,238.1,171"/>
				<path class="st0" d="M180.1,120.6c-1.2,0-2.2-1.6-2-2.7c0.3-2.1,1.3-4.3,2-6.3c0.4-1.1,0.5-2.8-0.6-0.3
					c-0.7,1.6-1.8,3.9-2.6,6.3c-0.4,1.2-0.4,2.3-0.2,3.3c0.3,1.7,2,3.3,3.5,1.5c0.8-0.9,1.2-2.3,1.4-3.3c0.2-1,0.1-0.9-0.5-0.3
					C180.8,119.4,180.5,120.1,180.1,120.6"/>
				<path class="st0" d="M139.8,122.9c-1.2,0-2.2-1.6-2-2.7c0.3-2.1,1.3-4.3,2-6.3c0.4-1.1,0.5-2.8-0.6-0.3
					c-0.7,1.6-1.8,3.9-2.6,6.3c-0.4,1.2-0.4,2.3-0.2,3.3c0.3,1.7,2,3.3,3.5,1.5c0.8-0.9,1.2-2.3,1.4-3.3c0.2-1,0.1-0.9-0.5-0.3
					C140.5,121.7,140.3,122.4,139.8,122.9"/>
				<path class="st0" d="M35.5,128.2c-1.4,0-2.6-1.9-2.4-3.3c0.3-2.6,1.6-5.2,2.4-7.5c0.5-1.4,0.6-3.4-0.8-0.3
					c-0.9,1.9-2.2,4.7-3.1,7.6c-0.4,1.4-0.5,2.8-0.3,4c0.4,2,2.4,3.9,4.3,1.8c0.9-1.1,1.4-2.8,1.7-4c0.2-1.2,0.2-1.1-0.6-0.3
					C36.3,126.8,36,127.6,35.5,128.2"/>
				<path class="st0" d="M273.2,175.2c-1-0.1-1.7-1.6-1.5-2.6c0.5-1.8,1.6-3.6,2.4-5.2c0.5-1,0.8-2.4-0.5-0.3
					c-0.8,1.3-2,3.2-2.9,5.2c-0.4,1-0.6,2-0.6,2.8c0.1,1.5,1.4,3.1,2.9,1.7c0.8-0.7,1.3-1.9,1.6-2.7c0.3-0.9,0.2-0.8-0.4-0.3
					C273.9,174.3,273.7,174.8,273.2,175.2"/>
				<path class="st0" d="M105.2,175.1c-0.8,0-1.4-1-1.3-1.7c0.1-1.4,0.8-2.8,1.2-4.1c0.2-0.7,0.3-1.8-0.4-0.2
					c-0.4,1-1.1,2.5-1.6,4.1c-0.2,0.8-0.2,1.5-0.1,2.1c0.2,1.1,1.4,2.1,2.3,0.9c0.5-0.6,0.7-1.5,0.9-2.2c0.1-0.7,0.1-0.6-0.3-0.2
					C105.6,174.3,105.4,174.7,105.2,175.1"/>
				<path class="st0" d="M193.2,121.6c-8.4,3-26.9,10.3-34.5,13.4c-0.6,0.6-1.3,2-1.5,2.6c-0.1,0.1,0,0.1,0.1,0.1
					c0.1-0.1,0.2-0.2,0.4-0.3c4.4-2.1,30-12,34.1-13.4L193.2,121.6z"/>
				<path class="st0" d="M288.7,128.8c-8.2,3.3-15,6.4-22.4,9.9c-0.5,0.6-1.2,2.1-1.4,2.7c-0.1,0.1,0,0.1,0.1,0.1
					c0.1-0.1,0.2-0.2,0.4-0.3c4.3-2.3,18-8.2,22.1-9.9L288.7,128.8z"/>
				<path class="st0" d="M268.2,109.3c-8.1,3.6-14.7,6.9-22,10.7c-0.5,0.7-1.1,2.1-1.3,2.7c-0.1,0.1,0,0.1,0.1,0.1
					c0.1-0.1,0.2-0.2,0.4-0.3c4.2-2.5,17.7-8.9,21.7-10.7L268.2,109.3z"/>
				<path class="st0" d="M144.8,137c-8.3,3.2-15.1,6.1-22.6,9.5c-0.6,0.6-1.2,2.1-1.5,2.6c-0.1,0.1,0,0.1,0.1,0.1
					c0.1-0.1,0.2-0.2,0.4-0.3c4.3-2.2,18.2-7.9,22.2-9.5L144.8,137z"/>
				<path class="st0" d="M184.7,140.8c-0.5-0.4-2.1-1.3-2.6-1.3c0-0.2,0-1.6,0.3-2.3c0.3-0.7,0.7-0.7,1.5-0.2c1.8,1.1,3,3.1,3.9,5.5
					c0.3,0.9,0.2,0.6,0.2-0.4c0.1-1.9,0.1-4,1.1-5.7c0.9-1.6,2.4-1.5,3.3,0.2l-0.6,1.8c-0.2-0.5-0.9-1-1.4-1.1
					c-1.7-0.3-1.7,3.4-1.8,4.4c-0.1,1.4-0.1,2.7-0.7,3.9c-0.1,0.2-0.4,0.2-0.5-0.2c-0.8-2.5-1.5-4.2-2.5-5.1
					C184.8,140.4,184.9,140.5,184.7,140.8"/>
				<polygon class="st0" points="227.5,133.5 224.7,137.3 229.2,140.7 232,136.9 				"/>
				<polygon class="st0" points="281.4,142.3 278.6,146.2 283.1,149.5 285.9,145.8 				"/>
				<polygon class="st0" points="148.1,168.9 145.3,172.8 149.8,176.2 152.6,172.4 				"/>
				<polygon class="st0" points="122.7,130 120,133.9 124.5,137.2 127.3,133.4 				"/>
				<polygon class="st0" points="72.9,169.5 70.2,173.4 74.7,176.7 77.5,172.8 				"/>
				<polygon class="st0" points="274.1,142.8 271.4,146.6 275.9,150 278.7,146.2 				"/>
				<polygon class="st0" points="140.8,169.4 138.1,173.2 142.6,176.6 145.4,172.8 				"/>
				<polygon class="st0" points="63.2,140.3 60.8,144.4 65.5,147.4 68,143.4 				"/>
				<polygon class="st0" points="56,141.3 53.6,145.3 58.3,148.3 60.8,144.4 				"/>
				<polygon class="st0" points="130,129.5 127.3,133.4 131.8,136.7 134.5,132.9 				"/>
				<polygon class="st0" points="65.6,170 62.9,173.9 67.5,177.2 70.2,173.4 				"/>
				<path class="st0" d="M227.9,117.8L227.9,117.8c0.5-1.8-0.3-4.3-2.3-3.2c-0.5,0.3-0.8,0.5-0.4,1.1
					C225.7,116.6,227.5,117.5,227.9,117.8 M227,119.9c-1.2-0.8-3.1-1.5-3.3-3.1c-0.2-1.6,1.6-3.8,3-4.4c2.4-1,3.8,2,2.1,5.9
					c0.5,0.3,0.8,0.6,1,1c0.4,0.8,0.1,1.5-0.2,2.6c-0.3-0.6-0.8-1.1-1.8-1.7c-3.7,6.5-10.5,10.9-15.7,14.4c-2.7,1.8-2.7,1.3-0.6-0.5
					C217,129.5,223,125.8,227,119.9z"/>
				<path class="st0" d="M227.9,117.8L227.9,117.8c0.5-1.8-0.3-4.3-2.3-3.2c-0.5,0.3-0.8,0.5-0.4,1.1
					C225.7,116.6,227.5,117.5,227.9,117.8 M227,119.9c-1.2-0.8-3.1-1.5-3.3-3.1c-0.2-1.6,1.6-3.8,3-4.4c2.4-1,3.8,2,2.1,5.9
					c0.5,0.3,0.8,0.6,1,1c0.4,0.8,0.1,1.5-0.2,2.6c-0.3-0.6-0.8-1.1-1.8-1.7c-3.7,6.5-10.5,10.9-15.7,14.4c-2.7,1.8-2.7,1.3-0.6-0.5
					C217,129.5,223,125.8,227,119.9z"/>
				<path class="st0" d="M227.9,117.8L227.9,117.8c0.5-1.8-0.3-4.3-2.3-3.2c-0.5,0.3-0.8,0.5-0.4,1.1
					C225.7,116.6,227.5,117.5,227.9,117.8 M227,119.9c-1.2-0.8-3.1-1.5-3.3-3.1c-0.2-1.6,1.6-3.8,3-4.4c2.4-1,3.8,2,2.1,5.9
					c0.5,0.3,0.8,0.6,1,1c0.4,0.8,0.1,1.5-0.2,2.6c-0.3-0.6-0.8-1.1-1.8-1.7c-3.7,6.5-10.5,10.9-15.7,14.4c-2.7,1.8-2.7,1.3-0.6-0.5
					C217,129.5,223,125.8,227,119.9z"/>
				<path class="st0" d="M227.9,117.8L227.9,117.8c0.5-1.8-0.3-4.3-2.3-3.2c-0.5,0.3-0.8,0.5-0.4,1.1
					C225.7,116.6,227.5,117.5,227.9,117.8 M227,119.9c-1.2-0.8-3.1-1.5-3.3-3.1c-0.2-1.6,1.6-3.8,3-4.4c2.4-1,3.8,2,2.1,5.9
					c0.5,0.3,0.8,0.6,1,1c0.4,0.8,0.1,1.5-0.2,2.6c-0.3-0.6-0.8-1.1-1.8-1.7c-3.7,6.5-10.5,10.9-15.7,14.4c-2.7,1.8-2.7,1.3-0.6-0.5
					C217,129.5,223,125.8,227,119.9z"/>
				<path class="st0" d="M227.9,117.8L227.9,117.8c0.5-1.8-0.3-4.3-2.3-3.2c-0.5,0.3-0.8,0.5-0.4,1.1
					C225.7,116.6,227.5,117.5,227.9,117.8 M227,119.9c-1.2-0.8-3.1-1.5-3.3-3.1c-0.2-1.6,1.6-3.8,3-4.4c2.4-1,3.8,2,2.1,5.9
					c0.5,0.3,0.8,0.6,1,1c0.4,0.8,0.1,1.5-0.2,2.6c-0.3-0.6-0.8-1.1-1.8-1.7c-3.7,6.5-10.5,10.9-15.7,14.4c-2.7,1.8-2.7,1.3-0.6-0.5
					C217,129.5,223,125.8,227,119.9z"/>
				<path class="st0" d="M227.9,117.8L227.9,117.8c0.5-1.8-0.3-4.3-2.3-3.2c-0.5,0.3-0.8,0.5-0.4,1.1
					C225.7,116.6,227.5,117.5,227.9,117.8 M227,119.9c-1.2-0.8-3.1-1.5-3.3-3.1c-0.2-1.6,1.6-3.8,3-4.4c2.4-1,3.8,2,2.1,5.9
					c0.5,0.3,0.8,0.6,1,1c0.4,0.8,0.1,1.5-0.2,2.6c-0.3-0.6-0.8-1.1-1.8-1.7c-3.7,6.5-10.5,10.9-15.7,14.4c-2.7,1.8-2.7,1.3-0.6-0.5
					C217,129.5,223,125.8,227,119.9z"/>
				<path class="st0" d="M227.9,117.8L227.9,117.8c0.5-1.8-0.3-4.3-2.3-3.2c-0.5,0.3-0.8,0.5-0.4,1.1
					C225.7,116.6,227.5,117.5,227.9,117.8 M227,119.9c-1.2-0.8-3.1-1.5-3.3-3.1c-0.2-1.6,1.6-3.8,3-4.4c2.4-1,3.8,2,2.1,5.9
					c0.5,0.3,0.8,0.6,1,1c0.4,0.8,0.1,1.5-0.2,2.6c-0.3-0.6-0.8-1.1-1.8-1.7c-3.7,6.5-10.5,10.9-15.7,14.4c-2.7,1.8-2.7,1.3-0.6-0.5
					C217,129.5,223,125.8,227,119.9z"/>
				<path class="st0" d="M34.3,165.7c-9.1,3.8-11.4,4.3-16.8,7c-0.4,0.3-1,1.6-1.2,2c-0.1,0.1,0,0.2,0,0.1c0.1-0.1,0.1-0.2,0.4-0.3
					c3.5-1.9,11.7-4.7,16.4-6.8L34.3,165.7z"/>
				<path class="st0" d="M135,170.9c-9.3,4.2-8.5,3.4-14.6,6.4c-0.4,0.3-1.1,1.6-1.3,2.1c-0.1,0.1,0,0.2,0,0.1
					c0.1-0.1,0.1-0.2,0.4-0.3c3.5-1.9,9.5-4.1,14.2-6.2L135,170.9z"/>
				<path class="st0" d="M227.9,117.8L227.9,117.8c0.5-1.8-0.3-4.3-2.3-3.2c-0.5,0.3-0.8,0.5-0.4,1.1
					C225.7,116.6,227.5,117.5,227.9,117.8 M227,119.9c-1.2-0.8-3.1-1.5-3.3-3.1c-0.2-1.6,1.6-3.8,3-4.4c2.4-1,3.8,2,2.1,5.9
					c0.5,0.3,0.8,0.6,1,1c0.4,0.8,0.1,1.5-0.2,2.6c-0.3-0.6-0.8-1.1-1.8-1.7c-3.7,6.5-10.5,10.9-15.7,14.4c-2.7,1.8-2.7,1.3-0.6-0.5
					C217,129.5,223,125.8,227,119.9z"/>
				<path class="st0" d="M158.6,111.3l0.2,2.5c3.9,2.5,7.5,8.5,6.5,13.2c0,0.3,0.3,0.5,0.6-0.6C167.3,120.9,163.6,113.4,158.6,111.3
					"/>
				<path class="st0" d="M73.1,141.3c-0.3,0.5-0.8,1.6-0.4,2c0.5,0.5,2,0.2,2.4-0.3c0.1-0.1,0.1-0.1,0-0.3
					C74.7,142.3,73.6,141.5,73.1,141.3 M73.3,138.7c0.2-0.7,0.6-0.4,0.5,0.1c0,0.3-0.2,0.9-0.3,1.1c1.9,1,3,1.7,2.2,3.9
					c-0.5,1.3-3.1,2.2-3.9,0.6C71.1,142.8,72.6,140.8,73.3,138.7z"/>
			</g>
		</g>
	</g>
	<g>
		<g>
			<g>
				<g>
					<g>
						<g>
							<path class="st1" d="M159,38.9l-5.1-32.2c0,0-0.4-4.2-5.1-3.8c-4.7,0.4-4.3,4.2-4.1,6.2c0.2,2,4.4,24.7,4.4,24.7L159,38.9z"
								/>
							<path class="st1" d="M147.3,33L142,6c0,0-0.7-6.4-4.1-6c-2.9,0.4-5.7,1.1-5.5,5.7c0.2,4.6,7.3,32.1,7.3,32.1
								S140.2,31.5,147.3,33z"/>
							<path class="st1" d="M134.9,31c0,0,5.5,17.2,5.6,18.1c0.1,0.9,1,4.1-3.4,5.2c-4.4,1.1-6.3-6.1-6.3-6.1L127,36.8
								c0,0-2.2-4.9,3.5-6.9C130.5,29.9,133.9,28.6,134.9,31z"/>
							<path class="st1" d="M123.8,39.2l7.4,15.6c0,0,1.2,2.5-2.9,3.4c0,0-2.6,0-4.3-2.4c-1.7-2.4-6-11.3-6-11.3
								S117.6,37.5,123.8,39.2z"/>
							<path class="st1" d="M147.9,35.9l11.7,5.8l7.6,11.8c0,0,3.2,3.6,0.5,8.7c-2.8,5-9.4,17.5-9.4,17.5l1.4,15.5l-30.7-0.3
								l0.1-15.3c0,0,3.8,3,9.6,4.3c0,0-10.6-5.6-13.1-9.2c-3.5-5.1-4.7-18.8-4.4-21.1c0,0,3.4,8.9,9.2,7.6c3.9-0.9,2.9-3.2,5.8-3
								c2.9,0.2,9.5-2.5,7.9-8.1c0,0-1.8-5.8-2.8-7c0,0,7.6,4.4,8.7,5.5c1.1,1.1,1.8,5,0.1,9.4c0,0,1.9-0.8,2.5-2.6
								c0.3-1.1,2.1-6.6,2.1-6.6l-10.1-5.6c0,0-2.2-2.3-1.4-4.8C143.8,35.7,146.8,35.5,147.9,35.9z"/>
						</g>
					</g>
				</g>
			</g>
			<g>
				<g>
					<g>
						<g>
							<path class="st2" d="M210.8,104.9c-17-4.9-40.5-7.9-66.4-7.9c-26,0-49.4,3-66.4,7.9c17-8.2,40.5-13.3,66.4-13.3
								C170.3,91.7,193.8,96.7,210.8,104.9z"/>
						</g>
					</g>
				</g>
			</g>
			<g>
				
					<radialGradient id="SVGID_1_" cx="147.1841" cy="70.3938" r="18.5357" gradientTransform="matrix(1.0773 0 0 1 -16.2706 0)" gradientUnits="userSpaceOnUse">
					<stop  offset="0" style="stop-color:#4D5B87"/>
					<stop  offset="1" style="stop-color:#1B3764"/>
				</radialGradient>
				<path class="st3" d="M138.2,63C138.2,63,138.2,63,138.2,63c-2,0.3-4,0.8-5.9,1.5c-0.2,0.1-0.4,0.1-0.5,0.2
					c-0.2,0.1-0.3,0.1-0.5,0.2c-1.9,0.8-3.7,1.7-5.2,3c0.5-0.3,1-0.6,1.4-0.8c0.2-0.1,0.3-0.1,0.5-0.2c0.5-0.2,0.9-0.3,1.4-0.5
					c1.3-0.5,2.5-1,3.7-1.5c0.9-0.4,1.8-0.7,2.7-0.9c0.7-0.2,1.5-0.3,2.3-0.4c0.2,0,0.3-0.1,0.3-0.2C138.4,63.2,138.4,63.1,138.2,63
					z"/>
				
					<radialGradient id="SVGID_00000029726931214895317320000015160564656078563509_" cx="147.1841" cy="70.3938" r="18.5357" gradientTransform="matrix(1.0773 0 0 1 -16.2706 0)" gradientUnits="userSpaceOnUse">
					<stop  offset="0" style="stop-color:#4D5B87"/>
					<stop  offset="1" style="stop-color:#1B3764"/>
				</radialGradient>
				<path style="fill:url(#SVGID_00000029726931214895317320000015160564656078563509_);" d="M155.8,72.2
					C155.8,72.2,155.8,72.1,155.8,72.2c-0.6-1.1-1.2-2.2-1.9-3.3c-0.7-1.1-1.6-2.1-2.6-3c-0.1-0.1-0.2-0.1-0.3-0.2
					c-0.5-0.1-0.8-0.4-1-0.8c-0.1-0.2-0.1-0.4-0.2-0.6c-0.1-0.3-0.3-0.3-0.7-0.3c-0.1,0-0.3,0.1-0.4,0.1c0-0.1,0-0.1,0-0.1
					c-0.1-0.5-0.4-0.9-0.8-1.2c-0.3-0.3-0.7-0.5-1.1-0.6c-1-0.4-2-0.6-3.1-0.8c-0.1,0-0.1,0-0.2,0c-0.3,0.3-0.7,0.5-1.1,0.7
					c0.2,0,0.3,0,0.5,0c1,0,2.1,0.1,3,0.5c0.5,0.2,1,0.4,1.4,0.8c0.1,0.1,0.2,0.2,0.2,0.2c0,0,0,0,0,0.1c-0.1,0-0.2,0-0.3,0
					c-0.2,0-0.4-0.1-0.6-0.1c-0.3-0.1-0.7-0.1-1-0.2c-0.1,0-0.3,0-0.4,0c-0.1,0-0.2,0.1-0.1,0.2c0.1,0.1,0.2,0.2,0.3,0.3
					c1,0.2,1.9,0.6,2.8,1c2.1,1,3.7,2.4,4.9,4.2c0.2,0.2,0.3,0.5,0.5,0.7c0.9,1,1.3,2.1,1.4,3.3C155.3,72.7,155.5,72.4,155.8,72.2z"
					/>
				
					<radialGradient id="SVGID_00000086668610087910673770000002598315215167367051_" cx="147.1841" cy="70.3938" r="18.5357" gradientTransform="matrix(1.0773 0 0 1 -16.2706 0)" gradientUnits="userSpaceOnUse">
					<stop  offset="0" style="stop-color:#4D5B87"/>
					<stop  offset="1" style="stop-color:#1B3764"/>
				</radialGradient>
				<path style="fill:url(#SVGID_00000086668610087910673770000002598315215167367051_);" d="M161.9,62.3c0.1-0.3,0.3-0.5,0.5-0.7
					c0-0.1-0.1-0.1-0.1-0.2c-0.1-0.2-0.1-0.4-0.3-0.6c-0.9-1-1.9-1.9-2.8-2.8c-1-0.9-2-1.7-3.3-2.3c-0.1,0-0.1-0.1-0.1-0.1
					c-0.2-0.2-0.5-0.4-0.7-0.6c-0.1,0.1-0.1,0.2-0.2,0.3c0,0.2-0.1,0.3-0.1,0.5c0.7,0.5,1.4,0.9,2.1,1.4c1.1,0.8,2.2,1.6,3.1,2.5
					c0.6,0.6,1.1,1.1,1.5,1.8C161.7,61.7,161.8,62,161.9,62.3z"/>
				
					<radialGradient id="SVGID_00000124121800796905698690000012022750851643995816_" cx="147.1841" cy="70.3938" r="18.5357" gradientTransform="matrix(1.0773 0 0 1 -16.2706 0)" gradientUnits="userSpaceOnUse">
					<stop  offset="0" style="stop-color:#4D5B87"/>
					<stop  offset="1" style="stop-color:#1B3764"/>
				</radialGradient>
				<path style="fill:url(#SVGID_00000124121800796905698690000012022750851643995816_);" d="M156.4,68.9c0.3,0.9,0.5,1.8,0.5,2.7
					c0,0,0.1,0,0.1,0c0-0.5,0.1-0.9,0.3-1.3c-0.1-0.4-0.2-0.8-0.4-1.1c-0.3-0.9-0.7-1.7-1.2-2.6c-0.7-1.1-1.5-2.3-2.5-3.2
					c-0.3-0.2-0.5-0.4-0.8-0.7c-1.8-1.5-3.8-2.6-6-3.6c-0.3,0.2-0.6,0.3-0.9,0.3c0.3,0.1,0.7,0.3,1,0.4c0.8,0.3,1.7,0.6,2.4,1.2
					c0,0,0.1,0,0.1,0c1,0.6,1.9,1.2,2.8,1.9c1.3,1.1,2.4,2.3,3.4,3.7C155.7,67.3,156.1,68.1,156.4,68.9z"/>
				
					<radialGradient id="SVGID_00000129887072943235355600000000197788952071565245_" cx="147.1841" cy="70.3938" r="18.5357" gradientTransform="matrix(1.0773 0 0 1 -16.2706 0)" gradientUnits="userSpaceOnUse">
					<stop  offset="0" style="stop-color:#4D5B87"/>
					<stop  offset="1" style="stop-color:#1B3764"/>
				</radialGradient>
				<path style="fill:url(#SVGID_00000129887072943235355600000000197788952071565245_);" d="M153.4,71.8c0.3,0.6,0.3,1.3,0.3,2
					c0.2-0.1,0.4-0.2,0.7-0.3c0-0.1,0-0.3,0-0.4c0-0.3,0-0.6-0.1-0.9c-0.1-0.2-0.1-0.3-0.2-0.5c-0.4-0.9-0.9-1.8-1.6-2.6
					c-0.9-1.2-2.1-2.3-3.5-3c-0.6-0.3-1.2-0.6-1.8-0.8c-0.1,0-0.2-0.1-0.3-0.1c-0.1,0-0.2,0-0.3,0c-0.3,0-0.4,0.2-0.3,0.5
					c0.1,0.2,0.2,0.3,0.4,0.4c0.2,0.1,0.4,0.2,0.7,0.3c0.9,0.2,1.8,0.6,2.5,1.1c1.1,0.8,2,1.7,2.8,2.8
					C152.8,70.7,153.1,71.2,153.4,71.8z"/>
				
					<radialGradient id="SVGID_00000168100906875338476180000017696867140178232719_" cx="147.1841" cy="70.3938" r="18.5357" gradientTransform="matrix(1.0773 0 0 1 -16.2706 0)" gradientUnits="userSpaceOnUse">
					<stop  offset="0" style="stop-color:#4D5B87"/>
					<stop  offset="1" style="stop-color:#1B3764"/>
				</radialGradient>
				<path style="fill:url(#SVGID_00000168100906875338476180000017696867140178232719_);" d="M143.2,71.6c1.3,0,2.5,0.3,3.4,1.2
					c0.3,0.3,0.6,0.7,0.6,1.2c0,0.4,0,0.8-0.2,1.1c-0.2,0.5-0.6,0.9-0.9,1.3c-0.7,0.8-1.5,1.4-2.3,2.1c-0.1,0.1-0.1,0.1-0.2,0.1
					c-0.8,0.4-1.5,0.9-2.2,1.4c-0.4,0.3-0.7,0.6-1,0.8c0.2,0,0.4,0.1,0.6,0.1c0.4-0.2,0.9-0.4,1.4-0.5c1.1-0.8,2.2-1.6,3.2-2.5
					c1-0.9,1.9-1.9,2.6-3c0.1-0.1,0.1-0.2,0.1-0.3c0.1-0.3,0-0.6,0-0.8c-0.1-0.5-0.4-1-0.8-1.4c-0.8-0.8-1.7-1.3-2.9-1.5
					c-0.4-0.1-0.8-0.2-1.3-0.1c-1.5,0.1-2.9,0.4-4.4,0.8c-1,0.3-2,0.6-3.1,0.8c-0.4,0.1-0.7,0.4-0.8,0.8c-0.1,0.2,0,0.3,0.2,0.3
					c0.1,0,0.2,0,0.3,0c0.7-0.1,1.4-0.3,2-0.7c0.1-0.1,0.3-0.2,0.4-0.2c0.1,0,0.2,0,0.2-0.1c0.9-0.3,1.8-0.5,2.7-0.7
					C141.6,71.7,142.4,71.6,143.2,71.6z"/>
				
					<radialGradient id="SVGID_00000124121530668717266720000000730380993306158014_" cx="147.1841" cy="70.3938" r="18.5357" gradientTransform="matrix(1.0773 0 0 1 -16.2706 0)" gradientUnits="userSpaceOnUse">
					<stop  offset="0" style="stop-color:#4D5B87"/>
					<stop  offset="1" style="stop-color:#1B3764"/>
				</radialGradient>
				<path style="fill:url(#SVGID_00000124121530668717266720000000730380993306158014_);" d="M160.5,64.6c-0.1-0.2-0.2-0.3-0.3-0.5
					c-0.9-1.6-2.1-3-3.5-4.3c-0.1-0.1-0.2-0.2-0.4-0.3c-0.4-0.3-0.8-0.5-1.2-0.8c-0.5-0.4-1.1-0.7-1.6-1.1c-0.2,0.2-0.4,0.4-0.7,0.5
					c0,0,0.1,0.1,0.1,0.1c0.1,0,0.2,0.1,0.2,0.1c1.7,1,3.3,2.1,4.6,3.5c0.8,0.9,1.6,1.9,2.1,3C160.2,64.8,160.3,64.7,160.5,64.6z"/>
				
					<radialGradient id="SVGID_00000174568867727840614830000001499834098422615710_" cx="147.1841" cy="70.3938" r="18.5357" gradientTransform="matrix(1.0773 0 0 1 -16.2706 0)" gradientUnits="userSpaceOnUse">
					<stop  offset="0" style="stop-color:#4D5B87"/>
					<stop  offset="1" style="stop-color:#1B3764"/>
				</radialGradient>
				<path style="fill:url(#SVGID_00000174568867727840614830000001499834098422615710_);" d="M150.4,71.8c-0.1-0.4-0.2-0.7-0.4-1
					c-1.1-1.2-2.4-2.2-4-2.8c-1-0.4-2-0.6-3.2-0.5c0.1,0.1,0.1,0.2,0.2,0.2c0.1,0.1,0.3,0.2,0.4,0.3c0.4,0.2,0.9,0.4,1.3,0.5
					c0.8,0.3,1.6,0.6,2.3,1c0.5,0.2,0.9,0.5,1.2,0.9c0,0.1,0.1,0.1,0.2,0.1c0.8,0.5,1.2,1.2,1.2,2c0,0.6-0.2,1.1-0.4,1.7
					c-0.3,0.6-0.6,1.3-0.9,1.9c-0.2,0.5-0.5,0.9-0.9,1.3c-0.3,0.3-0.6,0.6-0.9,0.9c-0.8,0.7-1.6,1.3-2.4,1.9
					c-0.1,0.1-0.2,0.1-0.3,0.2c0.3,0,0.6,0.1,0.9,0.1c0.4-0.2,0.8-0.4,1.2-0.5c1-0.8,1.9-1.7,2.7-2.6c0.1-0.1,0.1-0.2,0.2-0.3
					c0.2-0.5,0.5-1.1,0.7-1.6c0.2-0.6,0.5-1.2,0.7-1.8C150.5,73.1,150.6,72.5,150.4,71.8z"/>
				
					<radialGradient id="SVGID_00000119075616115798907600000000938349322376863619_" cx="147.1841" cy="70.3938" r="18.5357" gradientTransform="matrix(1.0773 0 0 1 -16.2706 0)" gradientUnits="userSpaceOnUse">
					<stop  offset="0" style="stop-color:#4D5B87"/>
					<stop  offset="1" style="stop-color:#1B3764"/>
				</radialGradient>
				<path style="fill:url(#SVGID_00000119075616115798907600000000938349322376863619_);" d="M149.4,62.4c-0.1-0.2-0.3-0.3-0.5-0.4
					c-0.3-0.2-0.7-0.4-1-0.6c-0.8-0.4-1.7-0.7-2.5-1.1c-0.1,0-0.2-0.1-0.3-0.2c-0.1-0.1-0.3-0.2-0.4-0.3c-0.1,0.3-0.3,0.5-0.5,0.8
					c0.7,0.2,1.4,0.4,2,0.6c1,0.4,2,0.9,3,1.4c0.1,0,0.1,0.1,0.2,0.1C149.5,62.6,149.5,62.5,149.4,62.4z"/>
				
					<radialGradient id="SVGID_00000057827521623526089490000000394735136781443207_" cx="147.1841" cy="70.3938" r="18.5357" gradientTransform="matrix(1.0773 0 0 1 -16.2706 0)" gradientUnits="userSpaceOnUse">
					<stop  offset="0" style="stop-color:#4D5B87"/>
					<stop  offset="1" style="stop-color:#1B3764"/>
				</radialGradient>
				<path style="fill:url(#SVGID_00000057827521623526089490000000394735136781443207_);" d="M152.6,74.5
					C152.6,74.5,152.6,74.4,152.6,74.5c0.2-0.7,0.2-1.3,0.1-1.9c-0.1-0.6-0.4-1.1-0.7-1.6c-0.5-0.8-1.1-1.5-1.8-2.2
					c-0.1-0.1-0.3-0.3-0.4-0.4c-2.1-1.6-4.6-2.5-7.4-2.9c-0.7-0.1-1.5-0.2-2.2-0.1c-1.5,0.1-3,0.4-4.4,0.9c-1.5,0.5-2.9,1-4.3,1.6
					c-0.1,0-0.2,0.1-0.2,0.2c0,0.1-0.1,0.2-0.1,0.3c0,0.2,0.1,0.3,0.3,0.3c0.2,0,0.3,0,0.5-0.1c0.5-0.2,1-0.4,1.5-0.6
					c0.4-0.2,0.8-0.4,1.3-0.5c0.1,0,0.2-0.1,0.4-0.1c0.8-0.2,1.5-0.5,2.3-0.7c1-0.3,2-0.5,3.1-0.6c1-0.1,2,0,2.9,0.3
					c0.3,0.1,0.6,0.2,0.9,0.3c0.9,0.2,1.8,0.5,2.7,0.9c0.9,0.4,1.8,0.9,2.5,1.5c0.1,0.1,0.3,0.3,0.4,0.4c1,0.9,1.8,2,2,3.3
					c0.1,0.8,0,1.5-0.3,2.2c0,0.1-0.1,0.2-0.2,0.2c-0.1-0.2-0.1-0.5-0.2-0.7c-0.1-0.2,0-0.5-0.2-0.8c-0.4,1.7-1,3.4-2.2,4.9
					c0.2,0.1,0.4,0.1,0.5,0.1c0.2-0.1,0.4-0.1,0.6-0.2c0.3-0.2,0.5-0.4,0.8-0.6c0.2-0.2,0.4-0.4,0.6-0.7
					C151.4,76.2,151.8,75.2,152.6,74.5z"/>
				
					<radialGradient id="SVGID_00000031174114052427855720000015213378623160191899_" cx="147.1841" cy="70.3938" r="18.5357" gradientTransform="matrix(1.0773 0 0 1 -16.2706 0)" gradientUnits="userSpaceOnUse">
					<stop  offset="0" style="stop-color:#4D5B87"/>
					<stop  offset="1" style="stop-color:#1B3764"/>
				</radialGradient>
				<path style="fill:url(#SVGID_00000031174114052427855720000015213378623160191899_);" d="M158.2,68.7c-0.3-0.7-0.7-1.5-1-2.2
					c-0.1-0.3-0.3-0.5-0.4-0.8c-0.1-0.1-0.1-0.2-0.4-0.2c0,0.1-0.1,0.2,0,0.3c0,0.6,0.2,1.1,0.5,1.5c0.4,0.6,0.7,1.2,0.9,1.9
					C157.9,69,158.1,68.9,158.2,68.7z"/>
				
					<radialGradient id="SVGID_00000125581989138335187690000012957655926868368783_" cx="147.1841" cy="70.3938" r="18.5357" gradientTransform="matrix(1.0773 0 0 1 -16.2706 0)" gradientUnits="userSpaceOnUse">
					<stop  offset="0" style="stop-color:#4D5B87"/>
					<stop  offset="1" style="stop-color:#1B3764"/>
				</radialGradient>
				<path style="fill:url(#SVGID_00000125581989138335187690000012957655926868368783_);" d="M145,72.8c-0.4-0.2-0.8-0.3-1.2-0.3
					c-1.2-0.1-2.5,0.1-3.6,0.4c-0.3,0.1-0.5,0.2-0.7,0.3c-0.1,0.1-0.2,0.1-0.3,0.2c-0.6,0.2-1.2,0.4-1.8,0.7c-0.5,0.2-1,0.4-1.4,0.6
					c-0.2,0.1-0.4,0.2-0.5,0.4c-0.2,0.2-0.2,0.4,0,0.6c0.1,0,0.2-0.1,0.4-0.1c0.6-0.2,1.2-0.4,1.8-0.6c0.9-0.4,1.8-0.8,2.7-1.2
					c0.9-0.4,1.8-0.7,2.8-0.7c0.6,0,1.1,0,1.6,0.2c0.5,0.2,0.8,0.6,0.7,1.2c-0.1,0.3-0.1,0.5-0.3,0.7c-0.6,1-1.5,1.8-2.7,2.3
					c-0.1,0-0.1,0.1-0.2,0.1c-1,0.7-2,1.4-3,2c-0.8,0.6-1.6,1.2-2.4,1.9c0.1,0,0.2,0.1,0.2,0.1c0.4-0.3,0.9-0.5,1.4-0.6
					c0.2,0,0.3,0,0.5-0.1c0.1-0.1,0.1-0.1,0.2-0.2c0.1-0.1,0.2-0.1,0.2-0.2c0.6-0.6,1.2-1,1.9-1.5c0.8-0.5,1.7-1,2.5-1.6
					c0.9-0.6,1.6-1.2,2.2-2c0.2-0.4,0.4-0.7,0.4-1.1C146.1,73.7,145.7,73.1,145,72.8z"/>
				
					<radialGradient id="SVGID_00000066493227977837369670000016871683662917218722_" cx="147.1841" cy="70.3938" r="18.5357" gradientTransform="matrix(1.0773 0 0 1 -16.2706 0)" gradientUnits="userSpaceOnUse">
					<stop  offset="0" style="stop-color:#4D5B87"/>
					<stop  offset="1" style="stop-color:#1B3764"/>
				</radialGradient>
				<path style="fill:url(#SVGID_00000066493227977837369670000016871683662917218722_);" d="M161.5,63.4c-0.2-0.4-0.3-0.8-0.5-1.1
					c-0.8-1.5-2-2.7-3.5-3.7c-0.3-0.2-0.7-0.4-1.1-0.6c-0.7-0.5-1.3-0.9-1.9-1.4c-0.1,0.2-0.2,0.4-0.3,0.6c0.3,0.2,0.6,0.4,0.9,0.6
					c1.2,0.8,2.4,1.7,3.4,2.7c0.9,0.8,1.6,1.8,2.1,2.8c0.2,0.4,0.3,0.7,0.5,1.1c0.1,0,0.2-0.1,0.3-0.1
					C161.4,63.9,161.5,63.6,161.5,63.4z"/>
				
					<radialGradient id="SVGID_00000157999333538467451680000014104565224895190187_" cx="147.1841" cy="70.3938" r="18.5357" gradientTransform="matrix(1.0773 0 0 1 -16.2706 0)" gradientUnits="userSpaceOnUse">
					<stop  offset="0" style="stop-color:#4D5B87"/>
					<stop  offset="1" style="stop-color:#1B3764"/>
				</radialGradient>
				<path style="fill:url(#SVGID_00000157999333538467451680000014104565224895190187_);" d="M159.8,52.3c-0.1-0.3-0.2-0.5-0.2-0.8
					c-0.4-0.3-0.7-0.6-1.1-0.8c-0.7-0.4-1.4-0.6-2.2-0.6c-0.1,0-0.1,0-0.2,0c0,0,0,0.1,0.1,0.1c0.7,0.4,1.3,0.9,2,1.4
					c0.7,0.5,1.3,1,2.1,1.5C160,52.8,159.9,52.6,159.8,52.3z"/>
				
					<radialGradient id="SVGID_00000140015363280211446070000006400321771089098154_" cx="147.1841" cy="70.3938" r="18.5357" gradientTransform="matrix(1.0773 0 0 1 -16.2706 0)" gradientUnits="userSpaceOnUse">
					<stop  offset="0" style="stop-color:#4D5B87"/>
					<stop  offset="1" style="stop-color:#1B3764"/>
				</radialGradient>
				<path style="fill:url(#SVGID_00000140015363280211446070000006400321771089098154_);" d="M162.5,58.8c-0.4-0.3-0.7-0.7-1-1
					c-0.6-0.6-1.2-1.2-1.9-1.7c-0.2-0.2-0.5-0.3-0.7-0.5c0,0,0,0-0.1,0c0.1,0.4,0.3,0.9,0.7,1.2c0.7,0.6,1.3,1.2,2,1.9
					c0.6,0.5,1.1,1.1,1.7,1.6C162.9,59.8,162.7,59.3,162.5,58.8z"/>
				
					<radialGradient id="SVGID_00000165932161265058792900000001023063196864003459_" cx="147.1841" cy="70.3938" r="18.5357" gradientTransform="matrix(1.0773 0 0 1 -16.2706 0)" gradientUnits="userSpaceOnUse">
					<stop  offset="0" style="stop-color:#4D5B87"/>
					<stop  offset="1" style="stop-color:#1B3764"/>
				</radialGradient>
				<path style="fill:url(#SVGID_00000165932161265058792900000001023063196864003459_);" d="M143.6,73.8c-0.1-0.1-0.2-0.2-0.4-0.1
					c-1.4,0.3-2.7,0.8-4,1.3c-2.2,1-4.2,2.3-6,3.8c0.3,0.1,0.6,0.3,0.9,0.5c0.2-0.1,0.4-0.2,0.6-0.4c0.7-0.5,1.5-1,2.2-1.6
					c0.9-0.7,2-1.2,3.1-1.6c0.1,0,0.1-0.1,0.2-0.1c0.2-0.1,0.4-0.3,0.7-0.4c0.6-0.2,1.2-0.4,1.7-0.6c0.3-0.1,0.6-0.2,0.9-0.5
					C143.7,74.1,143.7,74,143.6,73.8z"/>
				
					<radialGradient id="SVGID_00000043449009612189571480000001166034700837567660_" cx="147.1841" cy="70.3938" r="18.5357" gradientTransform="matrix(1.0773 0 0 1 -16.2706 0)" gradientUnits="userSpaceOnUse">
					<stop  offset="0" style="stop-color:#4D5B87"/>
					<stop  offset="1" style="stop-color:#1B3764"/>
				</radialGradient>
				<path style="fill:url(#SVGID_00000043449009612189571480000001166034700837567660_);" d="M124.2,71.4c0.5-0.4,1-0.8,1.5-1.1
					c1.3-0.9,2.7-1.7,4.1-2.4c1.7-0.9,3.5-1.6,5.4-2.2c0.5-0.2,1-0.3,1.5-0.5c0.6-0.2,1.2-0.3,1.8-0.4c1-0.1,1.9-0.1,2.9,0
					c1.2,0.1,2.3,0.2,3.5,0.2c0.1,0,0.3,0,0.5,0c-0.1-0.1-0.1-0.1-0.2-0.1c-0.4-0.3-0.9-0.4-1.5-0.6c-1.1-0.3-2.3-0.3-3.4-0.3
					c-1,0-1.9,0.2-2.8,0.4c-1.1,0.2-2.1,0.5-3.1,0.8c-0.9,0.3-1.8,0.7-2.7,1c-0.8,0.3-1.7,0.7-2.5,1.1c-1.3,0.6-2.5,1.3-3.6,2.1
					c-0.6,0.4-1.2,0.8-1.7,1.3C123.9,70.9,124,71.2,124.2,71.4z"/>
				
					<radialGradient id="SVGID_00000070820616762873353500000015587444262213367433_" cx="147.1841" cy="70.3938" r="18.5357" gradientTransform="matrix(1.0773 0 0 1 -16.2706 0)" gradientUnits="userSpaceOnUse">
					<stop  offset="0" style="stop-color:#4D5B87"/>
					<stop  offset="1" style="stop-color:#1B3764"/>
				</radialGradient>
				<path style="fill:url(#SVGID_00000070820616762873353500000015587444262213367433_);" d="M141.3,76.2c-0.1,0.1-0.2,0.1-0.3,0.1
					c-1.1,0.5-2.1,1.1-3.1,1.8c-1,0.7-1.9,1.4-2.8,2.1c0.1,0.2,0.3,0.3,0.4,0.5c0.1,0.1,0.2,0.2,0.2,0.3c0.4-0.3,0.8-0.5,1.3-0.8
					c0.1,0,0.1-0.1,0.1-0.2c0.1-0.4,0.3-0.7,0.7-1c0.3-0.2,0.6-0.4,0.9-0.6c0.5-0.3,1.1-0.5,1.6-0.8c0.3-0.1,0.5-0.3,0.7-0.5
					C141.4,76.9,141.5,76.5,141.3,76.2z"/>
				
					<radialGradient id="SVGID_00000102537829331939136110000008137921052764017308_" cx="147.1841" cy="70.3938" r="18.5357" gradientTransform="matrix(1.0773 0 0 1 -16.2706 0)" gradientUnits="userSpaceOnUse">
					<stop  offset="0" style="stop-color:#4D5B87"/>
					<stop  offset="1" style="stop-color:#1B3764"/>
				</radialGradient>
				<path style="fill:url(#SVGID_00000102537829331939136110000008137921052764017308_);" d="M157,62.4c-1.4-1.5-3.1-2.7-4.9-3.8
					c-0.3,0.1-0.6,0.2-0.9,0.3c1.1,0.5,2.1,1.1,2.9,1.9c0.5,0.4,0.9,0.9,1.4,1.3c0.3,0.3,0.6,0.5,0.9,0.7c0.1,0.1,0.2,0.1,0.4,0.2
					c0.2,0.1,0.3,0,0.3-0.2C157.3,62.7,157.2,62.5,157,62.4z"/>
				
					<radialGradient id="SVGID_00000167385755676571990780000018379402063591085742_" cx="147.1841" cy="70.3938" r="18.5357" gradientTransform="matrix(1.0773 0 0 1 -16.2706 0)" gradientUnits="userSpaceOnUse">
					<stop  offset="0" style="stop-color:#4D5B87"/>
					<stop  offset="1" style="stop-color:#1B3764"/>
				</radialGradient>
				<path style="fill:url(#SVGID_00000167385755676571990780000018379402063591085742_);" d="M137.7,69.5c0,0-0.1,0-0.1,0
					c-1.1,0.3-2.3,0.6-3.4,0.9c-0.8,0.2-1.6,0.4-2.3,0.5c-0.1,0-0.3,0.1-0.3,0.2c-0.2,0.2-0.4,0.2-0.6,0.1c-0.2-0.1-0.3-0.3-0.4-0.6
					c0-0.1,0-0.2,0.1-0.2c0.5-0.3,1-0.6,1.5-0.9c1.2-0.7,2.5-1.3,3.9-1.7c0.7-0.2,1.4-0.4,2.1-0.5c0.1,0,0.3-0.1,0.4-0.1
					c0.3-0.2,0.7-0.2,1.1-0.2c0.6,0,1.2,0.1,1.8,0.3c0.1,0.1,0.3,0.1,0.4,0.2c0.1,0.1,0.1,0.2-0.1,0.2c-0.2,0.1-0.4,0.1-0.6,0.1
					c-0.5,0-1,0-1.6,0.1c-1,0.1-2,0.3-3,0.5c-1,0.2-1.9,0.5-2.8,0.9c-0.1,0-0.1,0.1-0.2,0.1c0,0-0.1,0-0.1,0.1
					c-0.1,0.3,0.1,0.6,0.5,0.6c0.4,0,0.7-0.1,1-0.3c0.5-0.2,1.1-0.4,1.6-0.7c0.2-0.1,0.4-0.1,0.6-0.2
					C137.6,68.8,137.9,69,137.7,69.5z"/>
				
					<radialGradient id="SVGID_00000050627574242980512340000010380660551950309789_" cx="147.1841" cy="70.3938" r="18.5357" gradientTransform="matrix(1.0773 0 0 1 -16.2706 0)" gradientUnits="userSpaceOnUse">
					<stop  offset="0" style="stop-color:#4D5B87"/>
					<stop  offset="1" style="stop-color:#1B3764"/>
				</radialGradient>
				<path style="fill:url(#SVGID_00000050627574242980512340000010380660551950309789_);" d="M139.6,70.2c-0.1,0.2-0.2,0.2-0.3,0.2
					c-0.4,0.2-0.9,0.3-1.3,0.5c-1.5,0.4-2.9,0.9-4.3,1.4c-1,0.4-1.9,0.9-2.7,1.5c-0.1,0.1-0.1,0.1-0.2,0.2c-0.4,0.4-1,0.6-1.6,0.6
					c-0.2,0-0.3,0-0.4-0.1c-0.1-0.1,0-0.3,0.1-0.4c1-1.1,2.3-1.9,3.8-2.5c0.8-0.3,1.7-0.5,2.6-0.7c0.3-0.1,0.6-0.2,1-0.3
					c1-0.3,1.9-0.5,2.9-0.6C139.3,70.2,139.5,70.2,139.6,70.2z"/>
				
					<radialGradient id="SVGID_00000084502468406628026030000004450817480086533275_" cx="147.1841" cy="70.3938" r="18.5357" gradientTransform="matrix(1.0773 0 0 1 -16.2706 0)" gradientUnits="userSpaceOnUse">
					<stop  offset="0" style="stop-color:#4D5B87"/>
					<stop  offset="1" style="stop-color:#1B3764"/>
				</radialGradient>
				<path style="fill:url(#SVGID_00000084502468406628026030000004450817480086533275_);" d="M126.4,74.5c0.7-0.4,1.5-0.8,2.1-1.3
					c0.5-0.3,1-0.7,1.4-1.1c0.1-0.1,0.2-0.2,0.2-0.4c0.1-0.2,0-0.4-0.2-0.5c-0.1-0.1-0.3-0.1-0.4-0.1c-0.1,0-0.2,0-0.3,0.1
					c-0.6,0.4-1.2,0.8-1.8,1.2c-0.6,0.4-1.1,0.8-1.6,1.2C126,74,126.2,74.3,126.4,74.5z"/>
				
					<radialGradient id="SVGID_00000060721287956546022340000014871470623892270215_" cx="147.1841" cy="70.3938" r="18.5357" gradientTransform="matrix(1.0773 0 0 1 -16.2706 0)" gradientUnits="userSpaceOnUse">
					<stop  offset="0" style="stop-color:#4D5B87"/>
					<stop  offset="1" style="stop-color:#1B3764"/>
				</radialGradient>
				<path style="fill:url(#SVGID_00000060721287956546022340000014871470623892270215_);" d="M125.2,73c0.2-0.1,0.3-0.3,0.5-0.4
					c0.5-0.4,0.9-0.8,1.4-1.2c0.4-0.3,0.8-0.6,1.3-0.9c0.3-0.2,0.6-0.3,0.9-0.3c0.5-0.1,0.9-0.3,1.3-0.7c0.1-0.1,0.2-0.2,0.2-0.3
					c0.1-0.3,0-0.4-0.3-0.4c-0.2,0-0.4,0.1-0.6,0.1c-0.4,0.1-0.7,0.3-1,0.5c-1.1,0.6-2.2,1.2-3.3,1.9c-0.3,0.2-0.6,0.5-1,0.7
					C124.8,72.4,125,72.7,125.2,73z"/>
				
					<radialGradient id="SVGID_00000134958151227308488530000003933987890993782972_" cx="147.1841" cy="70.3938" r="18.5357" gradientTransform="matrix(1.0773 0 0 1 -16.2706 0)" gradientUnits="userSpaceOnUse">
					<stop  offset="0" style="stop-color:#4D5B87"/>
					<stop  offset="1" style="stop-color:#1B3764"/>
				</radialGradient>
				<path style="fill:url(#SVGID_00000134958151227308488530000003933987890993782972_);" d="M129.2,77.8c0.1,0,0.2,0,0.3,0
					c0,0,0-0.1,0-0.1c0.2-0.7,0.7-1.2,1.3-1.6c0.4-0.3,0.8-0.5,1.2-0.7c0.5-0.3,1.1-0.6,1.6-0.9c0.2-0.1,0.4-0.3,0.6-0.5
					c-0.3-0.2-0.5-0.3-0.8-0.3c-0.5,0-0.9,0.1-1.4,0.3c-1.1,0.5-1.9,1.1-2.6,2c-0.3,0.4-0.6,0.8-0.8,1.3c0,0,0,0,0,0
					C128.9,77.5,129.1,77.7,129.2,77.8z"/>
				
					<radialGradient id="SVGID_00000168096302893362491080000011349469826152857014_" cx="147.1841" cy="70.3938" r="18.5357" gradientTransform="matrix(1.0773 0 0 1 -16.2706 0)" gradientUnits="userSpaceOnUse">
					<stop  offset="0" style="stop-color:#4D5B87"/>
					<stop  offset="1" style="stop-color:#1B3764"/>
				</radialGradient>
				<path style="fill:url(#SVGID_00000168096302893362491080000011349469826152857014_);" d="M150.1,63c0.3,0.1,0.6,0.2,0.9,0.4
					c0.7,0.4,1.2,1,1.7,1.5c0.5,0.6,0.9,1.1,1.4,1.7c0.2,0.2,0.4,0.4,0.7,0.6c0.3,0.3,0.6,0.7,0.8,1c0.2,0.5,0.4,1,0.5,1.5
					c0,0.1,0,0.2,0,0.4c0,0.1,0,0.1,0,0.2c-0.2,0-0.2-0.1-0.3-0.1c-0.2-0.3-0.4-0.6-0.6-0.9c-0.4-0.8-0.8-1.5-1.4-2.2
					c-0.6-0.7-1.3-1.4-2-2.1c-0.5-0.5-0.9-1.1-1.4-1.6C150.2,63.3,150.2,63.1,150.1,63z"/>
				
					<radialGradient id="SVGID_00000027605967472158524170000005430043453894754714_" cx="147.1841" cy="70.3938" r="18.5357" gradientTransform="matrix(1.0773 0 0 1 -16.2706 0)" gradientUnits="userSpaceOnUse">
					<stop  offset="0" style="stop-color:#4D5B87"/>
					<stop  offset="1" style="stop-color:#1B3764"/>
				</radialGradient>
				<path style="fill:url(#SVGID_00000027605967472158524170000005430043453894754714_);" d="M160.8,54.8c-0.7-0.6-1.5-1.2-2.4-1.6
					c-0.1,0-0.2-0.1-0.3-0.1c0,0,0,0-0.1,0c0,0.1,0.1,0.2,0.1,0.3c0.1,0.3,0.3,0.6,0.6,0.8c0.3,0.3,0.6,0.5,0.9,0.7
					c0.7,0.5,1.4,1.1,2,1.7C161.4,56,161.1,55.4,160.8,54.8z"/>
				
					<radialGradient id="SVGID_00000072966929501251596280000015909811320325371290_" cx="147.1841" cy="70.3938" r="18.5357" gradientTransform="matrix(1.0773 0 0 1 -16.2706 0)" gradientUnits="userSpaceOnUse">
					<stop  offset="0" style="stop-color:#4D5B87"/>
					<stop  offset="1" style="stop-color:#1B3764"/>
				</radialGradient>
				<path style="fill:url(#SVGID_00000072966929501251596280000015909811320325371290_);" d="M150.1,59.5c0.1,0,0.2,0,0.3,0.1
					c0.7,0.1,1.3,0.4,1.9,0.8c0.6,0.4,1.1,0.8,1.6,1.3c0.2,0.2,0.5,0.4,0.7,0.6c0.5,0.4,1,0.9,1.6,1.2c-0.2,0.1-0.5,0.2-0.5,0.4
					c-0.1,0.2-0.1,0.4-0.1,0.6c-0.2-0.2-0.4-0.4-0.5-0.7c-0.4-0.6-0.9-1.2-1.6-1.6c-0.6-0.4-1.2-0.9-1.8-1.3
					c-0.6-0.4-1.1-0.8-1.4-1.4C150.1,59.6,150.1,59.6,150.1,59.5z"/>
				
					<radialGradient id="SVGID_00000042003200637941913330000003667361200534619559_" cx="147.1841" cy="70.3938" r="18.5357" gradientTransform="matrix(1.0773 0 0 1 -16.2706 0)" gradientUnits="userSpaceOnUse">
					<stop  offset="0" style="stop-color:#4D5B87"/>
					<stop  offset="1" style="stop-color:#1B3764"/>
				</radialGradient>
				<path style="fill:url(#SVGID_00000042003200637941913330000003667361200534619559_);" d="M141.8,69.9c0.2-0.2,0.4-0.3,0.6-0.3
					c0.4-0.1,0.8-0.1,1.2-0.1c0.7,0,1.3,0.1,2,0.3c0.2,0.1,0.4,0.1,0.5,0.2c0.2,0.1,0.2,0.3-0.1,0.4c-0.2,0.1-0.4,0.1-0.6,0.1
					c-0.5-0.1-1-0.1-1.4-0.2c-0.5-0.1-1-0.1-1.5-0.2C142.2,70.1,142,70,141.8,69.9z"/>
				
					<radialGradient id="SVGID_00000046319925830476516320000013522538666565990329_" cx="147.1841" cy="70.3938" r="18.5357" gradientTransform="matrix(1.0773 0 0 1 -16.2706 0)" gradientUnits="userSpaceOnUse">
					<stop  offset="0" style="stop-color:#4D5B87"/>
					<stop  offset="1" style="stop-color:#1B3764"/>
				</radialGradient>
				<path style="fill:url(#SVGID_00000046319925830476516320000013522538666565990329_);" d="M158.6,67.1c0-0.1,0-0.1,0-0.2
					c-0.1-0.4-0.2-0.8-0.4-1.2c-0.2-0.5-0.5-1-0.9-1.4c-0.2-0.2-0.4-0.3-0.6-0.5c0,0-0.1,0-0.1,0c0,0.4,0.1,0.7,0.3,1
					c0.2,0.4,0.5,0.7,0.7,1.1c0.3,0.4,0.6,0.8,0.8,1.3c0,0.1,0.1,0.1,0.2,0.2C158.5,67.2,158.5,67.2,158.6,67.1z"/>
				
					<radialGradient id="SVGID_00000054976818213604375790000018221722563677352373_" cx="147.1841" cy="70.3938" r="18.5357" gradientTransform="matrix(1.0773 0 0 1 -16.2706 0)" gradientUnits="userSpaceOnUse">
					<stop  offset="0" style="stop-color:#4D5B87"/>
					<stop  offset="1" style="stop-color:#1B3764"/>
				</radialGradient>
				<path style="fill:url(#SVGID_00000054976818213604375790000018221722563677352373_);" d="M148.7,72.3c0,0.1,0,0.2,0,0.3
					c0,0.1-0.1,0.2-0.2,0.1c0,0-0.1,0-0.1-0.1c-0.1,0-0.1-0.1-0.2-0.1c-0.4-0.4-0.8-0.9-1.2-1.3c-0.1-0.1-0.1-0.1-0.1-0.2
					c-0.1-0.1-0.1-0.2,0-0.3c0.1-0.1,0.3-0.2,0.5-0.1c0.2,0.1,0.4,0.2,0.6,0.3C148.3,71.3,148.5,71.7,148.7,72.3z"/>
				
					<radialGradient id="SVGID_00000050654420282975161370000012950975242423213497_" cx="147.1841" cy="70.3938" r="18.5357" gradientTransform="matrix(1.0773 0 0 1 -16.2706 0)" gradientUnits="userSpaceOnUse">
					<stop  offset="0" style="stop-color:#4D5B87"/>
					<stop  offset="1" style="stop-color:#1B3764"/>
				</radialGradient>
				<path style="fill:url(#SVGID_00000050654420282975161370000012950975242423213497_);" d="M144.2,63.3c-0.1,0-0.2,0.1-0.3,0.1
					c-0.2,0-0.4,0-0.6,0c-0.5,0-1,0-1.4,0c-0.2,0-0.4,0-0.6-0.1c-0.3-0.1-0.4-0.2-0.4-0.5C141.3,62.7,143.7,62.9,144.2,63.3z"/>
				
					<radialGradient id="SVGID_00000081648891772293804110000000211605680171933066_" cx="147.1841" cy="70.3938" r="18.5357" gradientTransform="matrix(1.0773 0 0 1 -16.2706 0)" gradientUnits="userSpaceOnUse">
					<stop  offset="0" style="stop-color:#4D5B87"/>
					<stop  offset="1" style="stop-color:#1B3764"/>
				</radialGradient>
				<path style="fill:url(#SVGID_00000081648891772293804110000000211605680171933066_);" d="M142.4,68.5c-0.1,0.1-0.2,0.1-0.2,0.1
					c-0.3,0.1-0.7,0.3-1,0.3c-0.5,0.1-1,0.1-1.4,0.2c-0.1,0-0.3,0-0.4,0c-0.1,0-0.2-0.1-0.2-0.2c0-0.1,0.1-0.2,0.2-0.2
					c0.3-0.1,0.7-0.2,1-0.2c0.6-0.1,1.2-0.1,1.7-0.1C142.1,68.4,142.2,68.4,142.4,68.5z"/>
				
					<radialGradient id="SVGID_00000127003951694360143390000005826740748955740599_" cx="147.1841" cy="70.3938" r="18.5357" gradientTransform="matrix(1.0773 0 0 1 -16.2706 0)" gradientUnits="userSpaceOnUse">
					<stop  offset="0" style="stop-color:#4D5B87"/>
					<stop  offset="1" style="stop-color:#1B3764"/>
				</radialGradient>
				<path style="fill:url(#SVGID_00000127003951694360143390000005826740748955740599_);" d="M142.6,76.1c-0.1,0-0.2,0-0.3,0
					c-0.2,0-0.3-0.1-0.2-0.3c0,0,0.1-0.1,0.1-0.1c0.3-0.3,0.7-0.6,1.1-0.7c0.1,0,0.3-0.1,0.4-0.1c0.2,0,0.3,0.1,0.2,0.3
					c0,0-0.1,0.1-0.1,0.1c-0.3,0.2-0.6,0.4-0.9,0.6C142.8,76.1,142.7,76.1,142.6,76.1z"/>
				
					<radialGradient id="SVGID_00000008141429611989018120000013747019089930267783_" cx="147.1841" cy="70.3938" r="18.5357" gradientTransform="matrix(1.0773 0 0 1 -16.2706 0)" gradientUnits="userSpaceOnUse">
					<stop  offset="0" style="stop-color:#4D5B87"/>
					<stop  offset="1" style="stop-color:#1B3764"/>
				</radialGradient>
				<path style="fill:url(#SVGID_00000008141429611989018120000013747019089930267783_);" d="M133.3,76.3c0-0.2,0-0.4,0.2-0.5
					c0.2-0.1,0.4-0.2,0.6-0.2c0.2-0.1,0.4,0,0.4,0.2c0.1,0.3-0.1,0.8-0.4,1c-0.2,0.1-0.4,0.1-0.5,0
					C133.4,76.6,133.4,76.5,133.3,76.3z"/>
				
					<radialGradient id="SVGID_00000019652387219975169600000005360307752730527626_" cx="147.1841" cy="70.3938" r="18.5357" gradientTransform="matrix(1.0773 0 0 1 -16.2706 0)" gradientUnits="userSpaceOnUse">
					<stop  offset="0" style="stop-color:#4D5B87"/>
					<stop  offset="1" style="stop-color:#1B3764"/>
				</radialGradient>
				<path style="fill:url(#SVGID_00000019652387219975169600000005360307752730527626_);" d="M143.3,68.9c-0.1-0.3,0.2-0.6,0.6-0.6
					C143.9,68.6,143.6,68.9,143.3,68.9z"/>
			</g>
		</g>
	</g>
</g>
</svg>
