<svg xmlns="http://www.w3.org/2000/svg" version="1.1" xmlns:xlink="http://www.w3.org/1999/xlink" xmlns:svgjs="http://svgjs.com/svgjs" width="1440" height="560" preserveAspectRatio="none" viewBox="0 0 1440 560"><g mask="url(&quot;#SvgjsMask2492&quot;)" fill="none"><rect width="1440" height="560" x="0" y="0" fill="url(#SvgjsLinearGradient2493)"></rect><path d="M1440 0L1193.58 0L1440 277.57z" fill="rgba(255, 255, 255, .1)"></path><path d="M1193.58 0L1440 277.57L1440 313.82L738.8799999999999 0z" fill="rgba(255, 255, 255, .075)"></path><path d="M738.88 0L1440 313.82L1440 441.12L329.94 0z" fill="rgba(255, 255, 255, .05)"></path><path d="M329.94000000000005 0L1440 441.12L1440 484.26L157.21000000000006 0z" fill="rgba(255, 255, 255, .025)"></path><path d="M0 560L429.86 560L0 450.71z" fill="rgba(0, 0, 0, .1)"></path><path d="M0 450.71L429.86 560L595.97 560L0 377.15999999999997z" fill="rgba(0, 0, 0, .075)"></path><path d="M0 377.15999999999997L595.97 560L696.69 560L0 366.28999999999996z" fill="rgba(0, 0, 0, .05)"></path><path d="M0 366.28999999999996L696.69 560L1153.91 560L0 285.89z" fill="rgba(0, 0, 0, .025)"></path></g><defs><mask id="SvgjsMask2492"><rect width="1440" height="560" fill="#ffffff"></rect></mask><linearGradient x1="15.28%" y1="-39.29%" x2="84.72%" y2="139.29%" gradientUnits="userSpaceOnUse" id="SvgjsLinearGradient2493"><stop stop-color="rgba(25, 55, 100, 1)" offset="0"></stop><stop stop-color="rgba(55, 85, 137, 1)" offset="0.27"></stop><stop stop-color="rgba(151, 151, 151, 1)" offset="0.64"></stop><stop stop-color="rgba(211, 211, 211, 1)" offset="0.9"></stop><stop stop-color="rgba(248, 248, 248, 1)" offset="1"></stop></linearGradient></defs></svg>