
<svg xmlns="http://www.w3.org/2000/svg" version="1.1" xmlns:xlink="http://www.w3.org/1999/xlink" xmlns:svgjs="http://svgjs.com/svgjs" width="1440" height="560" preserveAspectRatio="none" viewBox="0 0 1440 560"><g mask="url(&quot;#SvgjsMask2876&quot;)" fill="none"><rect width="1440" height="560" x="0" y="0" fill="url(#SvgjsLinearGradient2877)"></rect><path d="M1440 0L1421.45 0L1440 72.13z" fill="rgba(255, 255, 255, .1)"></path><path d="M1421.45 0L1440 72.13L1440 298.64L874.26 0z" fill="rgba(255, 255, 255, .075)"></path><path d="M874.26 0L1440 298.64L1440 314.14L847.67 0z" fill="rgba(255, 255, 255, .05)"></path><path d="M847.67 0L1440 314.14L1440 442.69L740.92 0z" fill="rgba(255, 255, 255, .025)"></path><path d="M0 560L69.56 560L0 531.1z" fill="rgba(0, 0, 0, .1)"></path><path d="M0 531.1L69.56 560L208.19 560L0 257.1z" fill="rgba(0, 0, 0, .075)"></path><path d="M0 257.1L208.19 560L812.96 560L0 166.94000000000003z" fill="rgba(0, 0, 0, .05)"></path><path d="M0 166.94000000000005L812.96 560L1231.41 560L0 152.30000000000007z" fill="rgba(0, 0, 0, .025)"></path></g><defs><mask id="SvgjsMask2876"><rect width="1440" height="560" fill="#ffffff"></rect></mask><linearGradient x1="15.28%" y1="-39.29%" x2="84.72%" y2="139.29%" gradientUnits="userSpaceOnUse" id="SvgjsLinearGradient2877"><stop stop-color="rgba(248, 248, 248, 1)" offset="0"></stop><stop stop-color="rgba(211, 211, 211, 1)" offset="0.1"></stop><stop stop-color="rgba(151, 151, 151, 1)" offset="0.36"></stop><stop stop-color="rgba(55, 85, 137, 1)" offset="0.73"></stop><stop stop-color="rgba(25, 55, 100, 1)" offset="1"></stop></linearGradient></defs></svg>