<?xml version="1.0" encoding="utf-8"?>
<!-- Generator: Adobe Illustrator 27.5.0, SVG Export Plug-In . SVG Version: 6.00 Build 0)  -->
<svg version="1.1" id="Layer_1" xmlns="http://www.w3.org/2000/svg" xmlns:xlink="http://www.w3.org/1999/xlink" x="0px" y="0px"
	 viewBox="0 0 421.3 104.9" style="enable-background:new 0 0 421.3 104.9;" xml:space="preserve">
<style type="text/css">
	.st0{fill:#6D6E71;}
	.st1{fill:#1B3764;}
	.st2{fill:#939598;}
	.st3{fill:url(#SVGID_1_);}
	.st4{fill:url(#SVGID_00000143606733823803293120000000963760275414589870_);}
	.st5{fill:url(#SVGID_00000083806591783700560490000017238211576548668074_);}
	.st6{fill:url(#SVGID_00000070831279986921933900000012781258893830569662_);}
	.st7{fill:url(#SVGID_00000007420470892800535900000007430563301750395011_);}
	.st8{fill:url(#SVGID_00000031187467191422697540000001089359764187686540_);}
	.st9{fill:url(#SVGID_00000118365830101098835190000009303374384842683044_);}
	.st10{fill:url(#SVGID_00000119825941663399718050000011558472516395151802_);}
	.st11{fill:url(#SVGID_00000051378633968365455510000012556549295884551815_);}
	.st12{fill:url(#SVGID_00000110455302407124266090000005542229512603213236_);}
	.st13{fill:url(#SVGID_00000121273460168409695100000003755466348405277113_);}
	.st14{fill:url(#SVGID_00000112607222216477237400000015491672644920732306_);}
	.st15{fill:url(#SVGID_00000116948275028076799830000004835233939789657747_);}
	.st16{fill:url(#SVGID_00000053512854335354057390000011705612426256953519_);}
	.st17{fill:url(#SVGID_00000114791126577218743580000003802187216155561634_);}
	.st18{fill:url(#SVGID_00000169541172009468674120000015401033044219467941_);}
	.st19{fill:url(#SVGID_00000148645239453468787450000012129836968499346309_);}
	.st20{fill:url(#SVGID_00000097485846254791815440000003901442263533268661_);}
	.st21{fill:url(#SVGID_00000026854760896889931070000006810923730559264165_);}
	.st22{fill:url(#SVGID_00000044150282863723551390000009630094241395536260_);}
	.st23{fill:url(#SVGID_00000115475276378866239090000001695483065653272220_);}
	.st24{fill:url(#SVGID_00000057142376548968047250000006522896593795643787_);}
	.st25{fill:url(#SVGID_00000160153473567136292120000015559910841915472042_);}
	.st26{fill:url(#SVGID_00000127731057071255127040000016047762165662271637_);}
	.st27{fill:url(#SVGID_00000038404050009804976010000013108028037575863484_);}
	.st28{fill:url(#SVGID_00000062894476400858013970000010706770000610909062_);}
	.st29{fill:url(#SVGID_00000089544997902049304000000011307588676655773626_);}
	.st30{fill:url(#SVGID_00000043453602376802882540000002269800501299492027_);}
	.st31{fill:url(#SVGID_00000080185754278690651890000006045579872244358578_);}
	.st32{fill:url(#SVGID_00000088127377121240187320000014353380687267521721_);}
	.st33{fill:url(#SVGID_00000144306648446579824000000008148623548134737794_);}
	.st34{fill:url(#SVGID_00000173850195651582895530000018122863771300592033_);}
	.st35{fill:url(#SVGID_00000165916913549674839480000017126089858182374802_);}
	.st36{fill:url(#SVGID_00000137818432477446634970000013577941022995596461_);}
	.st37{fill:url(#SVGID_00000142137086993093178760000008990153765283835056_);}
</style>
<g>
	<g>
		<g>
			<path class="st0" d="M63.8,97.6L62,99.3h-1.8c-1.3-0.1-2.3-0.7-3.1-1.5c-0.9-0.9-1.3-1.9-1.3-3.1c0-0.3,0-0.6,0.1-0.9
				c0.3-1.7,1.1-2.9,2.4-3.8c1-0.7,2.2-1,3.6-1c0.6,0,1.3,0.1,1.9,0.3V97.6z M60,85.5c0.2,0.2,0.4,0.5,0.4,0.9S60.2,87,60,87.3
				c-0.2,0.3-0.5,0.4-0.9,0.4c-0.3,0-0.6-0.1-0.9-0.4c-0.2-0.2-0.4-0.5-0.4-0.9s0.1-0.6,0.4-0.9c0.2-0.3,0.5-0.4,0.9-0.4
				C59.4,85.1,59.7,85.3,60,85.5z M61.8,90.8c-1.1,0-2,0.3-2.7,1c-0.8,0.7-1.1,1.5-1.1,2.7c0,0.9,0.3,1.7,0.9,2.2
				c0.6,0.5,1.4,0.8,2.3,0.8c0.2,0,0.4,0,0.6,0V90.8z M62.7,85.5c0.2,0.2,0.4,0.5,0.4,0.9s-0.1,0.6-0.4,0.9
				c-0.3,0.3-0.6,0.4-0.9,0.4c-0.4,0-0.7-0.1-0.9-0.4c-0.2-0.2-0.4-0.5-0.4-0.9s0.1-0.6,0.4-0.9c0.2-0.3,0.5-0.4,0.9-0.4
				C62.1,85.1,62.4,85.3,62.7,85.5z"/>
			<path class="st0" d="M70.8,89.1v10.6c0,1.1-0.3,2.1-0.8,2.9c-0.8,1.1-2.2,1.8-4.1,1.9l-1.6-2c0.9,0,1.7-0.1,2.4-0.4
				c1.4-0.5,2.1-1.3,2.1-2.5V89.2L70.8,89.1z"/>
			<path class="st0" d="M79.7,99.7c0,1.1-0.3,2.1-0.8,2.9c-0.8,1.1-2.2,1.8-4.1,1.9l-1.6-2c0.9,0,1.7-0.1,2.4-0.4
				c1.4-0.5,2.1-1.3,2.1-2.5v-1c-0.1,0-0.2,0.1-0.4,0.2c-0.2,0.1-0.4,0.2-0.5,0.2l-0.6,0.3c-1.3-0.1-2.3-0.7-3.1-1.5
				c-0.9-0.9-1.3-1.9-1.3-3.1c0-1.6,0.6-2.9,1.8-4c1.2-1.1,2.6-1.7,4.2-1.7c0.6,0,1.2,0.1,1.9,0.3l0,8H81v2h-1.3V99.7z M77.7,90.8
				c-1-0.1-1.9,0.2-2.6,0.9c-0.6,0.6-1,1.4-1.1,2.3c-0.1,0.9,0.1,1.7,0.6,2.3c0.6,0.7,1.4,1.1,2.5,1.1c0.2,0,0.4,0,0.6,0V90.8z"/>
			<path class="st0" d="M80.6,99.3v-2h2.9v-8.1l2.1-0.2v8.3h1.3v2H80.6z M85.4,85.5c0.2,0.2,0.4,0.5,0.4,0.9c0,0.3-0.1,0.6-0.4,0.9
				c-0.2,0.3-0.5,0.4-0.9,0.4c-0.4,0-0.7-0.1-0.9-0.4c-0.2-0.2-0.4-0.5-0.4-0.9c0-0.4,0.1-0.7,0.4-0.9c0.2-0.2,0.5-0.4,0.9-0.4
				C84.8,85.1,85.1,85.3,85.4,85.5z"/>
			<path class="st0" d="M100.6,97.3v2h-3.8l-7.2-1.2c-0.1,0.3-0.4,0.6-0.7,0.9c-0.4,0.2-0.7,0.4-1.1,0.4h-1.2v-2h1.3
				c0.5,0,0.8-0.4,1.2-1.2c0.1-0.3,0.2-0.7,0.4-1.3c0.2-0.7,0.4-1.1,0.5-1.4c0.5-1.6,1-2.6,1.5-3.2c0.8-1,1.8-1.5,3.2-1.5
				c1.4,0,2.5,0.7,3.3,1.9c0.8,1.2,1.2,2.7,1.2,4.5c0,0.7-0.1,1.4-0.2,2.1H100.6z M97.2,97.3c0.3-1.3,0.3-2.6-0.1-3.9
				c-0.4-1.2-1-2-1.8-2.5c-0.8-0.5-1.6-0.4-2.4,0.4c-0.9,0.8-1.6,2.4-2.1,4.7L97.2,97.3z"/>
			<path class="st0" d="M100.2,99.3v-2h2.9V84.7l2.1-0.2v13.1l-1.8,1.7H100.2z"/>
			<path class="st0" d="M106.8,84.7l2.1-0.2v14.8h-2.1V84.7z"/>
			<path class="st0" d="M123.6,97.3h1.3v2H120c-1.3-0.1-2.4-0.7-3.2-1.6c-0.8-0.9-1.1-1.9-1.1-3.1c0-1.6,0.6-2.9,1.8-4
				c1.2-1.1,2.6-1.6,4.2-1.6c0.7,0,1.3,0.1,1.9,0.3V97.3z M119.8,85.5c0.2,0.2,0.4,0.5,0.4,0.9s-0.1,0.6-0.4,0.9
				c-0.2,0.3-0.5,0.4-0.9,0.4c-0.3,0-0.6-0.1-0.9-0.4c-0.2-0.2-0.4-0.5-0.4-0.9s0.1-0.6,0.4-0.9c0.2-0.3,0.5-0.4,0.9-0.4
				C119.2,85.1,119.5,85.3,119.8,85.5z M121.6,90.8c-1.1,0-2,0.3-2.7,1c-0.8,0.7-1.1,1.6-1.1,2.7c0,0.9,0.3,1.7,0.9,2.2
				c0.6,0.5,1.4,0.8,2.3,0.8c0.2,0,0.4,0,0.6,0V90.8z M122.5,85.5c0.2,0.2,0.4,0.5,0.4,0.9s-0.1,0.6-0.4,0.9
				c-0.3,0.3-0.6,0.4-0.9,0.4s-0.7-0.1-0.9-0.4c-0.2-0.2-0.4-0.5-0.4-0.9s0.1-0.6,0.4-0.9c0.2-0.3,0.5-0.4,0.9-0.4
				S122.2,85.3,122.5,85.5z"/>
			<path class="st0" d="M124.5,99.3v-2h2.9v-8.1l2.1-0.2v8.3h1.3v2H124.5z M129.2,85.5c0.2,0.2,0.4,0.5,0.4,0.9
				c0,0.3-0.1,0.6-0.4,0.9c-0.2,0.3-0.5,0.4-0.9,0.4c-0.4,0-0.7-0.1-0.9-0.4c-0.2-0.2-0.4-0.5-0.4-0.9c0-0.4,0.1-0.7,0.4-0.9
				c0.2-0.2,0.5-0.4,0.9-0.4C128.7,85.1,129,85.3,129.2,85.5z"/>
			<path class="st0" d="M130.4,99.3v-2h4.3v-8.1l2.1-0.2v8.5l-1.8,1.7H130.4z M133.4,103.2c0,0.4-0.1,0.7-0.4,0.9
				c-0.2,0.3-0.5,0.4-0.9,0.4c-0.3,0-0.6-0.1-0.9-0.4c-0.2-0.2-0.4-0.5-0.4-0.9c0-0.3,0.1-0.6,0.4-0.9c0.3-0.3,0.6-0.4,0.9-0.4
				c0.3,0,0.6,0.1,0.9,0.4C133.3,102.5,133.4,102.8,133.4,103.2z M136.3,103.2c0,0.4-0.1,0.7-0.4,0.9c-0.3,0.3-0.6,0.4-0.9,0.4
				c-0.3,0-0.6-0.1-0.9-0.4c-0.2-0.3-0.4-0.6-0.4-0.9c0-0.3,0.1-0.6,0.4-0.9c0.3-0.3,0.6-0.4,0.9-0.4c0.3,0,0.6,0.1,0.9,0.4
				C136.2,102.6,136.3,102.9,136.3,103.2z"/>
			<path class="st0" d="M148.1,97.3v2h-10.4l0.7-2h6.4c0-2-0.5-3.5-1.5-4.6c-0.9-0.9-2-1.4-3.4-1.5l0.5-2.2c2.1,0.2,3.7,1.1,4.9,2.7
				c1.1,1.5,1.7,3.4,1.6,5.5H148.1z"/>
			<path class="st0" d="M161.8,97.3v2H158l-7.2-1.2c-0.1,0.3-0.4,0.6-0.7,0.9c-0.4,0.2-0.7,0.4-1.1,0.4h-1.2v-2h1.3
				c0.5,0,0.8-0.4,1.2-1.2c0.1-0.3,0.2-0.7,0.4-1.3c0.2-0.7,0.4-1.1,0.5-1.4c0.5-1.6,1-2.6,1.5-3.2c0.8-1,1.8-1.5,3.2-1.5
				c1.4,0,2.5,0.7,3.3,1.9c0.8,1.2,1.2,2.7,1.2,4.5c0,0.7-0.1,1.4-0.2,2.1H161.8z M158.4,97.3c0.3-1.3,0.3-2.6-0.1-3.9
				c-0.4-1.2-1-2-1.8-2.5c-0.8-0.5-1.6-0.4-2.4,0.4c-0.9,0.8-1.6,2.4-2.1,4.7L158.4,97.3z"/>
			<path class="st0" d="M161.4,99.3v-2h2.9V84.7l2.1-0.2v13.1l-1.8,1.7H161.4z"/>
			<path class="st0" d="M168,84.7l2.1-0.2v14.8H168V84.7z"/>
			<path class="st0" d="M184.7,97.3h1.3v2h-4.8c-1.3-0.1-2.4-0.7-3.2-1.6c-0.8-0.9-1.1-1.9-1.1-3.1c0-1.6,0.6-2.9,1.8-4
				c1.2-1.1,2.6-1.6,4.2-1.6c0.7,0,1.3,0.1,1.9,0.3V97.3z M180.9,85.5c0.2,0.2,0.4,0.5,0.4,0.9s-0.1,0.6-0.4,0.9
				c-0.2,0.3-0.5,0.4-0.9,0.4c-0.3,0-0.6-0.1-0.9-0.4c-0.2-0.2-0.4-0.5-0.4-0.9s0.1-0.6,0.4-0.9c0.2-0.3,0.5-0.4,0.9-0.4
				C180.4,85.1,180.7,85.3,180.9,85.5z M182.7,90.8c-1.1,0-2,0.3-2.7,1c-0.8,0.7-1.1,1.6-1.1,2.7c0,0.9,0.3,1.7,0.9,2.2
				c0.6,0.5,1.4,0.8,2.3,0.8c0.2,0,0.4,0,0.6,0V90.8z M183.6,85.5c0.2,0.2,0.4,0.5,0.4,0.9s-0.1,0.6-0.4,0.9
				c-0.3,0.3-0.6,0.4-0.9,0.4c-0.4,0-0.7-0.1-0.9-0.4c-0.2-0.2-0.4-0.5-0.4-0.9s0.1-0.6,0.4-0.9c0.2-0.3,0.5-0.4,0.9-0.4
				C183.1,85.1,183.4,85.3,183.6,85.5z"/>
			<path class="st0" d="M194.9,97.3h1.3v2h-10.6v-2h2.2c-0.6-0.8-0.8-1.7-0.8-2.7c0-1.6,0.6-2.9,1.8-4c1.2-1.1,2.6-1.6,4.2-1.6
				c0.6,0,1.3,0.1,1.9,0.3V97.3z M190.8,85.5c0.2,0.2,0.4,0.5,0.4,0.9s-0.1,0.6-0.4,0.9c-0.2,0.3-0.5,0.4-0.9,0.4
				c-0.4,0-0.7-0.1-0.9-0.4c-0.2-0.2-0.4-0.5-0.4-0.9s0.1-0.6,0.4-0.9c0.2-0.3,0.5-0.4,0.9-0.4C190.3,85.1,190.6,85.3,190.8,85.5z
				 M192.9,90.8c-1.1,0-2,0.4-2.7,1c-0.8,0.7-1.1,1.5-1.1,2.6c0,0.9,0.3,1.7,0.9,2.2c0.6,0.5,1.4,0.8,2.3,0.8c0.2,0,0.4,0,0.6,0
				V90.8z M193.5,85.5c0.2,0.2,0.4,0.5,0.4,0.9s-0.1,0.6-0.4,0.9c-0.3,0.3-0.6,0.4-0.9,0.4c-0.4,0-0.7-0.1-0.9-0.4
				c-0.2-0.2-0.4-0.5-0.4-0.9s0.1-0.6,0.4-0.9c0.2-0.3,0.5-0.4,0.9-0.4C193,85.1,193.3,85.3,193.5,85.5z"/>
			<path class="st0" d="M195.8,99.3v-2h1.3V84.7l2.1-0.2v7.9c1.6-2.2,3.6-3.3,5.9-3.3c1.9,0,3.6,0.7,4.9,2.2c1.3,1.4,2,3.1,2,5.1
				c0,0.4,0,0.7,0,0.9h1.3v2H195.8z M201,92.9c-1.2,1.2-1.9,2.6-1.9,4.4h10.6c0-2-0.5-3.5-1.5-4.6c-0.9-1-2-1.4-3.3-1.4
				C203.5,91.2,202.2,91.8,201,92.9z"/>
			<path class="st0" d="M212.8,99.3v-2h2.9v-8.1l2.1-0.2v8.3h1.3v2H212.8z M217.6,85.5c0.2,0.2,0.4,0.5,0.4,0.9
				c0,0.3-0.1,0.6-0.4,0.9c-0.2,0.3-0.5,0.4-0.9,0.4c-0.4,0-0.7-0.1-0.9-0.4c-0.2-0.2-0.4-0.5-0.4-0.9c0-0.4,0.1-0.7,0.4-0.9
				c0.2-0.2,0.5-0.4,0.9-0.4C217,85.1,217.3,85.3,217.6,85.5z"/>
			<path class="st0" d="M232.8,97.3v2h-3.8l-7.2-1.2c-0.1,0.3-0.4,0.6-0.7,0.9c-0.4,0.2-0.7,0.4-1.1,0.4h-1.2v-2h1.3
				c0.5,0,0.8-0.4,1.2-1.2c0.1-0.3,0.2-0.7,0.4-1.3c0.2-0.7,0.4-1.1,0.5-1.4c0.5-1.6,1-2.6,1.5-3.2c0.8-1,1.8-1.5,3.2-1.5
				c1.4,0,2.5,0.7,3.3,1.9c0.8,1.2,1.2,2.7,1.2,4.5c0,0.7-0.1,1.4-0.2,2.1H232.8z M229.4,97.3c0.3-1.3,0.3-2.6-0.1-3.9
				c-0.4-1.2-1-2-1.8-2.5c-0.8-0.5-1.6-0.4-2.4,0.4c-0.9,0.8-1.6,2.4-2.1,4.7L229.4,97.3z"/>
			<path class="st0" d="M232.4,99.3v-2h2.9v-8.1l2.1-0.2v8.5l-1.8,1.7H232.4z M236.7,103.2c0,0.4-0.1,0.7-0.4,0.9
				c-0.2,0.3-0.5,0.4-0.9,0.4c-0.4,0-0.7-0.1-0.9-0.4c-0.2-0.2-0.4-0.5-0.4-0.9c0-0.3,0.1-0.6,0.4-0.9c0.2-0.3,0.6-0.4,0.9-0.4
				c0.3,0,0.6,0.1,0.9,0.4C236.6,102.5,236.7,102.9,236.7,103.2z"/>
		</g>
		<g>
			<path d="M75,51c0,0-1.1,3-1.6,4.5c1,1.2,1.6,2.6,2.1,3.7c-2.7,1.9-6.8,1.9-7.9-1c-0.4-1-0.6-2.1-0.4-3.7c0.4-1.4-0.8-1-1.7,0
				c-0.7,0.7-1.2,1.5-1.9,2.6c-3.5,5.2-9.7,5.8-11.5,0.9c-0.6-1.4-0.9-5.6-1.1-7.9c-0.9-11.5-1-30.3-4.7-38.9
				c-0.1-0.3-0.2-0.3-0.3,0c-0.7,1.5-1.2,2.8-1.6,3.9c3,11.3,2.8,23.4,3.6,35.9c0.1,2,0.5,6.6,1.1,8.5c2.1,8.4,10.3,7.8,14.1,2.1
				c0.6-0.9,0.8-1.1,1.5-2.1c0.4-0.4,0.5-0.4,0.4,0c0.1,1.5,0.6,3.1,1.5,4c1.9,2.1,6.1,1.7,8.4,0.1c1.1-0.7,1.8-2.8,2.1-4.4
				C77.6,57.3,77.7,54.8,75,51"/>
			<path d="M39.1,45c-1.7,0.4-2.8,0.7-4,1.1c-0.4-0.9-1.2-2-1.8-2.7C34.8,41,38.6,44.6,39.1,45z M35.3,37.7
				c-2.8,0.9-3.9,4.5-3.4,6.7c0.2,1,0.5,1.4,1.1,2.4c-4.2,1.5-8.2,3.3-11.7,6.2c-5.3,4.5-7.4,9.6-12.1,14c-2.9,2.8-7.5,2.2-8.2-2.9
				c-0.3-3.2,1.1-6.1,2.9-9.6c0.7-1.5,0.1-1.5-0.6-0.3c-1.7,3.2-3.3,6.1-3.2,9.9c0.2,7.3,6.9,10.3,11.4,5.7c4.5-4.4,6-8.3,10.4-12.5
				c4.2-4,9.1-5.8,13-6.9c0.3,0.7,0.9,2.4,1,2.6c0.2,0.6,0.6-0.2,0.7-0.7c0.1-0.7,0.1-1.8-0.1-2.4c1.1-0.3,4.9-1.1,6.2-1.3
				c0.6-0.2,2.5-4.2,1.5-5.2C43,41.9,38.3,36.8,35.3,37.7z"/>
			<path d="M67.1,13c-0.2,1.8-0.2,4.9-0.2,4.9s0.7,0.3,1,0.7c2.6,4.5,4.4,7.1,7.3,11C83.2,40.8,93,49.5,95.4,54.9
				c1.4,2.5,2,5.1,1.9,7c0,0.9,0.1,0.9,0.4,0.4c0.2-0.7,1.2-3.4,0.3-8c-1.5-8.1-12.8-17.8-20.1-27.1c-1.7-2.1-3-4-4.3-6
				c-0.3-0.4-0.5-0.8,0-0.6c0.8,0.3,1.7,0.6,2.5,0.9c1,0.4,0.9-0.3-0.2-1.4C71.7,16.7,69.5,14.9,67.1,13z"/>
			<path d="M97.1,9.6c-0.6,1.2-1.8,3.6-2,4.2c0.5,0.6,0.6,1,0.7,1.4c0.1,1.9,0.3,4.1,0.4,6c0.9,11.1,4.3,28.7,4.4,38.6
				c-3.2,6.6-10.9,10.8-15.8,14.4c-1.4,0.8-2.4,1.5-0.6,1c2.5-0.6,9-2.5,10.9-3.9c0.4-0.4,4.2-2.5,6.5-8.8c0.3-0.9,1-3.4,1.3-5.6
				c1.6-10.9-3.2-27.6-3.5-36.2c0-0.7,0.3-0.4,0.3-0.4s1.4,1.6,1.9,2.2c0.5,0.6,0.9,0,0.3-1.5c-1.1-3-3.4-8.2-4.5-11.3
				C97.3,9.5,97.2,9.3,97.1,9.6z"/>
			<path d="M230.6,53.7c-1.2-0.2-4.4,0.5-4.8-0.5c0.2-0.6,0.8-1.4,1.8-1.6C228.5,51.6,229.5,52.2,230.6,53.7z M236.6,58.6
				c-0.1-2.9-0.9-6.4-3.6-9.4c-3.5-3.9-6.8-2.1-8.3,0.4c-2.4,3.4-1.9,6.5-0.7,8.1c1.9,2.5,6.2,0.1,8.9,1.3c0.8,0.4,1.9,1.5,2.1,2.4
				c-1.3,1.9-12.7,8.3-14.5-1.2c-0.5-2-1-7.5-1.2-8.9c-0.5-4.2-3.7-37.2-5.6-41.5c-0.7,1.2-1.5,3.2-1.8,4.6
				c1,10.6,3.1,26.5,3.9,37.4c0.1,0.8,0.3,4.2,0.2,4.9c-0.6,1.9-14.5,14.9-23.8,15.6c-3.5,0.3-8.1-1.1-9.8-4.6
				c-1.5-3.3-0.8-6.8,0.5-11.2c0.8-2.5-0.1-2.6-0.7-0.7c-1.9,4.8-2.8,9.7-1.8,13.7c1.3,5.3,5.9,8.1,11.1,7.5
				c7.4-0.7,16.6-7.4,22.8-13.9c1.4-1.4,1.9-3.7,2.3-5.9c0.2-0.8,0.2-1.1,0.3-0.6c0.1,1.9,0.7,6,1.1,7.5c2.7,10.9,14.8,4.1,16.9,1.3
				C236,64.5,236.7,61.3,236.6,58.6z"/>
			<path d="M204,45.8c0-7.6-2.2-15.4-2.9-23.8c0-0.3-0.1-1.3,0.1-1.6c0.2,0,1.2,1.4,1.7,2.1c0.6,0.8,0.9-0.2,0.4-1.8
				c-0.3-1-3.9-10.5-4.3-11.1c-0.4,0.4-2,3.9-2.2,4.3c0.5,0.7,0.5,0.8,0.6,1.3c1.1,16.9,3.1,21,4.1,37.1c-2.8,3.4-16.7,6.6-19.6,9
				c-5.2,3.4-8.2,8.6-12.1,11.7c-3.9,3.2-8.2,1-8.1-3.7c0.1-2.8,2.4-6.6,3.5-8.5c0.7-1.3,0.3-1.4-0.4-0.4c-1,1.6-3.6,5.5-3.9,8.9
				c-0.7,6.1,4.4,10.8,9.3,7.8c3.4-2.4,6.3-6.3,9.7-9.8c3.7-4.4,16.6-6.2,20.6-10C204.1,54.4,204,46.9,204,45.8z"/>
			<path d="M157.7,47.3c0.7,4.3,4.4,10.4,8.4,10.7c3.7-0.4,11.2-6,12.2-7.1c-0.1,1-0.7,2.9-1.4,4.1c-2.4,2.8-9.3,7.5-13.8,8.4
				c-5.9,0.9-9.9-2.5-11.6-8.2c-2.1-9-1.8-31-4.9-41.8c0.4-1,1.2-2.6,1.8-4.1c0.1-0.3,0.2-0.1,0.3,0c3,8.3,3.9,30.7,4.9,39.6
				c0.9,8.2,5.2,9.6,5.2,9.6c-2.9-3.3-4.7-8.1-2.2-12.6c3.5-6.1,11.5-5.7,15.8-2c0.4,0.4,0.8,0.8,0.9,1c0.2,0.3,0.4,0.7,0,0.6
				c-0.4-0.3-1.6-0.6-2-0.7C167,43.9,160.8,45.3,157.7,47.3"/>
			<path d="M145.8,57.4c0-2.6-1-5.8-4.2-9.2c-0.7,2.4-0.9,3.7-1.2,4.9c1.1,1.4,3.5,4.4,3.7,5.4c-1.4,1.3-6,4.3-9.1,1.7
				c-1.4-1-2.8-4.6-3.7-6.4c-0.9-1.6-2-2.2-3.4-1.5c-2.9,1.5-4.7,4.8-5.3,5.9c-1.9,3.4-2.5,6.9-3.5,9.1c-1.8,4-5,3.1-6.4,0.5
				c-1.4-2.5-2.1-7.4-2.2-8.9c0-1.4-0.9-2.1-0.8,0.5c0.1,5,1.1,8.3,1.9,10.3c1,2.5,4.5,6.3,7.5,1.8c1.8-2.6,2.2-6.6,4.7-10.7
				c2.5-3.7,4.9-4.5,5.8-3.1c0.6,0.7,1.9,4.6,3,6c2.2,3.4,8.6,3,11.8-0.8C144.9,62.4,145.8,60,145.8,57.4z"/>
			<path d="M115.8,20.1c0.6,1.9,0.2,2.4-0.3,1.8c-0.7-0.8-1.5-1.9-2.2-2.5c-0.1,0.2-0.1,0.7-0.1,1.1c1.4,15.2,2.9,20.8,3.4,33.7
				c0,4.1-0.4,7.5-1.7,10.9c-0.5,1.1-0.8,1.4-0.8,0.6c0-2.6-0.4-9.3-0.5-10.9c-0.9-13.4-2.9-23.2-3.8-39.1c0-0.5-0.1-1.3-0.1-1.7
				c-0.2-0.6-0.2-0.5-0.5-1c0.2-0.3,1.4-2.5,2-3.7c0.2-0.4,0.4-0.5,0.5,0C112.9,12.5,115.3,18.5,115.8,20.1z"/>
			<path d="M264.4,59.9c-2.4,3.4-8.1,6.6-12,7.2c-0.7,0.1-5.3,0.5-6.7-4.2c-1.2-2.9-1.7-15.9-2.2-21.9c0-0.4,0.2-0.3,0.6,0
				C251.7,46.9,261.4,53.3,264.4,59.9z M286.4,53.9c-1.5,7.6-9.3,9.1-13.9,2.6c-8.2-11.7-23-16.6-27-19.1c0-0.1,0.5-0.5,0.8-0.8
				c5.4-4.2,21.8-13.2,30-15.8c2.2-0.9,4.8-0.3,4,1.9c-2,2.3-6.2,7.3-7.4,10c-0.5,1.2-0.5,2,0.5,0.4c2-3.4,4.5-5.2,7.3-9.6
				c2.5-3.4,2.7-8.8-2-7.6c-7.6,1.5-31.3,14.1-34.1,18c-0.4,0.7-1.1,2.5-1.3,2.8c-0.2,0.4-0.3,0.4-0.4-0.3
				c-0.2-2.4-2.4-21.9-4.1-26.3l-2.2,4.2c1.9,7.6,4.1,34.4,4.5,40.5c0.3,4.8,0.6,8.9,1.1,10.4c1,4.6,3.8,7.3,8.2,7.2
				c3.5-0.2,8.8-2.7,12.9-6.4c1.4-1.3,2.3-3.4,2.3-6.7c-0.4-4.3-2.8-6.5-3.6-7.6c-0.2-0.2-0.4-0.3,0-0.1c4.3,2.2,9.7,10.6,11.4,11.9
				c3.8,3.4,9.2,2.1,11.7-1.5c1-1.1,2-4.6,1.7-6.6C286.9,54.7,286.7,54,286.4,53.9z"/>
			<g>
				<path class="st0" d="M86.2,61.3c-1,0-1.7-1.4-1.5-2.3c0.3-1.7,1.3-3.5,1.9-5c0.4-0.9,0.5-2.3-0.5-0.2c-0.7,1.2-1.7,3.1-2.4,5.1
					c-0.3,0.9-0.5,1.9-0.3,2.7c0.2,1.4,1.5,2.8,2.8,1.4c0.7-0.7,1.1-1.9,1.3-2.7c0.2-0.8,0.2-0.7-0.4-0.2
					C86.9,60.4,86.6,61,86.2,61.3"/>
				<path class="st0" d="M41.8,64.1c1.3,0.3,1.9,2.2,1.5,3.4c-0.8,2.2-2.4,4.2-3.6,6.1c-0.7,1.1-1.2,2.9,0.6,0.4
					c1.1-1.5,2.9-3.6,4.2-6c0.7-1.1,1-2.3,1.1-3.4c0.1-1.9-1.3-3.9-3.4-2.4c-1.1,0.8-1.8,2.2-2.3,3.2c-0.5,1-0.4,0.9,0.4,0.4
					C40.7,65.2,41.2,64.5,41.8,64.1"/>
				<path class="st0" d="M90.2,31c-1,0-1.8-1.3-1.6-2.3c0.2-1.7,1.1-3.5,1.7-5.1c0.3-0.9,0.4-2.3-0.5-0.2c-0.6,1.3-1.5,3.2-2.1,5.2
					c-0.3,1-0.4,1.9-0.2,2.7c0.3,1.4,1.7,2.7,2.9,1.2c0.6-0.8,1-1.9,1.2-2.7c0.2-0.8,0.1-0.8-0.4-0.2C90.8,30,90.6,30.5,90.2,31"/>
				<path class="st0" d="M16.2,26.9c0.4-1.4,1.1-2.9,2.5-2.4c0.9,0.3,2.6,1.8,3,2.9c0.1,0.5-0.2,1.2-0.5,2.1
					c-1.4-0.3-4.8,1.6-4.9,1.9c-0.1,0.9,4.1,9.3,3.3,15.2c-0.1,1-0.5,1.8-0.5,0.6c0-5.1-1.5-8-3.1-13.1c-0.5-1.6-0.5-3.7,0.7-4.8
					c0.7-0.7,1.5-1.2,3.1-1.5c-1.3-1.3-2.4-1.6-3.1-0.3C16.1,28.2,15.8,27.9,16.2,26.9"/>
				<path class="st0" d="M14.7,19.6c-0.5-0.4-2.2-1.3-2.6-1.3c0-0.2,0-1.6,0.3-2.3c0.3-0.7,0.7-0.7,1.5-0.2c1.8,1.1,3,3.1,3.9,5.5
					c0.3,0.9,0.2,0.6,0.2-0.4c0.1-1.9,0.1-4,1.1-5.7c0.9-1.6,2.4-1.5,3.3,0.2l-0.6,1.8c-0.2-0.5-0.9-1-1.4-1.1
					c-1.7-0.3-1.7,3.4-1.8,4.4c-0.1,1.4-0.1,2.7-0.7,3.9c-0.1,0.3-0.4,0.2-0.5-0.2C16.6,21.8,16,20,15,19.1
					C14.8,19.2,14.9,19.2,14.7,19.6"/>
				<path class="st0" d="M54.7,18.4c-0.5-0.4-2.2-1.3-2.6-1.3c0-0.2,0-1.6,0.3-2.3c0.3-0.7,0.7-0.7,1.5-0.2c1.8,1.1,3,3.1,3.9,5.5
					c0.3,0.9,0.2,0.6,0.2-0.4c0.1-1.9,0.1-4,1.1-5.7c0.9-1.6,2.4-1.5,3.3,0.2L61.8,16c-0.2-0.5-0.9-1-1.4-1.1
					c-1.7-0.3-1.7,3.4-1.8,4.4c-0.1,1.4-0.1,2.7-0.7,3.9c-0.1,0.3-0.4,0.2-0.5-0.2c-0.8-2.5-1.5-4.2-2.5-5.1
					C54.8,18,54.9,18,54.7,18.4"/>
				<path class="st0" d="M121.3,17.5c-0.5-0.4-2.2-1.3-2.6-1.3c0-0.2,0-1.6,0.3-2.3c0.3-0.7,0.7-0.7,1.5-0.2c1.8,1.1,3,3.1,3.9,5.5
					c0.3,0.9,0.2,0.6,0.2-0.4c0.1-1.9,0.1-4,1.1-5.7c0.9-1.6,2.4-1.5,3.3,0.2l-0.6,1.8c-0.2-0.5-0.9-1-1.4-1.1
					c-1.7-0.3-1.7,3.4-1.8,4.4c-0.1,1.4-0.1,2.7-0.7,3.9c-0.1,0.3-0.4,0.2-0.5-0.2c-0.8-2.5-1.5-4.2-2.5-5.1
					C121.4,17.1,121.4,17.1,121.3,17.5"/>
				<path class="st0" d="M85.8,13.7l-0.7,0.9c0-0.4-0.2-0.8-0.5-1.1c-0.6-0.6-1.9-0.1-2.7,0.7c0.5,1.1,3,1.7,4.2,1.2
					c1.5-0.6,1.9-0.9,2.7-1.3L88,16.2c-3,1.5-4.7,2.3-7.9,4.1c0,0,0.2-1,0.7-2.1c0.6-0.4,2-1.1,2-1.1c-0.8-0.3-2.2-0.8-2.5-1.7
					c-0.5-1.5,3.7-5.7,5-4.2C85.8,11.8,86,13,85.8,13.7"/>
				<path class="st0" d="M69.1,26.2c-8.9,3.7-8.9,3.6-14.4,6.1c-0.4,0.3-1.2,1.9-1.4,2.3c-0.1,0.1,0,0.2,0.1,0.1
					c0.1-0.1,0.2-0.3,0.4-0.4c3.5-1.9,9-3.9,13.9-5.9L69.1,26.2z"/>
				<path class="st0" d="M7.7,52.7c-1.8,0-3.3-2.3-3.1-4.2c0.4-3.2,2-6.5,3-9.5c0.6-1.7,0.8-4.3-0.9-0.4C5.6,41,4,44.5,2.8,48.2
					c-0.5,1.8-0.7,3.5-0.4,5c0.5,2.6,3.1,5,5.4,2.2c1.2-1.4,1.8-3.5,2.1-5c0.3-1.5,0.2-1.4-0.7-0.4C8.8,50.9,8.4,51.9,7.7,52.7"/>
				<path class="st0" d="M214.9,76c-1,0-1.7-1.2-1.6-2.2c0.2-1.7,1.1-3.4,1.6-5c0.3-0.9,0.4-2.2-0.5-0.2c-0.6,1.2-1.5,3.1-2,5
					c-0.3,0.9-0.3,1.8-0.2,2.6c0.3,1.3,1.6,2.6,2.8,1.2c0.6-0.7,1-1.8,1.1-2.6c0.2-0.8,0.1-0.7-0.4-0.2
					C215.5,75,215.3,75.6,214.9,76"/>
				<path class="st0" d="M238.1,70.4c0.9,0.3,1.3,1.7,0.9,2.6c-0.7,1.5-2,2.9-3,4.2c-0.6,0.8-1.1,2,0.4,0.3c0.9-1,2.3-2.5,3.5-4.1
					c0.5-0.8,0.9-1.6,1-2.4c0.2-1.4-0.7-3-2.3-2c-0.8,0.5-1.5,1.5-1.9,2.2c-0.4,0.7-0.3,0.7,0.3,0.3
					C237.3,71.1,237.6,70.7,238.1,70.4"/>
				<path class="st0" d="M180.1,20c-1.2,0-2.2-1.6-2-2.7c0.3-2.1,1.3-4.3,2-6.3c0.4-1.1,0.5-2.8-0.6-0.3c-0.7,1.6-1.8,3.9-2.6,6.3
					c-0.4,1.2-0.4,2.3-0.2,3.3c0.3,1.7,2,3.3,3.5,1.5c0.8-0.9,1.2-2.3,1.4-3.3c0.2-1,0.1-0.9-0.5-0.3
					C180.8,18.8,180.5,19.5,180.1,20"/>
				<path class="st0" d="M139.8,22.3c-1.2,0-2.2-1.6-2-2.7c0.3-2.1,1.3-4.3,2-6.3c0.4-1.1,0.5-2.8-0.6-0.3c-0.7,1.6-1.8,3.9-2.6,6.3
					c-0.4,1.2-0.4,2.3-0.2,3.3c0.3,1.7,2,3.3,3.5,1.5c0.8-0.9,1.2-2.3,1.4-3.3c0.2-1,0.1-0.9-0.5-0.3
					C140.5,21.1,140.3,21.8,139.8,22.3"/>
				<path class="st0" d="M35.5,27.6c-1.4,0-2.6-1.9-2.4-3.3c0.3-2.6,1.6-5.2,2.4-7.5c0.5-1.4,0.6-3.4-0.8-0.3
					c-0.9,1.9-2.2,4.7-3.1,7.6c-0.4,1.4-0.5,2.8-0.3,4c0.4,2,2.4,3.9,4.3,1.8c0.9-1.1,1.4-2.8,1.7-4c0.2-1.2,0.2-1.1-0.6-0.3
					C36.3,26.2,36,27,35.5,27.6"/>
				<path class="st0" d="M273.2,74.6c-1-0.1-1.7-1.6-1.5-2.6c0.5-1.8,1.6-3.6,2.4-5.2c0.5-1,0.8-2.4-0.5-0.3c-0.8,1.3-2,3.2-2.9,5.2
					c-0.4,1-0.6,2-0.6,2.8c0.1,1.5,1.4,3.1,2.9,1.7c0.8-0.7,1.3-1.9,1.6-2.7c0.3-0.9,0.2-0.8-0.4-0.3
					C273.9,73.7,273.7,74.2,273.2,74.6"/>
				<path class="st0" d="M105.2,74.5c-0.8,0-1.4-1-1.3-1.7c0.1-1.4,0.8-2.8,1.2-4.1c0.2-0.7,0.3-1.8-0.4-0.2c-0.4,1-1.1,2.5-1.6,4.1
					c-0.2,0.8-0.2,1.5-0.1,2.1c0.2,1.1,1.4,2.1,2.3,0.9c0.5-0.6,0.7-1.5,0.9-2.2c0.1-0.7,0.1-0.6-0.3-0.2
					C105.6,73.7,105.4,74.1,105.2,74.5"/>
				<path class="st0" d="M193.2,21c-8.4,3-26.9,10.3-34.5,13.4c-0.6,0.6-1.3,2-1.5,2.6c-0.1,0.1,0,0.1,0.1,0.1
					c0.1-0.1,0.2-0.2,0.4-0.3c4.4-2.1,30-12,34.1-13.4L193.2,21z"/>
				<path class="st0" d="M288.7,28.2c-8.2,3.3-15,6.4-22.4,9.9c-0.5,0.6-1.2,2.1-1.4,2.7c-0.1,0.1,0,0.1,0.1,0.1
					c0.1-0.1,0.2-0.2,0.4-0.3c4.3-2.3,18-8.2,22.1-9.9L288.7,28.2z"/>
				<path class="st0" d="M268.2,8.7c-8.1,3.6-14.7,6.9-22,10.7c-0.5,0.7-1.1,2.1-1.3,2.7c-0.1,0.1,0,0.1,0.1,0.1
					c0.1-0.1,0.2-0.2,0.4-0.3c4.2-2.5,17.7-8.9,21.7-10.7L268.2,8.7z"/>
				<path class="st0" d="M144.8,36.4c-8.3,3.2-15.1,6.1-22.6,9.5c-0.6,0.6-1.2,2.1-1.5,2.6c-0.1,0.1,0,0.1,0.1,0.1
					c0.1-0.1,0.2-0.2,0.4-0.3c4.3-2.2,18.2-7.9,22.2-9.5L144.8,36.4z"/>
				<path class="st0" d="M184.7,40.2c-0.5-0.4-2.1-1.3-2.6-1.3c0-0.2,0-1.6,0.3-2.3c0.3-0.7,0.7-0.7,1.5-0.2c1.8,1.1,3,3.1,3.9,5.5
					c0.3,0.9,0.2,0.6,0.2-0.4c0.1-1.9,0.1-4,1.1-5.7c0.9-1.6,2.4-1.5,3.3,0.2l-0.6,1.8c-0.2-0.5-0.9-1-1.4-1.1
					c-1.7-0.3-1.7,3.4-1.8,4.4c-0.1,1.4-0.1,2.7-0.7,3.9c-0.1,0.2-0.4,0.2-0.5-0.2c-0.8-2.5-1.5-4.2-2.5-5.1
					C184.8,39.8,184.9,39.8,184.7,40.2"/>
				<polygon class="st0" points="227.5,32.9 224.7,36.7 229.2,40.1 232,36.3 				"/>
				<polygon class="st0" points="281.4,41.7 278.6,45.6 283.1,48.9 285.9,45.2 				"/>
				<polygon class="st0" points="148.1,68.3 145.3,72.2 149.8,75.5 152.6,71.8 				"/>
				<polygon class="st0" points="122.7,29.4 120,33.3 124.5,36.6 127.3,32.8 				"/>
				<polygon class="st0" points="72.9,68.9 70.2,72.8 74.7,76.1 77.5,72.2 				"/>
				<polygon class="st0" points="274.1,42.1 271.4,46 275.9,49.3 278.7,45.6 				"/>
				<polygon class="st0" points="140.8,68.8 138.1,72.6 142.6,76 145.4,72.2 				"/>
				<polygon class="st0" points="63.2,39.7 60.8,43.8 65.5,46.8 68,42.8 				"/>
				<polygon class="st0" points="56,40.6 53.6,44.7 58.3,47.7 60.8,43.8 				"/>
				<polygon class="st0" points="130,28.9 127.3,32.8 131.8,36.1 134.5,32.3 				"/>
				<polygon class="st0" points="65.6,69.4 62.9,73.3 67.5,76.6 70.2,72.8 				"/>
				<path class="st0" d="M227.9,17.2L227.9,17.2c0.5-1.8-0.3-4.3-2.3-3.2c-0.5,0.3-0.8,0.5-0.4,1.1C225.7,16,227.5,16.8,227.9,17.2
					 M227,19.3c-1.2-0.8-3.1-1.5-3.3-3.1c-0.2-1.6,1.6-3.8,3-4.4c2.4-1,3.8,2,2.1,5.9c0.5,0.3,0.8,0.6,1,1c0.4,0.8,0.1,1.5-0.2,2.6
					c-0.3-0.6-0.8-1.1-1.8-1.7c-3.7,6.5-10.5,10.9-15.7,14.4c-2.7,1.8-2.7,1.3-0.6-0.5C217,28.9,223,25.2,227,19.3z"/>
				<path class="st0" d="M227.9,17.2L227.9,17.2c0.5-1.8-0.3-4.3-2.3-3.2c-0.5,0.3-0.8,0.5-0.4,1.1C225.7,16,227.5,16.8,227.9,17.2
					 M227,19.3c-1.2-0.8-3.1-1.5-3.3-3.1c-0.2-1.6,1.6-3.8,3-4.4c2.4-1,3.8,2,2.1,5.9c0.5,0.3,0.8,0.6,1,1c0.4,0.8,0.1,1.5-0.2,2.6
					c-0.3-0.6-0.8-1.1-1.8-1.7c-3.7,6.5-10.5,10.9-15.7,14.4c-2.7,1.8-2.7,1.3-0.6-0.5C217,28.9,223,25.2,227,19.3z"/>
				<path class="st0" d="M227.9,17.2L227.9,17.2c0.5-1.8-0.3-4.3-2.3-3.2c-0.5,0.3-0.8,0.5-0.4,1.1C225.7,16,227.5,16.8,227.9,17.2
					 M227,19.3c-1.2-0.8-3.1-1.5-3.3-3.1c-0.2-1.6,1.6-3.8,3-4.4c2.4-1,3.8,2,2.1,5.9c0.5,0.3,0.8,0.6,1,1c0.4,0.8,0.1,1.5-0.2,2.6
					c-0.3-0.6-0.8-1.1-1.8-1.7c-3.7,6.5-10.5,10.9-15.7,14.4c-2.7,1.8-2.7,1.3-0.6-0.5C217,28.9,223,25.2,227,19.3z"/>
				<path class="st0" d="M227.9,17.2L227.9,17.2c0.5-1.8-0.3-4.3-2.3-3.2c-0.5,0.3-0.8,0.5-0.4,1.1C225.7,16,227.5,16.8,227.9,17.2
					 M227,19.3c-1.2-0.8-3.1-1.5-3.3-3.1c-0.2-1.6,1.6-3.8,3-4.4c2.4-1,3.8,2,2.1,5.9c0.5,0.3,0.8,0.6,1,1c0.4,0.8,0.1,1.5-0.2,2.6
					c-0.3-0.6-0.8-1.1-1.8-1.7c-3.7,6.5-10.5,10.9-15.7,14.4c-2.7,1.8-2.7,1.3-0.6-0.5C217,28.9,223,25.2,227,19.3z"/>
				<path class="st0" d="M227.9,17.2L227.9,17.2c0.5-1.8-0.3-4.3-2.3-3.2c-0.5,0.3-0.8,0.5-0.4,1.1C225.7,16,227.5,16.8,227.9,17.2
					 M227,19.3c-1.2-0.8-3.1-1.5-3.3-3.1c-0.2-1.6,1.6-3.8,3-4.4c2.4-1,3.8,2,2.1,5.9c0.5,0.3,0.8,0.6,1,1c0.4,0.8,0.1,1.5-0.2,2.6
					c-0.3-0.6-0.8-1.1-1.8-1.7c-3.7,6.5-10.5,10.9-15.7,14.4c-2.7,1.8-2.7,1.3-0.6-0.5C217,28.9,223,25.2,227,19.3z"/>
				<path class="st0" d="M227.9,17.2L227.9,17.2c0.5-1.8-0.3-4.3-2.3-3.2c-0.5,0.3-0.8,0.5-0.4,1.1C225.7,16,227.5,16.8,227.9,17.2
					 M227,19.3c-1.2-0.8-3.1-1.5-3.3-3.1c-0.2-1.6,1.6-3.8,3-4.4c2.4-1,3.8,2,2.1,5.9c0.5,0.3,0.8,0.6,1,1c0.4,0.8,0.1,1.5-0.2,2.6
					c-0.3-0.6-0.8-1.1-1.8-1.7c-3.7,6.5-10.5,10.9-15.7,14.4c-2.7,1.8-2.7,1.3-0.6-0.5C217,28.9,223,25.2,227,19.3z"/>
				<path class="st0" d="M227.9,17.2L227.9,17.2c0.5-1.8-0.3-4.3-2.3-3.2c-0.5,0.3-0.8,0.5-0.4,1.1C225.7,16,227.5,16.8,227.9,17.2
					 M227,19.3c-1.2-0.8-3.1-1.5-3.3-3.1c-0.2-1.6,1.6-3.8,3-4.4c2.4-1,3.8,2,2.1,5.9c0.5,0.3,0.8,0.6,1,1c0.4,0.8,0.1,1.5-0.2,2.6
					c-0.3-0.6-0.8-1.1-1.8-1.7c-3.7,6.5-10.5,10.9-15.7,14.4c-2.7,1.8-2.7,1.3-0.6-0.5C217,28.9,223,25.2,227,19.3z"/>
				<path class="st0" d="M34.3,65.1c-9.1,3.8-11.4,4.3-16.8,7c-0.4,0.3-1,1.6-1.2,2c-0.1,0.1,0,0.2,0,0.1c0.1-0.1,0.1-0.2,0.4-0.3
					c3.5-1.9,11.7-4.7,16.4-6.8L34.3,65.1z"/>
				<path class="st0" d="M135,70.2c-9.3,4.2-8.5,3.4-14.6,6.4c-0.4,0.3-1.1,1.6-1.3,2.1c-0.1,0.1,0,0.2,0,0.1
					c0.1-0.1,0.1-0.2,0.4-0.3c3.5-1.9,9.5-4.1,14.2-6.2L135,70.2z"/>
				<path class="st0" d="M227.9,17.2L227.9,17.2c0.5-1.8-0.3-4.3-2.3-3.2c-0.5,0.3-0.8,0.5-0.4,1.1C225.7,16,227.5,16.8,227.9,17.2
					 M227,19.3c-1.2-0.8-3.1-1.5-3.3-3.1c-0.2-1.6,1.6-3.8,3-4.4c2.4-1,3.8,2,2.1,5.9c0.5,0.3,0.8,0.6,1,1c0.4,0.8,0.1,1.5-0.2,2.6
					c-0.3-0.6-0.8-1.1-1.8-1.7c-3.7,6.5-10.5,10.9-15.7,14.4c-2.7,1.8-2.7,1.3-0.6-0.5C217,28.9,223,25.2,227,19.3z"/>
				<path class="st0" d="M158.6,10.7l0.2,2.5c3.9,2.5,7.5,8.5,6.5,13.2c0,0.3,0.3,0.5,0.6-0.6C167.3,20.3,163.6,12.8,158.6,10.7"/>
				<path class="st0" d="M73.1,40.7c-0.3,0.5-0.8,1.6-0.4,2c0.5,0.5,2,0.2,2.4-0.3c0.1-0.1,0.1-0.1,0-0.3
					C74.7,41.7,73.6,40.9,73.1,40.7 M73.3,38.1c0.2-0.7,0.6-0.4,0.5,0.1c0,0.3-0.2,0.9-0.3,1.1c1.9,1,3,1.7,2.2,3.9
					c-0.5,1.3-3.1,2.2-3.9,0.6C71.1,42.2,72.6,40.2,73.3,38.1z"/>
			</g>
		</g>
	</g>
	<g>
		<g>
			<g>
				<g>
					<g>
						<g>
							<path class="st1" d="M369.6,38.9l-5.1-32.2c0,0-0.4-4.2-5.1-3.8c-4.7,0.4-4.3,4.2-4.1,6.2c0.2,2,4.4,24.7,4.4,24.7
								L369.6,38.9z"/>
							<path class="st1" d="M357.8,33l-5.3-27c0,0-0.7-6.4-4.1-6c-2.9,0.4-5.7,1.1-5.5,5.7c0.2,4.6,7.3,32.1,7.3,32.1
								S350.7,31.5,357.8,33z"/>
							<path class="st1" d="M345.4,31c0,0,5.5,17.2,5.6,18.1c0.1,0.9,1,4.1-3.4,5.2c-4.4,1.1-6.3-6.1-6.3-6.1l-3.8-11.4
								c0,0-2.2-4.9,3.5-6.9C341,29.9,344.5,28.6,345.4,31z"/>
							<path class="st1" d="M334.3,39.2l7.4,15.6c0,0,1.2,2.5-2.9,3.4c0,0-2.6,0-4.3-2.4c-1.7-2.4-6-11.3-6-11.3
								S328.1,37.5,334.3,39.2z"/>
							<path class="st1" d="M358.4,35.9l11.7,5.8l7.6,11.8c0,0,3.2,3.6,0.5,8.7c-2.8,5-9.4,17.5-9.4,17.5l1.4,15.5l-30.7-0.3
								l0.1-15.3c0,0,3.8,3,9.6,4.3c0,0-10.6-5.6-13.1-9.2c-3.5-5.1-4.7-18.8-4.4-21.1c0,0,3.4,8.9,9.2,7.6c3.9-0.9,2.9-3.2,5.8-3
								c2.9,0.2,9.5-2.5,7.9-8.1c0,0-1.8-5.8-2.8-7c0,0,7.6,4.4,8.7,5.5c1.1,1.1,1.8,5,0.1,9.4c0,0,1.9-0.8,2.5-2.6
								c0.3-1.1,2.1-6.6,2.1-6.6l-10.1-5.6c0,0-2.2-2.3-1.4-4.8C354.3,35.7,357.3,35.5,358.4,35.9z"/>
						</g>
					</g>
				</g>
			</g>
			<g>
				<g>
					<g>
						<g>
							<path class="st2" d="M421.3,104.9c-17-4.9-40.5-7.9-66.4-7.9c-26,0-49.4,3-66.4,7.9c17-8.2,40.5-13.3,66.4-13.3
								C380.8,91.7,404.3,96.7,421.3,104.9z"/>
						</g>
					</g>
				</g>
			</g>
			<g>
				
					<radialGradient id="SVGID_1_" cx="342.6111" cy="70.3938" r="18.5357" gradientTransform="matrix(1.0773 0 0 1 -16.2706 0)" gradientUnits="userSpaceOnUse">
					<stop  offset="0" style="stop-color:#4D5B87"/>
					<stop  offset="1" style="stop-color:#1B3764"/>
				</radialGradient>
				<path class="st3" d="M348.7,63C348.7,63,348.7,63,348.7,63c-2,0.3-4,0.8-5.9,1.5c-0.2,0.1-0.4,0.1-0.5,0.2
					c-0.2,0.1-0.3,0.1-0.5,0.2c-1.9,0.8-3.7,1.7-5.2,3c0.5-0.3,1-0.6,1.4-0.8c0.2-0.1,0.3-0.1,0.5-0.2c0.5-0.2,0.9-0.3,1.4-0.5
					c1.3-0.5,2.5-1,3.7-1.5c0.9-0.4,1.8-0.7,2.7-0.9c0.7-0.2,1.5-0.3,2.3-0.4c0.2,0,0.3-0.1,0.3-0.2C349,63.2,348.9,63.1,348.7,63z"
					/>
				
					<radialGradient id="SVGID_00000091725949299066035450000017163081958670348456_" cx="342.6111" cy="70.3938" r="18.5357" gradientTransform="matrix(1.0773 0 0 1 -16.2706 0)" gradientUnits="userSpaceOnUse">
					<stop  offset="0" style="stop-color:#4D5B87"/>
					<stop  offset="1" style="stop-color:#1B3764"/>
				</radialGradient>
				<path style="fill:url(#SVGID_00000091725949299066035450000017163081958670348456_);" d="M366.4,72.2
					C366.4,72.2,366.4,72.1,366.4,72.2c-0.6-1.1-1.2-2.2-1.9-3.3c-0.7-1.1-1.6-2.1-2.6-3c-0.1-0.1-0.2-0.1-0.3-0.2
					c-0.5-0.1-0.8-0.4-1-0.8c-0.1-0.2-0.1-0.4-0.2-0.6c-0.1-0.3-0.3-0.3-0.7-0.3c-0.1,0-0.3,0.1-0.4,0.1c0-0.1,0-0.1,0-0.1
					c-0.1-0.5-0.4-0.9-0.8-1.2c-0.3-0.3-0.7-0.5-1.1-0.6c-1-0.4-2-0.6-3.1-0.8c-0.1,0-0.1,0-0.2,0c-0.3,0.3-0.7,0.5-1.1,0.7
					c0.2,0,0.3,0,0.5,0c1,0,2.1,0.1,3,0.5c0.5,0.2,1,0.4,1.4,0.8c0.1,0.1,0.2,0.2,0.2,0.2c0,0,0,0,0,0.1c-0.1,0-0.2,0-0.3,0
					c-0.2,0-0.4-0.1-0.6-0.1c-0.3-0.1-0.7-0.1-1-0.2c-0.1,0-0.3,0-0.4,0c-0.1,0-0.2,0.1-0.1,0.2c0.1,0.1,0.2,0.2,0.3,0.3
					c1,0.2,1.9,0.6,2.8,1c2.1,1,3.7,2.4,4.9,4.2c0.2,0.2,0.3,0.5,0.5,0.7c0.9,1,1.3,2.1,1.4,3.3C365.8,72.7,366.1,72.4,366.4,72.2z"
					/>
				
					<radialGradient id="SVGID_00000016788566581680483630000006633613591527775646_" cx="342.6111" cy="70.3938" r="18.5357" gradientTransform="matrix(1.0773 0 0 1 -16.2706 0)" gradientUnits="userSpaceOnUse">
					<stop  offset="0" style="stop-color:#4D5B87"/>
					<stop  offset="1" style="stop-color:#1B3764"/>
				</radialGradient>
				<path style="fill:url(#SVGID_00000016788566581680483630000006633613591527775646_);" d="M372.4,62.3c0.1-0.3,0.3-0.5,0.5-0.7
					c0-0.1-0.1-0.1-0.1-0.2c-0.1-0.2-0.1-0.4-0.3-0.6c-0.9-1-1.9-1.9-2.8-2.8c-1-0.9-2-1.7-3.3-2.3c-0.1,0-0.1-0.1-0.1-0.1
					c-0.2-0.2-0.5-0.4-0.7-0.6c-0.1,0.1-0.1,0.2-0.2,0.3c0,0.2-0.1,0.3-0.1,0.5c0.7,0.5,1.4,0.9,2.1,1.4c1.1,0.8,2.2,1.6,3.1,2.5
					c0.6,0.6,1.1,1.1,1.5,1.8C372.2,61.7,372.3,62,372.4,62.3z"/>
				
					<radialGradient id="SVGID_00000070085864578581996140000006438134757128358303_" cx="342.6111" cy="70.3938" r="18.5357" gradientTransform="matrix(1.0773 0 0 1 -16.2706 0)" gradientUnits="userSpaceOnUse">
					<stop  offset="0" style="stop-color:#4D5B87"/>
					<stop  offset="1" style="stop-color:#1B3764"/>
				</radialGradient>
				<path style="fill:url(#SVGID_00000070085864578581996140000006438134757128358303_);" d="M366.9,68.9c0.3,0.9,0.5,1.8,0.5,2.7
					c0,0,0.1,0,0.1,0c0-0.5,0.1-0.9,0.3-1.3c-0.1-0.4-0.2-0.8-0.4-1.1c-0.3-0.9-0.7-1.7-1.2-2.6c-0.7-1.1-1.5-2.3-2.5-3.2
					c-0.3-0.2-0.5-0.4-0.8-0.7c-1.8-1.5-3.8-2.6-6-3.6c-0.3,0.2-0.6,0.3-0.9,0.3c0.3,0.1,0.7,0.3,1,0.4c0.8,0.3,1.7,0.6,2.4,1.2
					c0,0,0.1,0,0.1,0c1,0.6,1.9,1.2,2.8,1.9c1.3,1.1,2.4,2.3,3.4,3.7C366.2,67.3,366.6,68.1,366.9,68.9z"/>
				
					<radialGradient id="SVGID_00000030479818092700283340000006433390750693533063_" cx="342.6111" cy="70.3938" r="18.5357" gradientTransform="matrix(1.0773 0 0 1 -16.2706 0)" gradientUnits="userSpaceOnUse">
					<stop  offset="0" style="stop-color:#4D5B87"/>
					<stop  offset="1" style="stop-color:#1B3764"/>
				</radialGradient>
				<path style="fill:url(#SVGID_00000030479818092700283340000006433390750693533063_);" d="M363.9,71.8c0.3,0.6,0.3,1.3,0.3,2
					c0.2-0.1,0.4-0.2,0.7-0.3c0-0.1,0-0.3,0-0.4c0-0.3,0-0.6-0.1-0.9c-0.1-0.2-0.1-0.3-0.2-0.5c-0.4-0.9-0.9-1.8-1.6-2.6
					c-0.9-1.2-2.1-2.3-3.5-3c-0.6-0.3-1.2-0.6-1.8-0.8c-0.1,0-0.2-0.1-0.3-0.1c-0.1,0-0.2,0-0.3,0c-0.3,0-0.4,0.2-0.3,0.5
					c0.1,0.2,0.2,0.3,0.4,0.4c0.2,0.1,0.4,0.2,0.7,0.3c0.9,0.2,1.8,0.6,2.5,1.1c1.1,0.8,2,1.7,2.8,2.8
					C363.3,70.7,363.6,71.2,363.9,71.8z"/>
				
					<radialGradient id="SVGID_00000124854080687706677870000012342678372410046110_" cx="342.6111" cy="70.3938" r="18.5357" gradientTransform="matrix(1.0773 0 0 1 -16.2706 0)" gradientUnits="userSpaceOnUse">
					<stop  offset="0" style="stop-color:#4D5B87"/>
					<stop  offset="1" style="stop-color:#1B3764"/>
				</radialGradient>
				<path style="fill:url(#SVGID_00000124854080687706677870000012342678372410046110_);" d="M353.7,71.6c1.3,0,2.5,0.3,3.4,1.2
					c0.3,0.3,0.6,0.7,0.6,1.2c0,0.4,0,0.8-0.2,1.1c-0.2,0.5-0.6,0.9-0.9,1.3c-0.7,0.8-1.5,1.4-2.3,2.1c-0.1,0.1-0.1,0.1-0.2,0.1
					c-0.8,0.4-1.5,0.9-2.2,1.4c-0.4,0.3-0.7,0.6-1,0.8c0.2,0,0.4,0.1,0.6,0.1c0.4-0.2,0.9-0.4,1.4-0.5c1.1-0.8,2.2-1.6,3.2-2.5
					c1-0.9,1.9-1.9,2.6-3c0.1-0.1,0.1-0.2,0.1-0.3c0.1-0.3,0-0.6,0-0.8c-0.1-0.5-0.4-1-0.8-1.4c-0.8-0.8-1.7-1.3-2.9-1.5
					c-0.4-0.1-0.8-0.2-1.3-0.1c-1.5,0.1-2.9,0.4-4.4,0.8c-1,0.3-2,0.6-3.1,0.8c-0.4,0.1-0.7,0.4-0.8,0.8c-0.1,0.2,0,0.3,0.2,0.3
					c0.1,0,0.2,0,0.3,0c0.7-0.1,1.4-0.3,2-0.7c0.1-0.1,0.3-0.2,0.4-0.2c0.1,0,0.2,0,0.2-0.1c0.9-0.3,1.8-0.5,2.7-0.7
					C352.1,71.7,352.9,71.6,353.7,71.6z"/>
				
					<radialGradient id="SVGID_00000008836038846808891790000002939347189170615483_" cx="342.6111" cy="70.3938" r="18.5357" gradientTransform="matrix(1.0773 0 0 1 -16.2706 0)" gradientUnits="userSpaceOnUse">
					<stop  offset="0" style="stop-color:#4D5B87"/>
					<stop  offset="1" style="stop-color:#1B3764"/>
				</radialGradient>
				<path style="fill:url(#SVGID_00000008836038846808891790000002939347189170615483_);" d="M371,64.6c-0.1-0.2-0.2-0.3-0.3-0.5
					c-0.9-1.6-2.1-3-3.5-4.3c-0.1-0.1-0.2-0.2-0.4-0.3c-0.4-0.3-0.8-0.5-1.2-0.8c-0.5-0.4-1.1-0.7-1.6-1.1c-0.2,0.2-0.4,0.4-0.7,0.5
					c0,0,0.1,0.1,0.1,0.1c0.1,0,0.2,0.1,0.2,0.1c1.7,1,3.3,2.1,4.6,3.5c0.8,0.9,1.6,1.9,2.1,3C370.7,64.8,370.9,64.7,371,64.6z"/>
				
					<radialGradient id="SVGID_00000063634662835777434740000004493020302807499410_" cx="342.6111" cy="70.3938" r="18.5357" gradientTransform="matrix(1.0773 0 0 1 -16.2706 0)" gradientUnits="userSpaceOnUse">
					<stop  offset="0" style="stop-color:#4D5B87"/>
					<stop  offset="1" style="stop-color:#1B3764"/>
				</radialGradient>
				<path style="fill:url(#SVGID_00000063634662835777434740000004493020302807499410_);" d="M361,71.8c-0.1-0.4-0.2-0.7-0.4-1
					c-1.1-1.2-2.4-2.2-4-2.8c-1-0.4-2-0.6-3.2-0.5c0.1,0.1,0.1,0.2,0.2,0.2c0.1,0.1,0.3,0.2,0.4,0.3c0.4,0.2,0.9,0.4,1.3,0.5
					c0.8,0.3,1.6,0.6,2.3,1c0.5,0.2,0.9,0.5,1.2,0.9c0,0.1,0.1,0.1,0.2,0.1c0.8,0.5,1.2,1.2,1.2,2c0,0.6-0.2,1.1-0.4,1.7
					c-0.3,0.6-0.6,1.3-0.9,1.9c-0.2,0.5-0.5,0.9-0.9,1.3c-0.3,0.3-0.6,0.6-0.9,0.9c-0.8,0.7-1.6,1.3-2.4,1.9
					c-0.1,0.1-0.2,0.1-0.3,0.2c0.3,0,0.6,0.1,0.9,0.1c0.4-0.2,0.8-0.4,1.2-0.5c1-0.8,1.9-1.7,2.7-2.6c0.1-0.1,0.1-0.2,0.2-0.3
					c0.2-0.5,0.5-1.1,0.7-1.6c0.2-0.6,0.5-1.2,0.7-1.8C361,73.1,361.1,72.5,361,71.8z"/>
				
					<radialGradient id="SVGID_00000163779102931662067980000016142463176996296359_" cx="342.6111" cy="70.3938" r="18.5357" gradientTransform="matrix(1.0773 0 0 1 -16.2706 0)" gradientUnits="userSpaceOnUse">
					<stop  offset="0" style="stop-color:#4D5B87"/>
					<stop  offset="1" style="stop-color:#1B3764"/>
				</radialGradient>
				<path style="fill:url(#SVGID_00000163779102931662067980000016142463176996296359_);" d="M360,62.4c-0.1-0.2-0.3-0.3-0.5-0.4
					c-0.3-0.2-0.7-0.4-1-0.6c-0.8-0.4-1.7-0.7-2.5-1.1c-0.1,0-0.2-0.1-0.3-0.2c-0.1-0.1-0.3-0.2-0.4-0.3c-0.1,0.3-0.3,0.5-0.5,0.8
					c0.7,0.2,1.4,0.4,2,0.6c1,0.4,2,0.9,3,1.4c0.1,0,0.1,0.1,0.2,0.1C360.1,62.6,360,62.5,360,62.4z"/>
				
					<radialGradient id="SVGID_00000168832928154683136620000015226690222708304262_" cx="342.6111" cy="70.3938" r="18.5357" gradientTransform="matrix(1.0773 0 0 1 -16.2706 0)" gradientUnits="userSpaceOnUse">
					<stop  offset="0" style="stop-color:#4D5B87"/>
					<stop  offset="1" style="stop-color:#1B3764"/>
				</radialGradient>
				<path style="fill:url(#SVGID_00000168832928154683136620000015226690222708304262_);" d="M363.1,74.5
					C363.1,74.5,363.2,74.4,363.1,74.5c0.2-0.7,0.2-1.3,0.1-1.9c-0.1-0.6-0.4-1.1-0.7-1.6c-0.5-0.8-1.1-1.5-1.8-2.2
					c-0.1-0.1-0.3-0.3-0.4-0.4c-2.1-1.6-4.6-2.5-7.4-2.9c-0.7-0.1-1.5-0.2-2.2-0.1c-1.5,0.1-3,0.4-4.4,0.9c-1.5,0.5-2.9,1-4.3,1.6
					c-0.1,0-0.2,0.1-0.2,0.2c0,0.1-0.1,0.2-0.1,0.3c0,0.2,0.1,0.3,0.3,0.3c0.2,0,0.3,0,0.5-0.1c0.5-0.2,1-0.4,1.5-0.6
					c0.4-0.2,0.8-0.4,1.3-0.5c0.1,0,0.2-0.1,0.4-0.1c0.8-0.2,1.5-0.5,2.3-0.7c1-0.3,2-0.5,3.1-0.6c1-0.1,2,0,2.9,0.3
					c0.3,0.1,0.6,0.2,0.9,0.3c0.9,0.2,1.8,0.5,2.7,0.9c0.9,0.4,1.8,0.9,2.5,1.5c0.1,0.1,0.3,0.3,0.4,0.4c1,0.9,1.8,2,2,3.3
					c0.1,0.8,0,1.5-0.3,2.2c0,0.1-0.1,0.2-0.2,0.2c-0.1-0.2-0.1-0.5-0.2-0.7c-0.1-0.2,0-0.5-0.2-0.8c-0.4,1.7-1,3.4-2.2,4.9
					c0.2,0.1,0.4,0.1,0.5,0.1c0.2-0.1,0.4-0.1,0.6-0.2c0.3-0.2,0.5-0.4,0.8-0.6c0.2-0.2,0.4-0.4,0.6-0.7
					C361.9,76.2,362.4,75.2,363.1,74.5z"/>
				
					<radialGradient id="SVGID_00000148619804763499248170000014682422841672467368_" cx="342.6111" cy="70.3938" r="18.5357" gradientTransform="matrix(1.0773 0 0 1 -16.2706 0)" gradientUnits="userSpaceOnUse">
					<stop  offset="0" style="stop-color:#4D5B87"/>
					<stop  offset="1" style="stop-color:#1B3764"/>
				</radialGradient>
				<path style="fill:url(#SVGID_00000148619804763499248170000014682422841672467368_);" d="M368.7,68.7c-0.3-0.7-0.7-1.5-1-2.2
					c-0.1-0.3-0.3-0.5-0.4-0.8c-0.1-0.1-0.1-0.2-0.4-0.2c0,0.1-0.1,0.2,0,0.3c0,0.6,0.2,1.1,0.5,1.5c0.4,0.6,0.7,1.2,0.9,1.9
					C368.5,69,368.6,68.9,368.7,68.7z"/>
				
					<radialGradient id="SVGID_00000106850007782300495280000017102721050517243066_" cx="342.6111" cy="70.3938" r="18.5357" gradientTransform="matrix(1.0773 0 0 1 -16.2706 0)" gradientUnits="userSpaceOnUse">
					<stop  offset="0" style="stop-color:#4D5B87"/>
					<stop  offset="1" style="stop-color:#1B3764"/>
				</radialGradient>
				<path style="fill:url(#SVGID_00000106850007782300495280000017102721050517243066_);" d="M355.5,72.8c-0.4-0.2-0.8-0.3-1.2-0.3
					c-1.2-0.1-2.5,0.1-3.6,0.4c-0.3,0.1-0.5,0.2-0.7,0.3c-0.1,0.1-0.2,0.1-0.3,0.2c-0.6,0.2-1.2,0.4-1.8,0.7c-0.5,0.2-1,0.4-1.4,0.6
					c-0.2,0.1-0.4,0.2-0.5,0.4c-0.2,0.2-0.2,0.4,0,0.6c0.1,0,0.2-0.1,0.4-0.1c0.6-0.2,1.2-0.4,1.8-0.6c0.9-0.4,1.8-0.8,2.7-1.2
					c0.9-0.4,1.8-0.7,2.8-0.7c0.6,0,1.1,0,1.6,0.2c0.5,0.2,0.8,0.6,0.7,1.2c-0.1,0.3-0.1,0.5-0.3,0.7c-0.6,1-1.5,1.8-2.7,2.3
					c-0.1,0-0.1,0.1-0.2,0.1c-1,0.7-2,1.4-3,2c-0.8,0.6-1.6,1.2-2.4,1.9c0.1,0,0.2,0.1,0.2,0.1c0.4-0.3,0.9-0.5,1.4-0.6
					c0.2,0,0.3,0,0.5-0.1c0.1-0.1,0.1-0.1,0.2-0.2c0.1-0.1,0.2-0.1,0.2-0.2c0.6-0.6,1.2-1,1.9-1.5c0.8-0.5,1.7-1,2.5-1.6
					c0.9-0.6,1.6-1.2,2.2-2c0.2-0.4,0.4-0.7,0.4-1.1C356.6,73.7,356.3,73.1,355.5,72.8z"/>
				
					<radialGradient id="SVGID_00000102516777069928967630000015125506511869171341_" cx="342.6111" cy="70.3938" r="18.5357" gradientTransform="matrix(1.0773 0 0 1 -16.2706 0)" gradientUnits="userSpaceOnUse">
					<stop  offset="0" style="stop-color:#4D5B87"/>
					<stop  offset="1" style="stop-color:#1B3764"/>
				</radialGradient>
				<path style="fill:url(#SVGID_00000102516777069928967630000015125506511869171341_);" d="M372,63.4c-0.2-0.4-0.3-0.8-0.5-1.1
					c-0.8-1.5-2-2.7-3.5-3.7c-0.3-0.2-0.7-0.4-1.1-0.6c-0.7-0.5-1.3-0.9-1.9-1.4c-0.1,0.2-0.2,0.4-0.3,0.6c0.3,0.2,0.6,0.4,0.9,0.6
					c1.2,0.8,2.4,1.7,3.4,2.7c0.9,0.8,1.6,1.8,2.1,2.8c0.2,0.4,0.3,0.7,0.5,1.1c0.1,0,0.2-0.1,0.3-0.1C372,63.9,372,63.6,372,63.4z"
					/>
				
					<radialGradient id="SVGID_00000108310108416270451470000003088632811690313918_" cx="342.6111" cy="70.3938" r="18.5357" gradientTransform="matrix(1.0773 0 0 1 -16.2706 0)" gradientUnits="userSpaceOnUse">
					<stop  offset="0" style="stop-color:#4D5B87"/>
					<stop  offset="1" style="stop-color:#1B3764"/>
				</radialGradient>
				<path style="fill:url(#SVGID_00000108310108416270451470000003088632811690313918_);" d="M370.4,52.3c-0.1-0.3-0.2-0.5-0.2-0.8
					c-0.4-0.3-0.7-0.6-1.1-0.8c-0.7-0.4-1.4-0.6-2.2-0.6c-0.1,0-0.1,0-0.2,0c0,0,0,0.1,0.1,0.1c0.7,0.4,1.3,0.9,2,1.4
					c0.7,0.5,1.3,1,2.1,1.5C370.6,52.8,370.5,52.6,370.4,52.3z"/>
				
					<radialGradient id="SVGID_00000132777448685934271730000005233751350573369735_" cx="342.6111" cy="70.3938" r="18.5357" gradientTransform="matrix(1.0773 0 0 1 -16.2706 0)" gradientUnits="userSpaceOnUse">
					<stop  offset="0" style="stop-color:#4D5B87"/>
					<stop  offset="1" style="stop-color:#1B3764"/>
				</radialGradient>
				<path style="fill:url(#SVGID_00000132777448685934271730000005233751350573369735_);" d="M373.1,58.8c-0.4-0.3-0.7-0.7-1-1
					c-0.6-0.6-1.2-1.2-1.9-1.7c-0.2-0.2-0.5-0.3-0.7-0.5c0,0,0,0-0.1,0c0.1,0.4,0.3,0.9,0.7,1.2c0.7,0.6,1.3,1.2,2,1.9
					c0.6,0.5,1.1,1.1,1.7,1.6C373.4,59.8,373.3,59.3,373.1,58.8z"/>
				
					<radialGradient id="SVGID_00000020386366666440728540000017268939775287747211_" cx="342.6111" cy="70.3938" r="18.5357" gradientTransform="matrix(1.0773 0 0 1 -16.2706 0)" gradientUnits="userSpaceOnUse">
					<stop  offset="0" style="stop-color:#4D5B87"/>
					<stop  offset="1" style="stop-color:#1B3764"/>
				</radialGradient>
				<path style="fill:url(#SVGID_00000020386366666440728540000017268939775287747211_);" d="M354.1,73.8c-0.1-0.1-0.2-0.2-0.4-0.1
					c-1.4,0.3-2.7,0.8-4,1.3c-2.2,1-4.2,2.3-6,3.8c0.3,0.1,0.6,0.3,0.9,0.5c0.2-0.1,0.4-0.2,0.6-0.4c0.7-0.5,1.5-1,2.2-1.6
					c0.9-0.7,2-1.2,3.1-1.6c0.1,0,0.1-0.1,0.2-0.1c0.2-0.1,0.4-0.3,0.7-0.4c0.6-0.2,1.2-0.4,1.7-0.6c0.3-0.1,0.6-0.2,0.9-0.5
					C354.2,74.1,354.2,74,354.1,73.8z"/>
				
					<radialGradient id="SVGID_00000029739141207454416980000005728644413211162273_" cx="342.6111" cy="70.3938" r="18.5357" gradientTransform="matrix(1.0773 0 0 1 -16.2706 0)" gradientUnits="userSpaceOnUse">
					<stop  offset="0" style="stop-color:#4D5B87"/>
					<stop  offset="1" style="stop-color:#1B3764"/>
				</radialGradient>
				<path style="fill:url(#SVGID_00000029739141207454416980000005728644413211162273_);" d="M334.7,71.4c0.5-0.4,1-0.8,1.5-1.1
					c1.3-0.9,2.7-1.7,4.1-2.4c1.7-0.9,3.5-1.6,5.4-2.2c0.5-0.2,1-0.3,1.5-0.5c0.6-0.2,1.2-0.3,1.8-0.4c1-0.1,1.9-0.1,2.9,0
					c1.2,0.1,2.3,0.2,3.5,0.2c0.1,0,0.3,0,0.5,0c-0.1-0.1-0.1-0.1-0.2-0.1c-0.4-0.3-0.9-0.4-1.5-0.6c-1.1-0.3-2.3-0.3-3.4-0.3
					c-1,0-1.9,0.2-2.8,0.4c-1.1,0.2-2.1,0.5-3.1,0.8c-0.9,0.3-1.8,0.7-2.7,1c-0.8,0.3-1.7,0.7-2.5,1.1c-1.3,0.6-2.5,1.3-3.6,2.1
					c-0.6,0.4-1.2,0.8-1.7,1.3C334.4,70.9,334.6,71.2,334.7,71.4z"/>
				
					<radialGradient id="SVGID_00000081648108435151343600000006441224753626435001_" cx="342.6111" cy="70.3938" r="18.5357" gradientTransform="matrix(1.0773 0 0 1 -16.2706 0)" gradientUnits="userSpaceOnUse">
					<stop  offset="0" style="stop-color:#4D5B87"/>
					<stop  offset="1" style="stop-color:#1B3764"/>
				</radialGradient>
				<path style="fill:url(#SVGID_00000081648108435151343600000006441224753626435001_);" d="M351.8,76.2c-0.1,0.1-0.2,0.1-0.3,0.1
					c-1.1,0.5-2.1,1.1-3.1,1.8c-1,0.7-1.9,1.4-2.8,2.1c0.1,0.2,0.3,0.3,0.4,0.5c0.1,0.1,0.2,0.2,0.2,0.3c0.4-0.3,0.8-0.5,1.3-0.8
					c0.1,0,0.1-0.1,0.1-0.2c0.1-0.4,0.3-0.7,0.7-1c0.3-0.2,0.6-0.4,0.9-0.6c0.5-0.3,1.1-0.5,1.6-0.8c0.3-0.1,0.5-0.3,0.7-0.5
					C352,76.9,352,76.5,351.8,76.2z"/>
				
					<radialGradient id="SVGID_00000034797860061921164690000013265874809768873101_" cx="342.6111" cy="70.3938" r="18.5357" gradientTransform="matrix(1.0773 0 0 1 -16.2706 0)" gradientUnits="userSpaceOnUse">
					<stop  offset="0" style="stop-color:#4D5B87"/>
					<stop  offset="1" style="stop-color:#1B3764"/>
				</radialGradient>
				<path style="fill:url(#SVGID_00000034797860061921164690000013265874809768873101_);" d="M367.6,62.4c-1.4-1.5-3.1-2.7-4.9-3.8
					c-0.3,0.1-0.6,0.2-0.9,0.3c1.1,0.5,2.1,1.1,2.9,1.9c0.5,0.4,0.9,0.9,1.4,1.3c0.3,0.3,0.6,0.5,0.9,0.7c0.1,0.1,0.2,0.1,0.4,0.2
					c0.2,0.1,0.3,0,0.3-0.2C367.8,62.7,367.7,62.5,367.6,62.4z"/>
				
					<radialGradient id="SVGID_00000051362904494523773020000011457454122266623645_" cx="342.6111" cy="70.3938" r="18.5357" gradientTransform="matrix(1.0773 0 0 1 -16.2706 0)" gradientUnits="userSpaceOnUse">
					<stop  offset="0" style="stop-color:#4D5B87"/>
					<stop  offset="1" style="stop-color:#1B3764"/>
				</radialGradient>
				<path style="fill:url(#SVGID_00000051362904494523773020000011457454122266623645_);" d="M348.3,69.5c0,0-0.1,0-0.1,0
					c-1.1,0.3-2.3,0.6-3.4,0.9c-0.8,0.2-1.6,0.4-2.3,0.5c-0.1,0-0.3,0.1-0.3,0.2c-0.2,0.2-0.4,0.2-0.6,0.1c-0.2-0.1-0.3-0.3-0.4-0.6
					c0-0.1,0-0.2,0.1-0.2c0.5-0.3,1-0.6,1.5-0.9c1.2-0.7,2.5-1.3,3.9-1.7c0.7-0.2,1.4-0.4,2.1-0.5c0.1,0,0.3-0.1,0.4-0.1
					c0.3-0.2,0.7-0.2,1.1-0.2c0.6,0,1.2,0.1,1.8,0.3c0.1,0.1,0.3,0.1,0.4,0.2c0.1,0.1,0.1,0.2-0.1,0.2c-0.2,0.1-0.4,0.1-0.6,0.1
					c-0.5,0-1,0-1.6,0.1c-1,0.1-2,0.3-3,0.5c-1,0.2-1.9,0.5-2.8,0.9c-0.1,0-0.1,0.1-0.2,0.1c0,0-0.1,0-0.1,0.1
					c-0.1,0.3,0.1,0.6,0.5,0.6c0.4,0,0.7-0.1,1-0.3c0.5-0.2,1.1-0.4,1.6-0.7c0.2-0.1,0.4-0.1,0.6-0.2
					C348.1,68.8,348.4,69,348.3,69.5z"/>
				
					<radialGradient id="SVGID_00000078738538037420303130000013726592186101013177_" cx="342.6111" cy="70.3938" r="18.5357" gradientTransform="matrix(1.0773 0 0 1 -16.2706 0)" gradientUnits="userSpaceOnUse">
					<stop  offset="0" style="stop-color:#4D5B87"/>
					<stop  offset="1" style="stop-color:#1B3764"/>
				</radialGradient>
				<path style="fill:url(#SVGID_00000078738538037420303130000013726592186101013177_);" d="M350.2,70.2c-0.1,0.2-0.2,0.2-0.3,0.2
					c-0.4,0.2-0.9,0.3-1.3,0.5c-1.5,0.4-2.9,0.9-4.3,1.4c-1,0.4-1.9,0.9-2.7,1.5c-0.1,0.1-0.1,0.1-0.2,0.2c-0.4,0.4-1,0.6-1.6,0.6
					c-0.2,0-0.3,0-0.4-0.1c-0.1-0.1,0-0.3,0.1-0.4c1-1.1,2.3-1.9,3.8-2.5c0.8-0.3,1.7-0.5,2.6-0.7c0.3-0.1,0.6-0.2,1-0.3
					c1-0.3,1.9-0.5,2.9-0.6C349.9,70.2,350,70.2,350.2,70.2z"/>
				
					<radialGradient id="SVGID_00000026852208775214649190000005031849230036643992_" cx="342.6111" cy="70.3938" r="18.5357" gradientTransform="matrix(1.0773 0 0 1 -16.2706 0)" gradientUnits="userSpaceOnUse">
					<stop  offset="0" style="stop-color:#4D5B87"/>
					<stop  offset="1" style="stop-color:#1B3764"/>
				</radialGradient>
				<path style="fill:url(#SVGID_00000026852208775214649190000005031849230036643992_);" d="M336.9,74.5c0.7-0.4,1.5-0.8,2.1-1.3
					c0.5-0.3,1-0.7,1.4-1.1c0.1-0.1,0.2-0.2,0.2-0.4c0.1-0.2,0-0.4-0.2-0.5c-0.1-0.1-0.3-0.1-0.4-0.1c-0.1,0-0.2,0-0.3,0.1
					c-0.6,0.4-1.2,0.8-1.8,1.2c-0.6,0.4-1.1,0.8-1.6,1.2C336.5,74,336.7,74.3,336.9,74.5z"/>
				
					<radialGradient id="SVGID_00000125578160139094494060000010874090187057056164_" cx="342.6111" cy="70.3938" r="18.5357" gradientTransform="matrix(1.0773 0 0 1 -16.2706 0)" gradientUnits="userSpaceOnUse">
					<stop  offset="0" style="stop-color:#4D5B87"/>
					<stop  offset="1" style="stop-color:#1B3764"/>
				</radialGradient>
				<path style="fill:url(#SVGID_00000125578160139094494060000010874090187057056164_);" d="M335.7,73c0.2-0.1,0.3-0.3,0.5-0.4
					c0.5-0.4,0.9-0.8,1.4-1.2c0.4-0.3,0.8-0.6,1.3-0.9c0.3-0.2,0.6-0.3,0.9-0.3c0.5-0.1,0.9-0.3,1.3-0.7c0.1-0.1,0.2-0.2,0.2-0.3
					c0.1-0.3,0-0.4-0.3-0.4c-0.2,0-0.4,0.1-0.6,0.1c-0.4,0.1-0.7,0.3-1,0.5c-1.1,0.6-2.2,1.2-3.3,1.9c-0.3,0.2-0.6,0.5-1,0.7
					C335.4,72.4,335.6,72.7,335.7,73z"/>
				
					<radialGradient id="SVGID_00000096755247588221531320000017074099112061074048_" cx="342.6111" cy="70.3938" r="18.5357" gradientTransform="matrix(1.0773 0 0 1 -16.2706 0)" gradientUnits="userSpaceOnUse">
					<stop  offset="0" style="stop-color:#4D5B87"/>
					<stop  offset="1" style="stop-color:#1B3764"/>
				</radialGradient>
				<path style="fill:url(#SVGID_00000096755247588221531320000017074099112061074048_);" d="M339.7,77.8c0.1,0,0.2,0,0.3,0
					c0,0,0-0.1,0-0.1c0.2-0.7,0.7-1.2,1.3-1.6c0.4-0.3,0.8-0.5,1.2-0.7c0.5-0.3,1.1-0.6,1.6-0.9c0.2-0.1,0.4-0.3,0.6-0.5
					c-0.3-0.2-0.5-0.3-0.8-0.3c-0.5,0-0.9,0.1-1.4,0.3c-1.1,0.5-1.9,1.1-2.6,2c-0.3,0.4-0.6,0.8-0.8,1.3c0,0,0,0,0,0
					C339.4,77.5,339.6,77.7,339.7,77.8z"/>
				
					<radialGradient id="SVGID_00000100343104593277200500000012384370685858316170_" cx="342.6111" cy="70.3938" r="18.5357" gradientTransform="matrix(1.0773 0 0 1 -16.2706 0)" gradientUnits="userSpaceOnUse">
					<stop  offset="0" style="stop-color:#4D5B87"/>
					<stop  offset="1" style="stop-color:#1B3764"/>
				</radialGradient>
				<path style="fill:url(#SVGID_00000100343104593277200500000012384370685858316170_);" d="M360.6,63c0.3,0.1,0.6,0.2,0.9,0.4
					c0.7,0.4,1.2,1,1.7,1.5c0.5,0.6,0.9,1.1,1.4,1.7c0.2,0.2,0.4,0.4,0.7,0.6c0.3,0.3,0.6,0.7,0.8,1c0.2,0.5,0.4,1,0.5,1.5
					c0,0.1,0,0.2,0,0.4c0,0.1,0,0.1,0,0.2c-0.2,0-0.2-0.1-0.3-0.1c-0.2-0.3-0.4-0.6-0.6-0.9c-0.4-0.8-0.8-1.5-1.4-2.2
					c-0.6-0.7-1.3-1.4-2-2.1c-0.5-0.5-0.9-1.1-1.4-1.6C360.7,63.3,360.7,63.1,360.6,63z"/>
				
					<radialGradient id="SVGID_00000004532427310190842820000016589075433547300226_" cx="342.6111" cy="70.3938" r="18.5357" gradientTransform="matrix(1.0773 0 0 1 -16.2706 0)" gradientUnits="userSpaceOnUse">
					<stop  offset="0" style="stop-color:#4D5B87"/>
					<stop  offset="1" style="stop-color:#1B3764"/>
				</radialGradient>
				<path style="fill:url(#SVGID_00000004532427310190842820000016589075433547300226_);" d="M371.4,54.8c-0.7-0.6-1.5-1.2-2.4-1.6
					c-0.1,0-0.2-0.1-0.3-0.1c0,0,0,0-0.1,0c0,0.1,0.1,0.2,0.1,0.3c0.1,0.3,0.3,0.6,0.6,0.8c0.3,0.3,0.6,0.5,0.9,0.7
					c0.7,0.5,1.4,1.1,2,1.7C371.9,56,371.6,55.4,371.4,54.8z"/>
				
					<radialGradient id="SVGID_00000012456763293660592860000013966129928027565229_" cx="342.6111" cy="70.3938" r="18.5357" gradientTransform="matrix(1.0773 0 0 1 -16.2706 0)" gradientUnits="userSpaceOnUse">
					<stop  offset="0" style="stop-color:#4D5B87"/>
					<stop  offset="1" style="stop-color:#1B3764"/>
				</radialGradient>
				<path style="fill:url(#SVGID_00000012456763293660592860000013966129928027565229_);" d="M360.6,59.5c0.1,0,0.2,0,0.3,0.1
					c0.7,0.1,1.3,0.4,1.9,0.8c0.6,0.4,1.1,0.8,1.6,1.3c0.2,0.2,0.5,0.4,0.7,0.6c0.5,0.4,1,0.9,1.6,1.2c-0.2,0.1-0.5,0.2-0.5,0.4
					c-0.1,0.2-0.1,0.4-0.1,0.6c-0.2-0.2-0.4-0.4-0.5-0.7c-0.4-0.6-0.9-1.2-1.6-1.6c-0.6-0.4-1.2-0.9-1.8-1.3
					c-0.6-0.4-1.1-0.8-1.4-1.4C360.6,59.6,360.6,59.6,360.6,59.5z"/>
				
					<radialGradient id="SVGID_00000179604695730810421810000008817044579567417504_" cx="342.6111" cy="70.3938" r="18.5357" gradientTransform="matrix(1.0773 0 0 1 -16.2706 0)" gradientUnits="userSpaceOnUse">
					<stop  offset="0" style="stop-color:#4D5B87"/>
					<stop  offset="1" style="stop-color:#1B3764"/>
				</radialGradient>
				<path style="fill:url(#SVGID_00000179604695730810421810000008817044579567417504_);" d="M352.3,69.9c0.2-0.2,0.4-0.3,0.6-0.3
					c0.4-0.1,0.8-0.1,1.2-0.1c0.7,0,1.3,0.1,2,0.3c0.2,0.1,0.4,0.1,0.5,0.2c0.2,0.1,0.2,0.3-0.1,0.4c-0.2,0.1-0.4,0.1-0.6,0.1
					c-0.5-0.1-1-0.1-1.4-0.2c-0.5-0.1-1-0.1-1.5-0.2C352.7,70.1,352.5,70,352.3,69.9z"/>
				
					<radialGradient id="SVGID_00000011027667257207185460000013455144586763231125_" cx="342.6111" cy="70.3938" r="18.5357" gradientTransform="matrix(1.0773 0 0 1 -16.2706 0)" gradientUnits="userSpaceOnUse">
					<stop  offset="0" style="stop-color:#4D5B87"/>
					<stop  offset="1" style="stop-color:#1B3764"/>
				</radialGradient>
				<path style="fill:url(#SVGID_00000011027667257207185460000013455144586763231125_);" d="M369.1,67.1c0-0.1,0-0.1,0-0.2
					c-0.1-0.4-0.2-0.8-0.4-1.2c-0.2-0.5-0.5-1-0.9-1.4c-0.2-0.2-0.4-0.3-0.6-0.5c0,0-0.1,0-0.1,0c0,0.4,0.1,0.7,0.3,1
					c0.2,0.4,0.5,0.7,0.7,1.1c0.3,0.4,0.6,0.8,0.8,1.3c0,0.1,0.1,0.1,0.2,0.2C369.1,67.2,369.1,67.2,369.1,67.1z"/>
				
					<radialGradient id="SVGID_00000030458469549814852730000002050677349154530958_" cx="342.6111" cy="70.3938" r="18.5357" gradientTransform="matrix(1.0773 0 0 1 -16.2706 0)" gradientUnits="userSpaceOnUse">
					<stop  offset="0" style="stop-color:#4D5B87"/>
					<stop  offset="1" style="stop-color:#1B3764"/>
				</radialGradient>
				<path style="fill:url(#SVGID_00000030458469549814852730000002050677349154530958_);" d="M359.2,72.3c0,0.1,0,0.2,0,0.3
					c0,0.1-0.1,0.2-0.2,0.1c0,0-0.1,0-0.1-0.1c-0.1,0-0.1-0.1-0.2-0.1c-0.4-0.4-0.8-0.9-1.2-1.3c-0.1-0.1-0.1-0.1-0.1-0.2
					c-0.1-0.1-0.1-0.2,0-0.3c0.1-0.1,0.3-0.2,0.5-0.1c0.2,0.1,0.4,0.2,0.6,0.3C358.8,71.3,359.1,71.7,359.2,72.3z"/>
				
					<radialGradient id="SVGID_00000067953129770588303210000001063141656423332247_" cx="342.6111" cy="70.3938" r="18.5357" gradientTransform="matrix(1.0773 0 0 1 -16.2706 0)" gradientUnits="userSpaceOnUse">
					<stop  offset="0" style="stop-color:#4D5B87"/>
					<stop  offset="1" style="stop-color:#1B3764"/>
				</radialGradient>
				<path style="fill:url(#SVGID_00000067953129770588303210000001063141656423332247_);" d="M354.7,63.3c-0.1,0-0.2,0.1-0.3,0.1
					c-0.2,0-0.4,0-0.6,0c-0.5,0-1,0-1.4,0c-0.2,0-0.4,0-0.6-0.1c-0.3-0.1-0.4-0.2-0.4-0.5C351.9,62.7,354.3,62.9,354.7,63.3z"/>
				
					<radialGradient id="SVGID_00000031921166860385833220000014843668409088837308_" cx="342.6111" cy="70.3938" r="18.5357" gradientTransform="matrix(1.0773 0 0 1 -16.2706 0)" gradientUnits="userSpaceOnUse">
					<stop  offset="0" style="stop-color:#4D5B87"/>
					<stop  offset="1" style="stop-color:#1B3764"/>
				</radialGradient>
				<path style="fill:url(#SVGID_00000031921166860385833220000014843668409088837308_);" d="M352.9,68.5c-0.1,0.1-0.2,0.1-0.2,0.1
					c-0.3,0.1-0.7,0.3-1,0.3c-0.5,0.1-1,0.1-1.4,0.2c-0.1,0-0.3,0-0.4,0c-0.1,0-0.2-0.1-0.2-0.2c0-0.1,0.1-0.2,0.2-0.2
					c0.3-0.1,0.7-0.2,1-0.2c0.6-0.1,1.2-0.1,1.7-0.1C352.6,68.4,352.8,68.4,352.9,68.5z"/>
				
					<radialGradient id="SVGID_00000011736076780392059250000002889415394764615337_" cx="342.6111" cy="70.3938" r="18.5357" gradientTransform="matrix(1.0773 0 0 1 -16.2706 0)" gradientUnits="userSpaceOnUse">
					<stop  offset="0" style="stop-color:#4D5B87"/>
					<stop  offset="1" style="stop-color:#1B3764"/>
				</radialGradient>
				<path style="fill:url(#SVGID_00000011736076780392059250000002889415394764615337_);" d="M353.2,76.1c-0.1,0-0.2,0-0.3,0
					c-0.2,0-0.3-0.1-0.2-0.3c0,0,0.1-0.1,0.1-0.1c0.3-0.3,0.7-0.6,1.1-0.7c0.1,0,0.3-0.1,0.4-0.1c0.2,0,0.3,0.1,0.2,0.3
					c0,0-0.1,0.1-0.1,0.1c-0.3,0.2-0.6,0.4-0.9,0.6C353.3,76.1,353.3,76.1,353.2,76.1z"/>
				
					<radialGradient id="SVGID_00000049223864686054310470000007436662142127301267_" cx="342.6111" cy="70.3938" r="18.5357" gradientTransform="matrix(1.0773 0 0 1 -16.2706 0)" gradientUnits="userSpaceOnUse">
					<stop  offset="0" style="stop-color:#4D5B87"/>
					<stop  offset="1" style="stop-color:#1B3764"/>
				</radialGradient>
				<path style="fill:url(#SVGID_00000049223864686054310470000007436662142127301267_);" d="M343.8,76.3c0-0.2,0-0.4,0.2-0.5
					c0.2-0.1,0.4-0.2,0.6-0.2c0.2-0.1,0.4,0,0.4,0.2c0.1,0.3-0.1,0.8-0.4,1c-0.2,0.1-0.4,0.1-0.5,0C344,76.6,343.9,76.5,343.8,76.3z
					"/>
				
					<radialGradient id="SVGID_00000026873757979725028530000016969058710793726906_" cx="342.6111" cy="70.3938" r="18.5357" gradientTransform="matrix(1.0773 0 0 1 -16.2706 0)" gradientUnits="userSpaceOnUse">
					<stop  offset="0" style="stop-color:#4D5B87"/>
					<stop  offset="1" style="stop-color:#1B3764"/>
				</radialGradient>
				<path style="fill:url(#SVGID_00000026873757979725028530000016969058710793726906_);" d="M353.9,68.9c-0.1-0.3,0.2-0.6,0.6-0.6
					C354.4,68.6,354.2,68.9,353.9,68.9z"/>
			</g>
		</g>
	</g>
</g>
</svg>
